<?xml version="1.0" encoding="utf-8" standalone="no"?>
<!DOCTYPE svg PUBLIC "-//W3C//DTD SVG 1.1//EN"
  "http://www.w3.org/Graphics/SVG/1.1/DTD/svg11.dtd">
<!-- Created with matplotlib (https://matplotlib.org/) -->
<svg height="603.410766pt" version="1.1" viewBox="0 0 784.536562 603.410766" width="784.536562pt" xmlns="http://www.w3.org/2000/svg" xmlns:xlink="http://www.w3.org/1999/xlink">
 <metadata>
  <rdf:RDF xmlns:cc="http://creativecommons.org/ns#" xmlns:dc="http://purl.org/dc/elements/1.1/" xmlns:rdf="http://www.w3.org/1999/02/22-rdf-syntax-ns#">
   <cc:Work>
    <dc:type rdf:resource="http://purl.org/dc/dcmitype/StillImage"/>
    <dc:date>2021-07-16T12:57:09.717412</dc:date>
    <dc:format>image/svg+xml</dc:format>
    <dc:creator>
     <cc:Agent>
      <dc:title>Matplotlib v3.3.3, https://matplotlib.org/</dc:title>
     </cc:Agent>
    </dc:creator>
   </cc:Work>
  </rdf:RDF>
 </metadata>
 <defs>
  <style type="text/css">*{stroke-linecap:butt;stroke-linejoin:round;}</style>
 </defs>
 <g id="figure_1">
  <g id="patch_1">
   <path d="M 0 603.410766 
L 784.536562 603.410766 
L 784.536562 0 
L 0 0 
z
" style="fill:#ffffff;"/>
  </g>
  <g id="axes_1">
   <g id="patch_2">
    <path d="M 63.096563 547.940062 
L 777.336563 547.940062 
L 777.336563 26.084062 
L 63.096563 26.084062 
z
" style="fill:#eaeaf2;"/>
   </g>
   <g id="matplotlib.axis_1">
    <g id="xtick_1">
     <g id="line2d_1">
      <path clip-path="url(#p264e34f771)" d="M 95.562017 547.940062 
L 95.562017 26.084062 
" style="fill:none;stroke:#ffffff;stroke-linecap:round;stroke-width:1.5;"/>
     </g>
     <g id="text_1">
      <!-- 0.0 -->
      <g style="fill:#262626;" transform="translate(84.094517 572.250453)scale(0.165 -0.165)">
       <defs>
        <path d="M 4.15625 35.296875 
Q 4.15625 48 6.765625 55.734375 
Q 9.375 63.484375 14.515625 67.671875 
Q 19.671875 71.875 27.484375 71.875 
Q 33.25 71.875 37.59375 69.546875 
Q 41.9375 67.234375 44.765625 62.859375 
Q 47.609375 58.5 49.21875 52.21875 
Q 50.828125 45.953125 50.828125 35.296875 
Q 50.828125 22.703125 48.234375 14.96875 
Q 45.65625 7.234375 40.5 3 
Q 35.359375 -1.21875 27.484375 -1.21875 
Q 17.140625 -1.21875 11.234375 6.203125 
Q 4.15625 15.140625 4.15625 35.296875 
z
M 13.1875 35.296875 
Q 13.1875 17.671875 17.3125 11.828125 
Q 21.4375 6 27.484375 6 
Q 33.546875 6 37.671875 11.859375 
Q 41.796875 17.71875 41.796875 35.296875 
Q 41.796875 52.984375 37.671875 58.78125 
Q 33.546875 64.59375 27.390625 64.59375 
Q 21.34375 64.59375 17.71875 59.46875 
Q 13.1875 52.9375 13.1875 35.296875 
z
" id="ArialMT-48"/>
        <path d="M 9.078125 0 
L 9.078125 10.015625 
L 19.09375 10.015625 
L 19.09375 0 
z
" id="ArialMT-46"/>
       </defs>
       <use xlink:href="#ArialMT-48"/>
       <use x="55.615234" xlink:href="#ArialMT-46"/>
       <use x="83.398438" xlink:href="#ArialMT-48"/>
      </g>
     </g>
    </g>
    <g id="xtick_2">
     <g id="line2d_2">
      <path clip-path="url(#p264e34f771)" d="M 225.423835 547.940062 
L 225.423835 26.084062 
" style="fill:none;stroke:#ffffff;stroke-linecap:round;stroke-width:1.5;"/>
     </g>
     <g id="text_2">
      <!-- 0.2 -->
      <g style="fill:#262626;" transform="translate(213.956335 572.250453)scale(0.165 -0.165)">
       <defs>
        <path d="M 50.34375 8.453125 
L 50.34375 0 
L 3.03125 0 
Q 2.9375 3.171875 4.046875 6.109375 
Q 5.859375 10.9375 9.828125 15.625 
Q 13.8125 20.3125 21.34375 26.46875 
Q 33.015625 36.03125 37.109375 41.625 
Q 41.21875 47.21875 41.21875 52.203125 
Q 41.21875 57.421875 37.46875 61 
Q 33.734375 64.59375 27.734375 64.59375 
Q 21.390625 64.59375 17.578125 60.78125 
Q 13.765625 56.984375 13.71875 50.25 
L 4.6875 51.171875 
Q 5.609375 61.28125 11.65625 66.578125 
Q 17.71875 71.875 27.9375 71.875 
Q 38.234375 71.875 44.234375 66.15625 
Q 50.25 60.453125 50.25 52 
Q 50.25 47.703125 48.484375 43.546875 
Q 46.734375 39.40625 42.65625 34.8125 
Q 38.578125 30.21875 29.109375 22.21875 
Q 21.1875 15.578125 18.9375 13.203125 
Q 16.703125 10.84375 15.234375 8.453125 
z
" id="ArialMT-50"/>
       </defs>
       <use xlink:href="#ArialMT-48"/>
       <use x="55.615234" xlink:href="#ArialMT-46"/>
       <use x="83.398438" xlink:href="#ArialMT-50"/>
      </g>
     </g>
    </g>
    <g id="xtick_3">
     <g id="line2d_3">
      <path clip-path="url(#p264e34f771)" d="M 355.285653 547.940062 
L 355.285653 26.084062 
" style="fill:none;stroke:#ffffff;stroke-linecap:round;stroke-width:1.5;"/>
     </g>
     <g id="text_3">
      <!-- 0.4 -->
      <g style="fill:#262626;" transform="translate(343.818153 572.250453)scale(0.165 -0.165)">
       <defs>
        <path d="M 32.328125 0 
L 32.328125 17.140625 
L 1.265625 17.140625 
L 1.265625 25.203125 
L 33.9375 71.578125 
L 41.109375 71.578125 
L 41.109375 25.203125 
L 50.78125 25.203125 
L 50.78125 17.140625 
L 41.109375 17.140625 
L 41.109375 0 
z
M 32.328125 25.203125 
L 32.328125 57.46875 
L 9.90625 25.203125 
z
" id="ArialMT-52"/>
       </defs>
       <use xlink:href="#ArialMT-48"/>
       <use x="55.615234" xlink:href="#ArialMT-46"/>
       <use x="83.398438" xlink:href="#ArialMT-52"/>
      </g>
     </g>
    </g>
    <g id="xtick_4">
     <g id="line2d_4">
      <path clip-path="url(#p264e34f771)" d="M 485.147472 547.940062 
L 485.147472 26.084062 
" style="fill:none;stroke:#ffffff;stroke-linecap:round;stroke-width:1.5;"/>
     </g>
     <g id="text_4">
      <!-- 0.6 -->
      <g style="fill:#262626;" transform="translate(473.679972 572.250453)scale(0.165 -0.165)">
       <defs>
        <path d="M 49.75 54.046875 
L 41.015625 53.375 
Q 39.84375 58.546875 37.703125 60.890625 
Q 34.125 64.65625 28.90625 64.65625 
Q 24.703125 64.65625 21.53125 62.3125 
Q 17.390625 59.28125 14.984375 53.46875 
Q 12.59375 47.65625 12.5 36.921875 
Q 15.671875 41.75 20.265625 44.09375 
Q 24.859375 46.4375 29.890625 46.4375 
Q 38.671875 46.4375 44.84375 39.96875 
Q 51.03125 33.5 51.03125 23.25 
Q 51.03125 16.5 48.125 10.71875 
Q 45.21875 4.9375 40.140625 1.859375 
Q 35.0625 -1.21875 28.609375 -1.21875 
Q 17.625 -1.21875 10.6875 6.859375 
Q 3.765625 14.9375 3.765625 33.5 
Q 3.765625 54.25 11.421875 63.671875 
Q 18.109375 71.875 29.4375 71.875 
Q 37.890625 71.875 43.28125 67.140625 
Q 48.6875 62.40625 49.75 54.046875 
z
M 13.875 23.1875 
Q 13.875 18.65625 15.796875 14.5 
Q 17.71875 10.359375 21.1875 8.171875 
Q 24.65625 6 28.46875 6 
Q 34.03125 6 38.03125 10.484375 
Q 42.046875 14.984375 42.046875 22.703125 
Q 42.046875 30.125 38.078125 34.390625 
Q 34.125 38.671875 28.125 38.671875 
Q 22.171875 38.671875 18.015625 34.390625 
Q 13.875 30.125 13.875 23.1875 
z
" id="ArialMT-54"/>
       </defs>
       <use xlink:href="#ArialMT-48"/>
       <use x="55.615234" xlink:href="#ArialMT-46"/>
       <use x="83.398438" xlink:href="#ArialMT-54"/>
      </g>
     </g>
    </g>
    <g id="xtick_5">
     <g id="line2d_5">
      <path clip-path="url(#p264e34f771)" d="M 615.00929 547.940062 
L 615.00929 26.084062 
" style="fill:none;stroke:#ffffff;stroke-linecap:round;stroke-width:1.5;"/>
     </g>
     <g id="text_5">
      <!-- 0.8 -->
      <g style="fill:#262626;" transform="translate(603.54179 572.250453)scale(0.165 -0.165)">
       <defs>
        <path d="M 17.671875 38.8125 
Q 12.203125 40.828125 9.5625 44.53125 
Q 6.9375 48.25 6.9375 53.421875 
Q 6.9375 61.234375 12.546875 66.546875 
Q 18.171875 71.875 27.484375 71.875 
Q 36.859375 71.875 42.578125 66.421875 
Q 48.296875 60.984375 48.296875 53.171875 
Q 48.296875 48.1875 45.671875 44.5 
Q 43.0625 40.828125 37.75 38.8125 
Q 44.34375 36.671875 47.78125 31.875 
Q 51.21875 27.09375 51.21875 20.453125 
Q 51.21875 11.28125 44.71875 5.03125 
Q 38.234375 -1.21875 27.640625 -1.21875 
Q 17.046875 -1.21875 10.546875 5.046875 
Q 4.046875 11.328125 4.046875 20.703125 
Q 4.046875 27.6875 7.59375 32.390625 
Q 11.140625 37.109375 17.671875 38.8125 
z
M 15.921875 53.71875 
Q 15.921875 48.640625 19.1875 45.40625 
Q 22.46875 42.1875 27.6875 42.1875 
Q 32.765625 42.1875 36.015625 45.375 
Q 39.265625 48.578125 39.265625 53.21875 
Q 39.265625 58.0625 35.90625 61.359375 
Q 32.5625 64.65625 27.59375 64.65625 
Q 22.5625 64.65625 19.234375 61.421875 
Q 15.921875 58.203125 15.921875 53.71875 
z
M 13.09375 20.65625 
Q 13.09375 16.890625 14.875 13.375 
Q 16.65625 9.859375 20.171875 7.921875 
Q 23.6875 6 27.734375 6 
Q 34.03125 6 38.125 10.046875 
Q 42.234375 14.109375 42.234375 20.359375 
Q 42.234375 26.703125 38.015625 30.859375 
Q 33.796875 35.015625 27.4375 35.015625 
Q 21.234375 35.015625 17.15625 30.90625 
Q 13.09375 26.8125 13.09375 20.65625 
z
" id="ArialMT-56"/>
       </defs>
       <use xlink:href="#ArialMT-48"/>
       <use x="55.615234" xlink:href="#ArialMT-46"/>
       <use x="83.398438" xlink:href="#ArialMT-56"/>
      </g>
     </g>
    </g>
    <g id="xtick_6">
     <g id="line2d_6">
      <path clip-path="url(#p264e34f771)" d="M 744.871108 547.940062 
L 744.871108 26.084062 
" style="fill:none;stroke:#ffffff;stroke-linecap:round;stroke-width:1.5;"/>
     </g>
     <g id="text_6">
      <!-- 1.0 -->
      <g style="fill:#262626;" transform="translate(733.403608 572.250453)scale(0.165 -0.165)">
       <defs>
        <path d="M 37.25 0 
L 28.46875 0 
L 28.46875 56 
Q 25.296875 52.984375 20.140625 49.953125 
Q 14.984375 46.921875 10.890625 45.40625 
L 10.890625 53.90625 
Q 18.265625 57.375 23.78125 62.296875 
Q 29.296875 67.234375 31.59375 71.875 
L 37.25 71.875 
z
" id="ArialMT-49"/>
       </defs>
       <use xlink:href="#ArialMT-49"/>
       <use x="55.615234" xlink:href="#ArialMT-46"/>
       <use x="83.398438" xlink:href="#ArialMT-48"/>
      </g>
     </g>
    </g>
    <g id="text_7">
     <!-- false positive rate -->
     <g style="fill:#262626;" transform="translate(350.185313 592.633266)scale(0.18 -0.18)">
      <defs>
       <path d="M 8.6875 0 
L 8.6875 45.015625 
L 0.921875 45.015625 
L 0.921875 51.859375 
L 8.6875 51.859375 
L 8.6875 57.375 
Q 8.6875 62.59375 9.625 65.140625 
Q 10.890625 68.5625 14.078125 70.671875 
Q 17.28125 72.796875 23.046875 72.796875 
Q 26.765625 72.796875 31.25 71.921875 
L 29.9375 64.265625 
Q 27.203125 64.75 24.75 64.75 
Q 20.75 64.75 19.09375 63.03125 
Q 17.4375 61.328125 17.4375 56.640625 
L 17.4375 51.859375 
L 27.546875 51.859375 
L 27.546875 45.015625 
L 17.4375 45.015625 
L 17.4375 0 
z
" id="ArialMT-102"/>
       <path d="M 40.4375 6.390625 
Q 35.546875 2.25 31.03125 0.53125 
Q 26.515625 -1.171875 21.34375 -1.171875 
Q 12.796875 -1.171875 8.203125 3 
Q 3.609375 7.171875 3.609375 13.671875 
Q 3.609375 17.484375 5.34375 20.625 
Q 7.078125 23.78125 9.890625 25.6875 
Q 12.703125 27.59375 16.21875 28.5625 
Q 18.796875 29.25 24.03125 29.890625 
Q 34.671875 31.15625 39.703125 32.90625 
Q 39.75 34.71875 39.75 35.203125 
Q 39.75 40.578125 37.25 42.78125 
Q 33.890625 45.75 27.25 45.75 
Q 21.046875 45.75 18.09375 43.578125 
Q 15.140625 41.40625 13.71875 35.890625 
L 5.125 37.0625 
Q 6.296875 42.578125 8.984375 45.96875 
Q 11.671875 49.359375 16.75 51.1875 
Q 21.828125 53.03125 28.515625 53.03125 
Q 35.15625 53.03125 39.296875 51.46875 
Q 43.453125 49.90625 45.40625 47.53125 
Q 47.359375 45.171875 48.140625 41.546875 
Q 48.578125 39.3125 48.578125 33.453125 
L 48.578125 21.734375 
Q 48.578125 9.46875 49.140625 6.21875 
Q 49.703125 2.984375 51.375 0 
L 42.1875 0 
Q 40.828125 2.734375 40.4375 6.390625 
z
M 39.703125 26.03125 
Q 34.90625 24.078125 25.34375 22.703125 
Q 19.921875 21.921875 17.671875 20.9375 
Q 15.4375 19.96875 14.203125 18.09375 
Q 12.984375 16.21875 12.984375 13.921875 
Q 12.984375 10.40625 15.640625 8.0625 
Q 18.3125 5.71875 23.4375 5.71875 
Q 28.515625 5.71875 32.46875 7.9375 
Q 36.421875 10.15625 38.28125 14.015625 
Q 39.703125 17 39.703125 22.796875 
z
" id="ArialMT-97"/>
       <path d="M 6.390625 0 
L 6.390625 71.578125 
L 15.1875 71.578125 
L 15.1875 0 
z
" id="ArialMT-108"/>
       <path d="M 3.078125 15.484375 
L 11.765625 16.84375 
Q 12.5 11.625 15.84375 8.84375 
Q 19.1875 6.0625 25.203125 6.0625 
Q 31.25 6.0625 34.171875 8.515625 
Q 37.109375 10.984375 37.109375 14.3125 
Q 37.109375 17.28125 34.515625 19 
Q 32.71875 20.171875 25.53125 21.96875 
Q 15.875 24.421875 12.140625 26.203125 
Q 8.40625 27.984375 6.46875 31.125 
Q 4.546875 34.28125 4.546875 38.09375 
Q 4.546875 41.546875 6.125 44.5 
Q 7.71875 47.46875 10.453125 49.421875 
Q 12.5 50.921875 16.03125 51.96875 
Q 19.578125 53.03125 23.640625 53.03125 
Q 29.734375 53.03125 34.34375 51.265625 
Q 38.96875 49.515625 41.15625 46.5 
Q 43.359375 43.5 44.1875 38.484375 
L 35.59375 37.3125 
Q 35.015625 41.3125 32.203125 43.546875 
Q 29.390625 45.796875 24.265625 45.796875 
Q 18.21875 45.796875 15.625 43.796875 
Q 13.03125 41.796875 13.03125 39.109375 
Q 13.03125 37.40625 14.109375 36.03125 
Q 15.1875 34.625 17.484375 33.6875 
Q 18.796875 33.203125 25.25 31.453125 
Q 34.578125 28.953125 38.25 27.359375 
Q 41.9375 25.78125 44.03125 22.75 
Q 46.140625 19.734375 46.140625 15.234375 
Q 46.140625 10.84375 43.578125 6.953125 
Q 41.015625 3.078125 36.171875 0.953125 
Q 31.34375 -1.171875 25.25 -1.171875 
Q 15.140625 -1.171875 9.84375 3.03125 
Q 4.546875 7.234375 3.078125 15.484375 
z
" id="ArialMT-115"/>
       <path d="M 42.09375 16.703125 
L 51.171875 15.578125 
Q 49.03125 7.625 43.21875 3.21875 
Q 37.40625 -1.171875 28.375 -1.171875 
Q 17 -1.171875 10.328125 5.828125 
Q 3.65625 12.84375 3.65625 25.484375 
Q 3.65625 38.578125 10.390625 45.796875 
Q 17.140625 53.03125 27.875 53.03125 
Q 38.28125 53.03125 44.875 45.953125 
Q 51.46875 38.875 51.46875 26.03125 
Q 51.46875 25.25 51.421875 23.6875 
L 12.75 23.6875 
Q 13.234375 15.140625 17.578125 10.59375 
Q 21.921875 6.0625 28.421875 6.0625 
Q 33.25 6.0625 36.671875 8.59375 
Q 40.09375 11.140625 42.09375 16.703125 
z
M 13.234375 30.90625 
L 42.1875 30.90625 
Q 41.609375 37.453125 38.875 40.71875 
Q 34.671875 45.796875 27.984375 45.796875 
Q 21.921875 45.796875 17.796875 41.75 
Q 13.671875 37.703125 13.234375 30.90625 
z
" id="ArialMT-101"/>
       <path id="ArialMT-32"/>
       <path d="M 6.59375 -19.875 
L 6.59375 51.859375 
L 14.59375 51.859375 
L 14.59375 45.125 
Q 17.4375 49.078125 21 51.046875 
Q 24.5625 53.03125 29.640625 53.03125 
Q 36.28125 53.03125 41.359375 49.609375 
Q 46.4375 46.1875 49.015625 39.953125 
Q 51.609375 33.734375 51.609375 26.3125 
Q 51.609375 18.359375 48.75 11.984375 
Q 45.90625 5.609375 40.453125 2.21875 
Q 35.015625 -1.171875 29 -1.171875 
Q 24.609375 -1.171875 21.109375 0.6875 
Q 17.625 2.546875 15.375 5.375 
L 15.375 -19.875 
z
M 14.546875 25.640625 
Q 14.546875 15.625 18.59375 10.84375 
Q 22.65625 6.0625 28.421875 6.0625 
Q 34.28125 6.0625 38.453125 11.015625 
Q 42.625 15.96875 42.625 26.375 
Q 42.625 36.28125 38.546875 41.203125 
Q 34.46875 46.140625 28.8125 46.140625 
Q 23.1875 46.140625 18.859375 40.890625 
Q 14.546875 35.640625 14.546875 25.640625 
z
" id="ArialMT-112"/>
       <path d="M 3.328125 25.921875 
Q 3.328125 40.328125 11.328125 47.265625 
Q 18.015625 53.03125 27.640625 53.03125 
Q 38.328125 53.03125 45.109375 46.015625 
Q 51.90625 39.015625 51.90625 26.65625 
Q 51.90625 16.65625 48.90625 10.90625 
Q 45.90625 5.171875 40.15625 2 
Q 34.421875 -1.171875 27.640625 -1.171875 
Q 16.75 -1.171875 10.03125 5.8125 
Q 3.328125 12.796875 3.328125 25.921875 
z
M 12.359375 25.921875 
Q 12.359375 15.96875 16.703125 11.015625 
Q 21.046875 6.0625 27.640625 6.0625 
Q 34.1875 6.0625 38.53125 11.03125 
Q 42.875 16.015625 42.875 26.21875 
Q 42.875 35.84375 38.5 40.796875 
Q 34.125 45.75 27.640625 45.75 
Q 21.046875 45.75 16.703125 40.8125 
Q 12.359375 35.890625 12.359375 25.921875 
z
" id="ArialMT-111"/>
       <path d="M 6.640625 61.46875 
L 6.640625 71.578125 
L 15.4375 71.578125 
L 15.4375 61.46875 
z
M 6.640625 0 
L 6.640625 51.859375 
L 15.4375 51.859375 
L 15.4375 0 
z
" id="ArialMT-105"/>
       <path d="M 25.78125 7.859375 
L 27.046875 0.09375 
Q 23.34375 -0.6875 20.40625 -0.6875 
Q 15.625 -0.6875 12.984375 0.828125 
Q 10.359375 2.34375 9.28125 4.8125 
Q 8.203125 7.28125 8.203125 15.1875 
L 8.203125 45.015625 
L 1.765625 45.015625 
L 1.765625 51.859375 
L 8.203125 51.859375 
L 8.203125 64.703125 
L 16.9375 69.96875 
L 16.9375 51.859375 
L 25.78125 51.859375 
L 25.78125 45.015625 
L 16.9375 45.015625 
L 16.9375 14.703125 
Q 16.9375 10.9375 17.40625 9.859375 
Q 17.875 8.796875 18.921875 8.15625 
Q 19.96875 7.515625 21.921875 7.515625 
Q 23.390625 7.515625 25.78125 7.859375 
z
" id="ArialMT-116"/>
       <path d="M 21 0 
L 1.265625 51.859375 
L 10.546875 51.859375 
L 21.6875 20.796875 
Q 23.484375 15.765625 25 10.359375 
Q 26.171875 14.453125 28.265625 20.21875 
L 39.796875 51.859375 
L 48.828125 51.859375 
L 29.203125 0 
z
" id="ArialMT-118"/>
       <path d="M 6.5 0 
L 6.5 51.859375 
L 14.40625 51.859375 
L 14.40625 44 
Q 17.4375 49.515625 20 51.265625 
Q 22.5625 53.03125 25.640625 53.03125 
Q 30.078125 53.03125 34.671875 50.203125 
L 31.640625 42.046875 
Q 28.421875 43.953125 25.203125 43.953125 
Q 22.3125 43.953125 20.015625 42.21875 
Q 17.71875 40.484375 16.75 37.40625 
Q 15.28125 32.71875 15.28125 27.15625 
L 15.28125 0 
z
" id="ArialMT-114"/>
      </defs>
      <use xlink:href="#ArialMT-102"/>
      <use x="27.783203" xlink:href="#ArialMT-97"/>
      <use x="83.398438" xlink:href="#ArialMT-108"/>
      <use x="105.615234" xlink:href="#ArialMT-115"/>
      <use x="155.615234" xlink:href="#ArialMT-101"/>
      <use x="211.230469" xlink:href="#ArialMT-32"/>
      <use x="239.013672" xlink:href="#ArialMT-112"/>
      <use x="294.628906" xlink:href="#ArialMT-111"/>
      <use x="350.244141" xlink:href="#ArialMT-115"/>
      <use x="400.244141" xlink:href="#ArialMT-105"/>
      <use x="422.460938" xlink:href="#ArialMT-116"/>
      <use x="450.244141" xlink:href="#ArialMT-105"/>
      <use x="472.460938" xlink:href="#ArialMT-118"/>
      <use x="522.460938" xlink:href="#ArialMT-101"/>
      <use x="578.076172" xlink:href="#ArialMT-32"/>
      <use x="605.859375" xlink:href="#ArialMT-114"/>
      <use x="639.160156" xlink:href="#ArialMT-97"/>
      <use x="694.775391" xlink:href="#ArialMT-116"/>
      <use x="722.558594" xlink:href="#ArialMT-101"/>
     </g>
    </g>
   </g>
   <g id="matplotlib.axis_2">
    <g id="ytick_1">
     <g id="line2d_7">
      <path clip-path="url(#p264e34f771)" d="M 63.096563 524.219335 
L 777.336563 524.219335 
" style="fill:none;stroke:#ffffff;stroke-linecap:round;stroke-width:1.5;"/>
     </g>
     <g id="text_8">
      <!-- 0.0 -->
      <g style="fill:#262626;" transform="translate(27.661563 530.124531)scale(0.165 -0.165)">
       <use xlink:href="#ArialMT-48"/>
       <use x="55.615234" xlink:href="#ArialMT-46"/>
       <use x="83.398438" xlink:href="#ArialMT-48"/>
      </g>
     </g>
    </g>
    <g id="ytick_2">
     <g id="line2d_8">
      <path clip-path="url(#p264e34f771)" d="M 63.096563 429.336426 
L 777.336563 429.336426 
" style="fill:none;stroke:#ffffff;stroke-linecap:round;stroke-width:1.5;"/>
     </g>
     <g id="text_9">
      <!-- 0.2 -->
      <g style="fill:#262626;" transform="translate(27.661563 435.241621)scale(0.165 -0.165)">
       <use xlink:href="#ArialMT-48"/>
       <use x="55.615234" xlink:href="#ArialMT-46"/>
       <use x="83.398438" xlink:href="#ArialMT-50"/>
      </g>
     </g>
    </g>
    <g id="ytick_3">
     <g id="line2d_9">
      <path clip-path="url(#p264e34f771)" d="M 63.096563 334.453517 
L 777.336563 334.453517 
" style="fill:none;stroke:#ffffff;stroke-linecap:round;stroke-width:1.5;"/>
     </g>
     <g id="text_10">
      <!-- 0.4 -->
      <g style="fill:#262626;" transform="translate(27.661563 340.358712)scale(0.165 -0.165)">
       <use xlink:href="#ArialMT-48"/>
       <use x="55.615234" xlink:href="#ArialMT-46"/>
       <use x="83.398438" xlink:href="#ArialMT-52"/>
      </g>
     </g>
    </g>
    <g id="ytick_4">
     <g id="line2d_10">
      <path clip-path="url(#p264e34f771)" d="M 63.096563 239.570608 
L 777.336563 239.570608 
" style="fill:none;stroke:#ffffff;stroke-linecap:round;stroke-width:1.5;"/>
     </g>
     <g id="text_11">
      <!-- 0.6 -->
      <g style="fill:#262626;" transform="translate(27.661563 245.475803)scale(0.165 -0.165)">
       <use xlink:href="#ArialMT-48"/>
       <use x="55.615234" xlink:href="#ArialMT-46"/>
       <use x="83.398438" xlink:href="#ArialMT-54"/>
      </g>
     </g>
    </g>
    <g id="ytick_5">
     <g id="line2d_11">
      <path clip-path="url(#p264e34f771)" d="M 63.096563 144.687699 
L 777.336563 144.687699 
" style="fill:none;stroke:#ffffff;stroke-linecap:round;stroke-width:1.5;"/>
     </g>
     <g id="text_12">
      <!-- 0.8 -->
      <g style="fill:#262626;" transform="translate(27.661563 150.592894)scale(0.165 -0.165)">
       <use xlink:href="#ArialMT-48"/>
       <use x="55.615234" xlink:href="#ArialMT-46"/>
       <use x="83.398438" xlink:href="#ArialMT-56"/>
      </g>
     </g>
    </g>
    <g id="ytick_6">
     <g id="line2d_12">
      <path clip-path="url(#p264e34f771)" d="M 63.096563 49.80479 
L 777.336563 49.80479 
" style="fill:none;stroke:#ffffff;stroke-linecap:round;stroke-width:1.5;"/>
     </g>
     <g id="text_13">
      <!-- 1.0 -->
      <g style="fill:#262626;" transform="translate(27.661563 55.709985)scale(0.165 -0.165)">
       <use xlink:href="#ArialMT-49"/>
       <use x="55.615234" xlink:href="#ArialMT-46"/>
       <use x="83.398438" xlink:href="#ArialMT-48"/>
      </g>
     </g>
    </g>
    <g id="text_14">
     <!-- true positive rate -->
     <g style="fill:#262626;" transform="translate(20.084062 353.540344)rotate(-90)scale(0.18 -0.18)">
      <defs>
       <path d="M 40.578125 0 
L 40.578125 7.625 
Q 34.515625 -1.171875 24.125 -1.171875 
Q 19.53125 -1.171875 15.546875 0.578125 
Q 11.578125 2.34375 9.640625 5 
Q 7.71875 7.671875 6.9375 11.53125 
Q 6.390625 14.109375 6.390625 19.734375 
L 6.390625 51.859375 
L 15.1875 51.859375 
L 15.1875 23.09375 
Q 15.1875 16.21875 15.71875 13.8125 
Q 16.546875 10.359375 19.234375 8.375 
Q 21.921875 6.390625 25.875 6.390625 
Q 29.828125 6.390625 33.296875 8.421875 
Q 36.765625 10.453125 38.203125 13.9375 
Q 39.65625 17.4375 39.65625 24.078125 
L 39.65625 51.859375 
L 48.4375 51.859375 
L 48.4375 0 
z
" id="ArialMT-117"/>
      </defs>
      <use xlink:href="#ArialMT-116"/>
      <use x="27.783203" xlink:href="#ArialMT-114"/>
      <use x="61.083984" xlink:href="#ArialMT-117"/>
      <use x="116.699219" xlink:href="#ArialMT-101"/>
      <use x="172.314453" xlink:href="#ArialMT-32"/>
      <use x="200.097656" xlink:href="#ArialMT-112"/>
      <use x="255.712891" xlink:href="#ArialMT-111"/>
      <use x="311.328125" xlink:href="#ArialMT-115"/>
      <use x="361.328125" xlink:href="#ArialMT-105"/>
      <use x="383.544922" xlink:href="#ArialMT-116"/>
      <use x="411.328125" xlink:href="#ArialMT-105"/>
      <use x="433.544922" xlink:href="#ArialMT-118"/>
      <use x="483.544922" xlink:href="#ArialMT-101"/>
      <use x="539.160156" xlink:href="#ArialMT-32"/>
      <use x="566.943359" xlink:href="#ArialMT-114"/>
      <use x="600.244141" xlink:href="#ArialMT-97"/>
      <use x="655.859375" xlink:href="#ArialMT-116"/>
      <use x="683.642578" xlink:href="#ArialMT-101"/>
     </g>
    </g>
   </g>
   <g id="line2d_13">
    <path clip-path="url(#p264e34f771)" d="M 95.562017 524.219335 
L 744.871108 49.80479 
" style="fill:none;stroke:#000000;stroke-dasharray:14.4,3.6,2.25,3.6;stroke-dashoffset:0;stroke-width:2.25;"/>
   </g>
   <g id="line2d_14">
    <path clip-path="url(#p264e34f771)" d="M 95.562017 524.219335 
L 95.692979 524.219335 
L 101.193379 518.571543 
L 102.372036 507.275959 
L 109.182054 501.628166 
L 109.443978 501.628166 
L 109.57494 495.980374 
L 116.253997 490.332582 
L 116.384959 479.036998 
L 120.837663 473.389205 
L 124.76652 462.093621 
L 134.326739 456.445829 
L 134.588663 456.445829 
L 136.422129 456.445829 
L 136.684053 456.445829 
L 136.815015 456.445829 
L 137.076939 456.445829 
L 137.86271 456.445829 
L 138.124634 456.445829 
L 142.839262 456.445829 
L 143.101186 456.445829 
L 144.541767 450.798037 
L 148.732548 445.150244 
L 148.994471 445.150244 
L 153.971024 439.502452 
L 175.972622 428.206868 
L 185.925727 416.911283 
L 200.200574 411.263491 
L 200.462497 411.263491 
L 203.081735 405.615699 
L 205.962897 394.320114 
L 215.916001 383.02453 
L 225.738144 371.728946 
L 247.346857 360.433361 
L 254.811685 349.137777 
L 261.35978 343.489985 
L 261.621704 343.489985 
L 284.016188 337.842192 
L 284.80196 326.546608 
L 301.434121 315.251024 
L 317.411472 309.603231 
L 317.673396 309.603231 
L 341.508462 303.955439 
L 349.628099 298.307647 
L 349.890023 298.307647 
L 374.379898 292.659855 
L 377.392022 281.36427 
L 380.142222 275.716478 
L 380.404145 275.716478 
L 399.917468 270.068686 
L 401.750935 264.420894 
L 402.012859 264.420894 
L 404.632097 264.420894 
L 404.89402 264.420894 
L 411.965963 264.420894 
L 412.227887 264.420894 
L 423.097724 258.773101 
L 443.396818 247.477517 
L 444.837399 241.829725 
L 445.099323 241.829725 
L 446.27798 236.181933 
L 459.767056 224.886348 
L 466.446113 213.590764 
L 467.100922 202.295179 
L 470.374969 190.999595 
L 475.744407 185.351803 
L 476.006331 185.351803 
L 479.41134 179.704011 
L 530.224557 168.408426 
L 536.379766 157.112842 
L 540.046699 145.817257 
L 577.108916 134.521673 
L 579.204307 123.226088 
L 604.348991 111.930504 
L 607.099191 106.282712 
L 607.361115 106.282712 
L 615.611715 100.63492 
L 633.160609 89.339335 
L 644.685256 78.043751 
L 662.627036 66.748166 
L 677.42573 61.100374 
L 677.687654 61.100374 
L 684.235749 55.452582 
L 726.536442 49.80479 
L 740.287442 49.80479 
L 744.871108 49.80479 
" style="fill:none;stroke:#f77189;stroke-linecap:round;stroke-width:2.25;"/>
   </g>
   <g id="line2d_15">
    <path clip-path="url(#p264e34f771)" d="M 95.562017 524.219335 
L 96.413012 412.360929 
L 96.554844 400.556776 
L 96.696677 388.752623 
L 96.838509 366.830623 
L 96.980342 326.35924 
L 97.122174 300.502524 
L 97.264007 292.070985 
L 97.547672 287.012063 
L 97.689504 277.456319 
L 97.973169 270.711089 
L 98.115002 269.586884 
L 98.256834 263.403756 
L 98.398667 256.096423 
L 98.540499 253.848013 
L 98.682332 248.78909 
L 98.824164 242.043859 
L 98.965997 232.488116 
L 99.107829 224.61868 
L 99.249662 222.37027 
L 99.391494 218.435552 
L 99.533326 215.62504 
L 99.675159 210.566117 
L 99.816991 204.382989 
L 99.958824 202.134579 
L 100.100656 200.448271 
L 100.242489 197.637758 
L 100.384321 194.265143 
L 100.809819 192.016733 
L 101.093484 190.330425 
L 101.235316 186.95781 
L 101.377149 184.147297 
L 101.660814 182.46099 
L 101.802646 175.153657 
L 101.944479 163.349503 
L 102.086311 154.917965 
L 102.228144 148.734837 
L 102.511809 144.800119 
L 102.653641 141.989607 
L 103.220971 138.054889 
L 103.362803 135.806479 
L 103.504636 131.309658 
L 103.930133 126.250735 
L 104.071966 124.564428 
L 104.213798 123.440223 
L 104.355631 122.316018 
L 105.064793 120.067608 
L 105.348458 117.819197 
L 105.490291 116.694992 
L 105.773956 115.008685 
L 105.915788 113.322377 
L 106.057621 108.825557 
L 106.199453 104.328736 
L 106.908615 101.518224 
L 107.050448 98.707711 
L 107.475945 97.583506 
L 107.75961 96.459301 
L 107.901443 94.772993 
L 108.185108 91.96248 
L 108.468773 89.71407 
L 108.752438 88.589865 
L 109.036103 87.46566 
L 110.02893 85.21725 
L 110.59626 82.96884 
L 111.021757 81.844635 
L 111.16359 80.72043 
L 112.014585 79.596224 
L 112.581915 78.472019 
L 112.86558 77.347814 
L 113.716574 76.223609 
L 118.964376 75.099404 
L 123.78668 73.975199 
L 127.474325 72.850994 
L 133.998619 71.726789 
L 138.253593 70.602584 
L 138.679091 69.478379 
L 140.94841 68.354174 
L 142.08307 67.229969 
L 146.62171 66.105763 
L 148.465532 64.981558 
L 150.309354 63.857353 
L 156.691816 62.733148 
L 157.259146 61.608943 
L 165.910927 60.484738 
L 175.130038 59.360533 
L 178.534018 58.236328 
L 187.185799 57.112123 
L 198.1069 55.987918 
L 260.796856 54.863713 
L 276.682093 53.739508 
L 282.355392 52.615302 
L 291.290839 52.0532 
L 291.574504 52.0532 
L 329.301943 51.491097 
L 343.910689 50.366892 
L 412.983106 49.80479 
L 413.266771 49.80479 
L 446.313739 49.80479 
L 446.597404 49.80479 
L 471.985417 49.80479 
L 472.269082 49.80479 
L 512.975004 49.80479 
L 513.258669 49.80479 
L 744.871108 49.80479 
" style="fill:none;stroke:#e68332;stroke-dasharray:9,3.375;stroke-dashoffset:0;stroke-width:2.25;"/>
   </g>
   <g id="line2d_16">
    <path clip-path="url(#p264e34f771)" d="M 95.562017 524.219335 
L 108.791837 480.08775 
L 110.88765 474.571301 
L 111.67358 463.538405 
L 112.197533 452.505509 
L 112.590498 441.472612 
L 113.638405 430.439716 
L 114.424335 419.406819 
L 115.079276 408.373923 
L 115.472241 397.341027 
L 116.38916 386.30813 
L 116.520148 375.275234 
L 119.270903 364.242337 
L 121.366716 353.209441 
L 124.11747 342.176545 
L 126.999213 331.143648 
L 131.321828 320.110752 
L 134.989501 303.561407 
L 136.954325 287.012063 
L 145.206589 275.979166 
L 162.628036 264.94627 
L 180.704424 253.913373 
L 222.620685 242.880477 
L 274.754036 231.84758 
L 291.782517 220.814684 
L 303.047512 209.781788 
L 327.542328 204.265339 
L 327.804304 204.265339 
L 355.049874 198.748891 
L 365.004987 187.715995 
L 379.413702 182.199547 
L 379.675678 182.199547 
L 391.98858 176.683098 
L 432.201994 165.650202 
L 439.668328 160.133754 
L 439.930304 160.133754 
L 470.450582 160.133754 
L 470.712559 160.133754 
L 481.453601 154.617306 
L 494.02848 149.100857 
L 494.290456 149.100857 
L 528.347419 143.584409 
L 531.753115 138.067961 
L 532.015092 138.067961 
L 539.219449 138.067961 
L 539.481426 138.067961 
L 560.701533 132.551513 
L 622.920984 121.518616 
L 625.016797 110.48572 
L 628.68447 99.452824 
L 652.786321 88.419927 
L 668.635907 77.387031 
L 683.96154 66.354134 
L 707.801414 55.321238 
L 744.871108 49.80479 
" style="fill:none;stroke:#bb9832;stroke-dasharray:2.25,2.25;stroke-dashoffset:0;stroke-width:2.25;"/>
   </g>
   <g id="line2d_17">
    <path clip-path="url(#p264e34f771)" d="M 95.562017 524.219335 
L 95.692322 524.219335 
L 105.465186 524.219335 
L 105.725796 524.219335 
L 121.622988 510.265966 
L 123.316951 496.312597 
L 123.577561 496.312597 
L 124.750304 482.359228 
L 129.701889 468.405859 
L 129.962499 468.405859 
L 136.868656 468.405859 
L 136.998961 440.499121 
L 151.984019 426.545752 
L 152.244629 412.592383 
L 153.156763 412.592383 
L 153.417373 412.592383 
L 197.981633 412.592383 
L 198.242243 412.592383 
L 238.506443 412.592383 
L 238.767052 412.592383 
L 262.87345 412.592383 
L 263.13406 412.592383 
L 277.467594 412.592383 
L 277.728204 412.592383 
L 320.337891 412.592383 
L 320.598501 412.592383 
L 344.313985 412.592383 
L 344.574594 412.592383 
L 349.004959 398.639014 
L 353.174715 384.685645 
L 353.435324 384.685645 
L 361.253616 384.685645 
L 361.514225 384.685645 
L 385.229709 384.685645 
L 385.750928 384.685645 
L 386.272148 384.685645 
L 386.532758 384.685645 
L 404.384523 384.685645 
L 404.645132 384.685645 
L 407.642144 384.685645 
L 407.902754 384.685645 
L 418.196837 384.685645 
L 418.457447 384.685645 
L 443.475979 384.685645 
L 443.736589 384.685645 
L 444.257808 370.732276 
L 451.163965 356.778907 
L 451.424575 356.778907 
L 468.494511 342.825538 
L 480.352253 314.9188 
L 482.437131 300.965431 
L 482.69774 300.965431 
L 489.864507 300.965431 
L 490.125117 300.965431 
L 491.55847 300.965431 
L 491.81908 300.965431 
L 509.279931 287.012063 
L 567.265591 259.105325 
L 596.062964 231.198587 
L 599.19028 217.245218 
L 599.45089 217.245218 
L 612.220766 217.245218 
L 612.481376 217.245218 
L 619.126923 203.291849 
L 640.23631 175.385111 
L 651.963747 161.431742 
L 652.224356 161.431742 
L 690.403679 147.478373 
L 716.073735 133.525004 
L 729.755745 133.525004 
L 730.407269 119.571635 
L 731.319403 91.664897 
L 741.092267 63.758159 
L 744.871108 49.80479 
" style="fill:none;stroke:#97a431;stroke-dasharray:6.75,2.8125,3.375,2.8125;stroke-dashoffset:0;stroke-width:2.25;"/>
   </g>
   <g id="line2d_18">
    <path clip-path="url(#p264e34f771)" d="M 95.562017 524.219335 
L 108.983417 468.405859 
L 120.710854 454.45249 
L 124.62 426.545752 
L 131.917072 398.639014 
L 133.48073 370.732276 
L 142.471765 342.825538 
L 149.638532 314.9188 
L 218.04858 287.012063 
L 291.019299 273.058694 
L 291.279909 273.058694 
L 300.401249 259.105325 
L 326.20161 245.151956 
L 326.46222 245.151956 
L 379.105381 245.151956 
L 379.365991 245.151956 
L 439.957748 245.151956 
L 440.218358 245.151956 
L 470.839999 245.151956 
L 471.100608 245.151956 
L 494.425177 245.151956 
L 494.685787 245.151956 
L 532.34389 245.151956 
L 532.6045 245.151956 
L 580.426381 231.198587 
L 584.335527 203.291849 
L 623.166374 175.385111 
L 629.030092 147.478373 
L 669.033683 119.571635 
L 725.976904 91.664897 
L 741.222572 63.758159 
L 744.871108 49.80479 
" style="fill:none;stroke:#50b131;stroke-dasharray:11.25,2.25,2.25,2.25;stroke-dashoffset:0;stroke-width:2.25;"/>
   </g>
   <g id="line2d_19">
    <path clip-path="url(#p264e34f771)" d="M 95.562017 524.219335 
L 95.693111 524.219335 
L 105.394075 519.172372 
L 111.686592 509.078445 
L 129.777578 498.984519 
L 131.088519 488.890592 
L 135.152436 478.796666 
L 146.557623 468.702739 
L 147.475282 458.608813 
L 149.310599 448.514886 
L 157.307339 438.42096 
L 158.880469 428.327033 
L 161.764539 418.233107 
L 181.690843 408.13918 
L 192.047277 398.045254 
L 212.497957 387.951327 
L 225.345179 377.857401 
L 238.323495 367.763474 
L 254.972446 357.669548 
L 256.283387 347.575621 
L 262.575904 337.481695 
L 266.770915 332.434732 
L 267.033103 332.434732 
L 289.188007 332.434732 
L 302.428511 292.059026 
L 306.492428 287.012063 
L 311.080722 276.918136 
L 312.916039 266.82421 
L 316.979957 261.777246 
L 317.242145 261.777246 
L 329.171708 256.730283 
L 335.988601 246.636357 
L 355.390529 241.589393 
L 355.652717 241.589393 
L 372.03948 241.589393 
L 372.301668 241.589393 
L 391.310313 236.54243 
L 394.980948 231.495467 
L 395.243136 231.495467 
L 406.648323 226.448504 
L 421.986333 216.354577 
L 429.589791 206.260651 
L 450.695941 196.166724 
L 453.448918 186.072798 
L 465.378481 181.025834 
L 465.640669 181.025834 
L 496.316689 175.978871 
L 506.673123 165.884945 
L 525.812862 155.791018 
L 526.861615 145.697092 
L 527.910368 140.650128 
L 528.172556 140.650128 
L 568.418446 135.603165 
L 598.832277 125.509239 
L 599.749936 115.415312 
L 603.027289 105.321386 
L 608.795429 95.227459 
L 643.273178 85.133533 
L 647.992566 75.039606 
L 683.650162 64.94568 
L 698.59489 54.851753 
L 704.231936 49.80479 
L 704.494124 49.80479 
L 744.871108 49.80479 
" style="fill:none;stroke:#34af84;stroke-dasharray:6.75,2.8125,2.8125,2.8125,2.8125,2.8125;stroke-dashoffset:0;stroke-width:2.25;"/>
   </g>
   <g id="line2d_20">
    <path clip-path="url(#p264e34f771)" d="M 95.562017 524.219335 
L 95.693058 524.219335 
L 95.824099 518.948062 
L 96.479305 508.405517 
L 105.390106 497.862972 
L 110.893836 492.591699 
L 111.155919 492.591699 
L 123.080667 492.591699 
L 123.342749 492.591699 
L 138.412486 487.320426 
L 150.337234 476.777881 
L 168.814042 466.235335 
L 176.938595 455.69279 
L 190.69792 445.150244 
L 200.001845 434.607699 
L 200.788092 424.065153 
L 216.250952 408.251335 
L 225.423835 392.437517 
L 231.45173 381.894972 
L 231.713812 371.352426 
L 257.266844 360.809881 
L 260.018709 355.538608 
L 260.280791 355.538608 
L 286.095906 350.267335 
L 294.613583 344.996062 
L 294.875665 344.996062 
L 296.44816 339.72479 
L 296.579201 329.182244 
L 297.496489 318.639699 
L 302.869178 308.097153 
L 310.86269 297.554608 
L 315.449132 287.012063 
L 316.497462 276.469517 
L 320.559738 265.926972 
L 321.345985 255.384426 
L 331.305116 250.113153 
L 331.567198 250.113153 
L 343.622988 244.841881 
L 365.637907 234.299335 
L 414.516271 223.75679 
L 416.088765 213.214244 
L 418.578548 202.671699 
L 427.882472 192.129153 
L 439.80722 186.857881 
L 440.069303 186.857881 
L 463.656717 186.857881 
L 463.918799 186.857881 
L 491.961613 181.586608 
L 501.52762 176.315335 
L 501.789703 176.315335 
L 507.293433 171.044062 
L 528.522105 160.501517 
L 529.832517 155.230244 
L 530.094599 155.230244 
L 537.432906 149.958972 
L 551.847437 139.416426 
L 589.71834 123.602608 
L 608.719313 107.78879 
L 622.216555 102.517517 
L 635.320674 49.80479 
L 705.951875 49.80479 
L 706.213957 49.80479 
L 744.871108 49.80479 
" style="fill:none;stroke:#36ada4;stroke-dasharray:9,2.25,9,2.25,2.25,2.25;stroke-dashoffset:0;stroke-width:2.25;"/>
   </g>
   <g id="line2d_21">
    <path clip-path="url(#p264e34f771)" d="M 95.562017 524.219335 
L 95.692243 524.219335 
L 97.515414 524.219335 
L 111.189191 524.219335 
L 120.695722 507.275959 
L 178.516267 473.389205 
L 198.96182 456.445829 
L 199.222273 456.445829 
L 217.714429 439.502452 
L 226.569828 405.615699 
L 285.171732 371.728946 
L 323.458308 354.785569 
L 323.718761 354.785569 
L 345.206126 354.785569 
L 345.466579 354.785569 
L 376.590701 354.785569 
L 376.851154 354.785569 
L 445.740947 337.842192 
L 468.00967 320.898816 
L 468.270123 320.898816 
L 491.710885 320.898816 
L 491.971338 320.898816 
L 529.867235 320.898816 
L 530.127688 320.898816 
L 531.820632 303.955439 
L 558.256602 270.068686 
L 614.514429 236.181933 
L 624.281413 202.295179 
L 626.365036 168.408426 
L 656.7078 151.46505 
L 656.968253 151.46505 
L 677.674259 134.521673 
L 709.579739 100.63492 
L 732.499595 66.748166 
L 744.871108 49.80479 
" style="fill:none;stroke:#38aabf;stroke-dasharray:6.75,2.8125,6.75,2.8125,2.8125,2.8125;stroke-dashoffset:0;stroke-width:2.25;"/>
   </g>
   <g id="line2d_22">
    <path clip-path="url(#p264e34f771)" d="M 95.562017 524.219335 
L 108.262759 431.650643 
L 108.786501 425.8651 
L 110.750534 414.294014 
L 111.012405 402.722927 
L 112.190824 391.151841 
L 112.452695 379.580754 
L 113.369244 368.009668 
L 113.631115 356.438581 
L 114.809534 344.867495 
L 115.333276 333.296408 
L 116.249824 321.725322 
L 123.975018 310.154235 
L 126.069986 298.583149 
L 127.248405 287.012063 
L 129.081502 275.440976 
L 129.605244 263.86989 
L 133.271438 252.298803 
L 136.41389 240.727717 
L 139.425406 229.15663 
L 139.818212 217.585544 
L 144.400955 206.014457 
L 145.186567 194.443371 
L 151.340535 182.872284 
L 154.090181 171.301198 
L 193.763634 159.730111 
L 222.176635 148.159025 
L 233.960829 136.587938 
L 250.720572 125.016852 
L 264.99254 113.445765 
L 292.096186 107.660222 
L 292.358057 107.660222 
L 326.53222 107.660222 
L 326.794091 107.660222 
L 341.982608 101.874679 
L 352.457447 90.303592 
L 396.320836 78.732506 
L 400.641707 72.946963 
L 400.903578 72.946963 
L 469.513774 72.946963 
L 469.775645 72.946963 
L 493.213098 72.946963 
L 493.474969 72.946963 
L 531.053454 72.946963 
L 531.315325 72.946963 
L 668.404782 67.161419 
L 677.17746 55.590333 
L 744.871108 49.80479 
" style="fill:none;stroke:#3ba3ec;stroke-dasharray:9,2.25,2.25,2.25,2.25,2.25;stroke-dashoffset:0;stroke-width:2.25;"/>
   </g>
   <g id="line2d_23">
    <path clip-path="url(#p264e34f771)" d="M 95.562017 524.219335 
L 107.947377 451.739335 
L 109.00145 441.855699 
L 109.133209 428.677517 
L 109.528487 422.088426 
L 116.511722 415.499335 
L 116.643481 408.910244 
L 117.170518 402.321153 
L 118.751627 395.732062 
L 119.673941 389.142972 
L 120.200978 382.553881 
L 121.913847 369.375699 
L 122.177365 356.197517 
L 129.819396 349.608426 
L 132.981616 343.019335 
L 133.376893 336.430244 
L 135.221521 329.841153 
L 135.616799 323.252062 
L 136.143835 313.368426 
L 137.329668 300.190244 
L 138.120222 287.012063 
L 138.5155 277.128426 
L 139.306055 270.539335 
L 139.964851 263.950244 
L 143.917625 257.361153 
L 144.444662 250.772063 
L 144.70818 244.182972 
L 146.025771 237.593881 
L 146.816326 231.00479 
L 148.265677 221.121153 
L 148.397436 211.237517 
L 178.043245 204.648426 
L 200.178782 198.059335 
L 200.4423 191.470244 
L 204.658593 184.881153 
L 212.037106 178.292062 
L 234.436161 171.702972 
L 241.946433 165.113881 
L 248.402631 158.52479 
L 255.385866 151.935699 
L 257.098735 145.346608 
L 261.446787 138.757517 
L 269.879372 132.168426 
L 281.737696 125.579335 
L 287.27158 118.990244 
L 324.55942 115.695699 
L 324.822938 115.695699 
L 326.404048 112.401153 
L 332.20145 105.812063 
L 360.529668 102.517517 
L 360.793186 102.517517 
L 376.736043 102.517517 
L 376.999561 102.517517 
L 435.632383 99.222972 
L 440.639231 92.633881 
L 468.308652 89.339335 
L 468.572171 89.339335 
L 472.788463 89.339335 
L 473.051982 89.339335 
L 492.157058 89.339335 
L 492.420577 89.339335 
L 511.262135 86.04479 
L 530.103694 82.750244 
L 530.367212 82.750244 
L 531.684803 79.455699 
L 641.044898 72.866608 
L 699.018924 66.277517 
L 716.411132 59.688426 
L 731.826952 53.099335 
L 744.871108 49.80479 
" style="fill:none;stroke:#a48cf4;stroke-dasharray:6.75,2.8125,2.8125,2.8125,2.8125,2.8125,2.8125,2.8125;stroke-dashoffset:0;stroke-width:2.25;"/>
   </g>
   <g id="line2d_24">
    <path clip-path="url(#p264e34f771)" d="M 95.562017 524.219335 
L 95.692035 524.219335 
L 98.682445 524.219335 
L 98.942481 524.219335 
L 124.29596 484.68479 
L 131.316923 405.615699 
L 133.267191 326.546608 
L 179.423524 247.477517 
L 189.824951 168.408426 
L 291.628919 128.873881 
L 291.888955 128.873881 
L 313.341898 128.873881 
L 313.601934 128.873881 
L 328.163932 128.873881 
L 328.423968 128.873881 
L 333.624681 128.873881 
L 347.276554 128.873881 
L 358.328071 128.873881 
L 358.588107 128.873881 
L 452.070933 128.873881 
L 452.330969 128.873881 
L 476.124234 128.873881 
L 476.384269 128.873881 
L 514.609514 128.873881 
L 514.86955 128.873881 
L 561.675972 89.339335 
L 641.636943 49.80479 
L 641.896979 49.80479 
L 680.642295 49.80479 
L 680.902331 49.80479 
L 744.871108 49.80479 
" style="fill:none;stroke:#e866f4;stroke-dasharray:9,2.25,9,2.25,9,2.25,2.25,2.25;stroke-dashoffset:0;stroke-width:2.25;"/>
   </g>
   <g id="line2d_25">
    <path clip-path="url(#p264e34f771)" d="M 95.562017 524.219335 
L 95.6929 524.219335 
L 100.142912 524.219335 
L 100.404677 524.219335 
L 121.34591 518.137097 
L 137.444482 505.972622 
L 141.501846 493.808146 
L 148.045981 481.643671 
L 149.093043 469.479195 
L 158.254832 457.31472 
L 159.563659 445.150244 
L 192.676983 432.985769 
L 213.094685 420.821293 
L 226.44472 408.656818 
L 239.00946 396.492342 
L 256.285977 384.327867 
L 257.725686 372.163391 
L 263.746291 359.998916 
L 281.415456 353.916678 
L 294.765491 317.423251 
L 309.555237 311.341014 
L 313.612601 299.176538 
L 315.444959 287.012063 
L 318.978792 280.929825 
L 319.240557 280.929825 
L 331.412648 274.847587 
L 338.087666 262.683111 
L 383.242199 250.518636 
L 408.240795 238.35416 
L 409.418739 226.189685 
L 430.883503 214.025209 
L 435.464397 207.942972 
L 435.726163 207.942972 
L 454.573272 201.860734 
L 466.876246 195.778496 
L 467.138012 195.778496 
L 484.152763 189.696258 
L 490.696898 183.614021 
L 490.958664 183.614021 
L 497.241033 177.531783 
L 507.057236 165.367307 
L 526.296993 153.202832 
L 528.391117 147.120594 
L 528.652882 147.120594 
L 569.357403 141.038356 
L 599.329542 128.873881 
L 600.376604 116.709405 
L 603.386906 104.54493 
L 609.276627 92.380454 
L 644.222309 80.215979 
L 656.263518 74.133741 
L 656.525283 74.133741 
L 656.656166 68.051503 
L 698.931279 55.887028 
L 744.871108 49.80479 
" style="fill:none;stroke:#f668c2;stroke-dasharray:6.75,2.8125,6.75,2.8125,2.8125,2.8125,2.8125,2.8125;stroke-dashoffset:0;stroke-width:2.25;"/>
   </g>
   <g id="line2d_26"/>
   <g id="line2d_27"/>
   <g id="line2d_28"/>
   <g id="line2d_29"/>
   <g id="line2d_30"/>
   <g id="line2d_31"/>
   <g id="line2d_32"/>
   <g id="line2d_33"/>
   <g id="line2d_34"/>
   <g id="line2d_35"/>
   <g id="line2d_36"/>
   <g id="line2d_37"/>
   <g id="patch_3">
    <path d="M 63.096563 547.940062 
L 63.096563 26.084063 
" style="fill:none;stroke:#ffffff;stroke-linecap:square;stroke-linejoin:miter;stroke-width:1.875;"/>
   </g>
   <g id="patch_4">
    <path d="M 777.336563 547.940062 
L 777.336563 26.084063 
" style="fill:none;stroke:#ffffff;stroke-linecap:square;stroke-linejoin:miter;stroke-width:1.875;"/>
   </g>
   <g id="patch_5">
    <path d="M 63.096563 547.940062 
L 777.336563 547.940062 
" style="fill:none;stroke:#ffffff;stroke-linecap:square;stroke-linejoin:miter;stroke-width:1.875;"/>
   </g>
   <g id="patch_6">
    <path d="M 63.096563 26.084062 
L 777.336563 26.084062 
" style="fill:none;stroke:#ffffff;stroke-linecap:square;stroke-linejoin:miter;stroke-width:1.875;"/>
   </g>
   <g id="text_15">
    <!-- Braided Net -->
    <g style="fill:#262626;" transform="translate(372.692344 20.084062)scale(0.18 -0.18)">
     <defs>
      <path d="M 7.328125 0 
L 7.328125 71.578125 
L 34.1875 71.578125 
Q 42.390625 71.578125 47.34375 69.40625 
Q 52.296875 67.234375 55.09375 62.71875 
Q 57.90625 58.203125 57.90625 53.265625 
Q 57.90625 48.6875 55.421875 44.625 
Q 52.9375 40.578125 47.90625 38.09375 
Q 54.390625 36.1875 57.875 31.59375 
Q 61.375 27 61.375 20.75 
Q 61.375 15.71875 59.25 11.390625 
Q 57.125 7.078125 54 4.734375 
Q 50.875 2.390625 46.15625 1.1875 
Q 41.453125 0 34.625 0 
z
M 16.796875 41.5 
L 32.28125 41.5 
Q 38.578125 41.5 41.3125 42.328125 
Q 44.921875 43.40625 46.75 45.890625 
Q 48.578125 48.390625 48.578125 52.15625 
Q 48.578125 55.71875 46.875 58.421875 
Q 45.171875 61.140625 41.984375 62.140625 
Q 38.8125 63.140625 31.109375 63.140625 
L 16.796875 63.140625 
z
M 16.796875 8.453125 
L 34.625 8.453125 
Q 39.203125 8.453125 41.0625 8.796875 
Q 44.34375 9.375 46.53125 10.734375 
Q 48.734375 12.109375 50.140625 14.71875 
Q 51.5625 17.328125 51.5625 20.75 
Q 51.5625 24.75 49.515625 27.703125 
Q 47.46875 30.671875 43.828125 31.859375 
Q 40.1875 33.0625 33.34375 33.0625 
L 16.796875 33.0625 
z
" id="ArialMT-66"/>
      <path d="M 40.234375 0 
L 40.234375 6.546875 
Q 35.296875 -1.171875 25.734375 -1.171875 
Q 19.53125 -1.171875 14.328125 2.25 
Q 9.125 5.671875 6.265625 11.796875 
Q 3.421875 17.921875 3.421875 25.875 
Q 3.421875 33.640625 6 39.96875 
Q 8.59375 46.296875 13.765625 49.65625 
Q 18.953125 53.03125 25.34375 53.03125 
Q 30.03125 53.03125 33.6875 51.046875 
Q 37.359375 49.078125 39.65625 45.90625 
L 39.65625 71.578125 
L 48.390625 71.578125 
L 48.390625 0 
z
M 12.453125 25.875 
Q 12.453125 15.921875 16.640625 10.984375 
Q 20.84375 6.0625 26.5625 6.0625 
Q 32.328125 6.0625 36.34375 10.765625 
Q 40.375 15.484375 40.375 25.140625 
Q 40.375 35.796875 36.265625 40.765625 
Q 32.171875 45.75 26.171875 45.75 
Q 20.3125 45.75 16.375 40.96875 
Q 12.453125 36.1875 12.453125 25.875 
z
" id="ArialMT-100"/>
      <path d="M 7.625 0 
L 7.625 71.578125 
L 17.328125 71.578125 
L 54.9375 15.375 
L 54.9375 71.578125 
L 64.015625 71.578125 
L 64.015625 0 
L 54.296875 0 
L 16.703125 56.25 
L 16.703125 0 
z
" id="ArialMT-78"/>
     </defs>
     <use xlink:href="#ArialMT-66"/>
     <use x="66.699219" xlink:href="#ArialMT-114"/>
     <use x="100" xlink:href="#ArialMT-97"/>
     <use x="155.615234" xlink:href="#ArialMT-105"/>
     <use x="177.832031" xlink:href="#ArialMT-100"/>
     <use x="233.447266" xlink:href="#ArialMT-101"/>
     <use x="289.0625" xlink:href="#ArialMT-100"/>
     <use x="344.677734" xlink:href="#ArialMT-32"/>
     <use x="372.460938" xlink:href="#ArialMT-78"/>
     <use x="444.677734" xlink:href="#ArialMT-101"/>
     <use x="500.292969" xlink:href="#ArialMT-116"/>
    </g>
   </g>
   <g id="legend_1">
    <g id="patch_7">
     <path d="M 477.717188 539.690062 
L 765.786563 539.690062 
Q 769.086563 539.690062 769.086563 536.390062 
L 769.086563 230.851078 
Q 769.086563 227.551078 765.786563 227.551078 
L 477.717188 227.551078 
Q 474.417188 227.551078 474.417188 230.851078 
L 474.417188 536.390062 
Q 474.417188 539.690062 477.717188 539.690062 
z
" style="fill:#eaeaf2;opacity:0.8;stroke:#cccccc;stroke-linejoin:miter;stroke-width:1.5;"/>
    </g>
    <g id="text_16">
     <!-- Model -->
     <g style="fill:#262626;" transform="translate(597.240938 247.035141)scale(0.18 -0.18)">
      <defs>
       <path d="M 7.421875 0 
L 7.421875 71.578125 
L 21.6875 71.578125 
L 38.625 20.90625 
Q 40.96875 13.8125 42.046875 10.296875 
Q 43.265625 14.203125 45.84375 21.78125 
L 62.984375 71.578125 
L 75.734375 71.578125 
L 75.734375 0 
L 66.609375 0 
L 66.609375 59.90625 
L 45.796875 0 
L 37.25 0 
L 16.546875 60.9375 
L 16.546875 0 
z
" id="ArialMT-77"/>
      </defs>
      <use xlink:href="#ArialMT-77"/>
      <use x="83.300781" xlink:href="#ArialMT-111"/>
      <use x="138.916016" xlink:href="#ArialMT-100"/>
      <use x="194.53125" xlink:href="#ArialMT-101"/>
      <use x="250.146484" xlink:href="#ArialMT-108"/>
     </g>
    </g>
    <g id="line2d_38">
     <path d="M 481.017188 264.898031 
L 514.017188 264.898031 
" style="fill:none;stroke:#f77189;stroke-linecap:round;stroke-width:2.25;"/>
    </g>
    <g id="line2d_39"/>
    <g id="text_17">
     <!-- Artifacts, AUC = 0.586 -->
     <g style="fill:#262626;" transform="translate(527.217188 270.673031)scale(0.165 -0.165)">
      <defs>
       <path d="M -0.140625 0 
L 27.34375 71.578125 
L 37.546875 71.578125 
L 66.84375 0 
L 56.0625 0 
L 47.703125 21.6875 
L 17.78125 21.6875 
L 9.90625 0 
z
M 20.515625 29.390625 
L 44.78125 29.390625 
L 37.3125 49.21875 
Q 33.890625 58.25 32.234375 64.0625 
Q 30.859375 57.171875 28.375 50.390625 
z
" id="ArialMT-65"/>
       <path d="M 40.4375 19 
L 49.078125 17.875 
Q 47.65625 8.9375 41.8125 3.875 
Q 35.984375 -1.171875 27.484375 -1.171875 
Q 16.84375 -1.171875 10.375 5.78125 
Q 3.90625 12.75 3.90625 25.734375 
Q 3.90625 34.125 6.6875 40.421875 
Q 9.46875 46.734375 15.15625 49.875 
Q 20.84375 53.03125 27.546875 53.03125 
Q 35.984375 53.03125 41.359375 48.75 
Q 46.734375 44.484375 48.25 36.625 
L 39.703125 35.296875 
Q 38.484375 40.53125 35.375 43.15625 
Q 32.28125 45.796875 27.875 45.796875 
Q 21.234375 45.796875 17.078125 41.03125 
Q 12.9375 36.28125 12.9375 25.984375 
Q 12.9375 15.53125 16.9375 10.796875 
Q 20.953125 6.0625 27.390625 6.0625 
Q 32.5625 6.0625 36.03125 9.234375 
Q 39.5 12.40625 40.4375 19 
z
" id="ArialMT-99"/>
       <path d="M 8.890625 0 
L 8.890625 10.015625 
L 18.890625 10.015625 
L 18.890625 0 
Q 18.890625 -5.515625 16.9375 -8.90625 
Q 14.984375 -12.3125 10.75 -14.15625 
L 8.296875 -10.40625 
Q 11.078125 -9.1875 12.390625 -6.8125 
Q 13.71875 -4.4375 13.875 0 
z
" id="ArialMT-44"/>
       <path d="M 54.6875 71.578125 
L 64.15625 71.578125 
L 64.15625 30.21875 
Q 64.15625 19.4375 61.71875 13.078125 
Q 59.28125 6.734375 52.90625 2.75 
Q 46.53125 -1.21875 36.1875 -1.21875 
Q 26.125 -1.21875 19.71875 2.25 
Q 13.328125 5.71875 10.59375 12.28125 
Q 7.859375 18.84375 7.859375 30.21875 
L 7.859375 71.578125 
L 17.328125 71.578125 
L 17.328125 30.28125 
Q 17.328125 20.953125 19.0625 16.53125 
Q 20.796875 12.109375 25.015625 9.71875 
Q 29.25 7.328125 35.359375 7.328125 
Q 45.796875 7.328125 50.234375 12.0625 
Q 54.6875 16.796875 54.6875 30.28125 
z
" id="ArialMT-85"/>
       <path d="M 58.796875 25.09375 
L 68.265625 22.703125 
Q 65.28125 11.03125 57.546875 4.90625 
Q 49.8125 -1.21875 38.625 -1.21875 
Q 27.046875 -1.21875 19.796875 3.484375 
Q 12.546875 8.203125 8.765625 17.140625 
Q 4.984375 26.078125 4.984375 36.328125 
Q 4.984375 47.515625 9.25 55.828125 
Q 13.53125 64.15625 21.40625 68.46875 
Q 29.296875 72.796875 38.765625 72.796875 
Q 49.515625 72.796875 56.828125 67.328125 
Q 64.15625 61.859375 67.046875 51.953125 
L 57.71875 49.75 
Q 55.21875 57.5625 50.484375 61.125 
Q 45.75 64.703125 38.578125 64.703125 
Q 30.328125 64.703125 24.78125 60.734375 
Q 19.234375 56.78125 16.984375 50.109375 
Q 14.75 43.453125 14.75 36.375 
Q 14.75 27.25 17.40625 20.4375 
Q 20.0625 13.625 25.671875 10.25 
Q 31.296875 6.890625 37.84375 6.890625 
Q 45.796875 6.890625 51.3125 11.46875 
Q 56.84375 16.0625 58.796875 25.09375 
z
" id="ArialMT-67"/>
       <path d="M 52.828125 42.09375 
L 5.5625 42.09375 
L 5.5625 50.296875 
L 52.828125 50.296875 
z
M 52.828125 20.359375 
L 5.5625 20.359375 
L 5.5625 28.5625 
L 52.828125 28.5625 
z
" id="ArialMT-61"/>
       <path d="M 4.15625 18.75 
L 13.375 19.53125 
Q 14.40625 12.796875 18.140625 9.390625 
Q 21.875 6 27.15625 6 
Q 33.5 6 37.890625 10.78125 
Q 42.28125 15.578125 42.28125 23.484375 
Q 42.28125 31 38.0625 35.34375 
Q 33.84375 39.703125 27 39.703125 
Q 22.75 39.703125 19.328125 37.765625 
Q 15.921875 35.84375 13.96875 32.765625 
L 5.71875 33.84375 
L 12.640625 70.609375 
L 48.25 70.609375 
L 48.25 62.203125 
L 19.671875 62.203125 
L 15.828125 42.96875 
Q 22.265625 47.46875 29.34375 47.46875 
Q 38.71875 47.46875 45.15625 40.96875 
Q 51.609375 34.46875 51.609375 24.265625 
Q 51.609375 14.546875 45.953125 7.46875 
Q 39.0625 -1.21875 27.15625 -1.21875 
Q 17.390625 -1.21875 11.203125 4.25 
Q 5.03125 9.71875 4.15625 18.75 
z
" id="ArialMT-53"/>
      </defs>
      <use xlink:href="#ArialMT-65"/>
      <use x="66.699219" xlink:href="#ArialMT-114"/>
      <use x="100" xlink:href="#ArialMT-116"/>
      <use x="127.783203" xlink:href="#ArialMT-105"/>
      <use x="150" xlink:href="#ArialMT-102"/>
      <use x="177.783203" xlink:href="#ArialMT-97"/>
      <use x="233.398438" xlink:href="#ArialMT-99"/>
      <use x="283.398438" xlink:href="#ArialMT-116"/>
      <use x="311.181641" xlink:href="#ArialMT-115"/>
      <use x="361.181641" xlink:href="#ArialMT-44"/>
      <use x="388.964844" xlink:href="#ArialMT-32"/>
      <use x="411.248047" xlink:href="#ArialMT-65"/>
      <use x="477.947266" xlink:href="#ArialMT-85"/>
      <use x="550.164062" xlink:href="#ArialMT-67"/>
      <use x="622.380859" xlink:href="#ArialMT-32"/>
      <use x="650.164062" xlink:href="#ArialMT-61"/>
      <use x="708.5625" xlink:href="#ArialMT-32"/>
      <use x="736.345703" xlink:href="#ArialMT-48"/>
      <use x="791.960938" xlink:href="#ArialMT-46"/>
      <use x="819.744141" xlink:href="#ArialMT-53"/>
      <use x="875.359375" xlink:href="#ArialMT-56"/>
      <use x="930.974609" xlink:href="#ArialMT-54"/>
     </g>
    </g>
    <g id="line2d_40">
     <path d="M 481.017188 288.438891 
L 514.017188 288.438891 
" style="fill:none;stroke:#e68332;stroke-dasharray:9,3.375;stroke-dashoffset:0;stroke-width:2.25;"/>
    </g>
    <g id="line2d_41"/>
    <g id="text_18">
     <!-- badsequence, AUC = 0.988 -->
     <g style="fill:#262626;" transform="translate(527.217188 294.213891)scale(0.165 -0.165)">
      <defs>
       <path d="M 14.703125 0 
L 6.546875 0 
L 6.546875 71.578125 
L 15.328125 71.578125 
L 15.328125 46.046875 
Q 20.90625 53.03125 29.546875 53.03125 
Q 34.328125 53.03125 38.59375 51.09375 
Q 42.875 49.171875 45.625 45.671875 
Q 48.390625 42.1875 49.953125 37.25 
Q 51.515625 32.328125 51.515625 26.703125 
Q 51.515625 13.375 44.921875 6.09375 
Q 38.328125 -1.171875 29.109375 -1.171875 
Q 19.921875 -1.171875 14.703125 6.5 
z
M 14.59375 26.3125 
Q 14.59375 17 17.140625 12.84375 
Q 21.296875 6.0625 28.375 6.0625 
Q 34.125 6.0625 38.328125 11.0625 
Q 42.53125 16.0625 42.53125 25.984375 
Q 42.53125 36.140625 38.5 40.96875 
Q 34.46875 45.796875 28.765625 45.796875 
Q 23 45.796875 18.796875 40.796875 
Q 14.59375 35.796875 14.59375 26.3125 
z
" id="ArialMT-98"/>
       <path d="M 39.65625 -19.875 
L 39.65625 5.515625 
Q 37.59375 2.640625 33.90625 0.734375 
Q 30.21875 -1.171875 26.078125 -1.171875 
Q 16.84375 -1.171875 10.171875 6.203125 
Q 3.515625 13.578125 3.515625 26.421875 
Q 3.515625 34.234375 6.21875 40.421875 
Q 8.9375 46.625 14.078125 49.828125 
Q 19.234375 53.03125 25.390625 53.03125 
Q 35.015625 53.03125 40.53125 44.921875 
L 40.53125 51.859375 
L 48.4375 51.859375 
L 48.4375 -19.875 
z
M 12.546875 26.078125 
Q 12.546875 16.0625 16.75 11.0625 
Q 20.953125 6.0625 26.8125 6.0625 
Q 32.421875 6.0625 36.46875 10.8125 
Q 40.53125 15.578125 40.53125 25.296875 
Q 40.53125 35.640625 36.25 40.859375 
Q 31.984375 46.09375 26.21875 46.09375 
Q 20.515625 46.09375 16.53125 41.234375 
Q 12.546875 36.375 12.546875 26.078125 
z
" id="ArialMT-113"/>
       <path d="M 6.59375 0 
L 6.59375 51.859375 
L 14.5 51.859375 
L 14.5 44.484375 
Q 20.21875 53.03125 31 53.03125 
Q 35.6875 53.03125 39.625 51.34375 
Q 43.5625 49.65625 45.515625 46.921875 
Q 47.46875 44.1875 48.25 40.4375 
Q 48.734375 37.984375 48.734375 31.890625 
L 48.734375 0 
L 39.9375 0 
L 39.9375 31.546875 
Q 39.9375 36.921875 38.90625 39.578125 
Q 37.890625 42.234375 35.28125 43.8125 
Q 32.671875 45.40625 29.15625 45.40625 
Q 23.53125 45.40625 19.453125 41.84375 
Q 15.375 38.28125 15.375 28.328125 
L 15.375 0 
z
" id="ArialMT-110"/>
       <path d="M 5.46875 16.546875 
L 13.921875 17.328125 
Q 14.984375 11.375 18.015625 8.6875 
Q 21.046875 6 25.78125 6 
Q 29.828125 6 32.875 7.859375 
Q 35.9375 9.71875 37.890625 12.8125 
Q 39.84375 15.921875 41.15625 21.1875 
Q 42.484375 26.46875 42.484375 31.9375 
Q 42.484375 32.515625 42.4375 33.6875 
Q 39.796875 29.5 35.234375 26.875 
Q 30.671875 24.265625 25.34375 24.265625 
Q 16.453125 24.265625 10.296875 30.703125 
Q 4.15625 37.15625 4.15625 47.703125 
Q 4.15625 58.59375 10.578125 65.234375 
Q 17 71.875 26.65625 71.875 
Q 33.640625 71.875 39.421875 68.109375 
Q 45.21875 64.359375 48.21875 57.390625 
Q 51.21875 50.4375 51.21875 37.25 
Q 51.21875 23.53125 48.234375 15.40625 
Q 45.265625 7.28125 39.375 3.03125 
Q 33.5 -1.21875 25.59375 -1.21875 
Q 17.1875 -1.21875 11.859375 3.4375 
Q 6.546875 8.109375 5.46875 16.546875 
z
M 41.453125 48.140625 
Q 41.453125 55.71875 37.421875 60.15625 
Q 33.40625 64.59375 27.734375 64.59375 
Q 21.875 64.59375 17.53125 59.8125 
Q 13.1875 55.03125 13.1875 47.40625 
Q 13.1875 40.578125 17.3125 36.296875 
Q 21.4375 32.03125 27.484375 32.03125 
Q 33.59375 32.03125 37.515625 36.296875 
Q 41.453125 40.578125 41.453125 48.140625 
z
" id="ArialMT-57"/>
      </defs>
      <use xlink:href="#ArialMT-98"/>
      <use x="55.615234" xlink:href="#ArialMT-97"/>
      <use x="111.230469" xlink:href="#ArialMT-100"/>
      <use x="166.845703" xlink:href="#ArialMT-115"/>
      <use x="216.845703" xlink:href="#ArialMT-101"/>
      <use x="272.460938" xlink:href="#ArialMT-113"/>
      <use x="328.076172" xlink:href="#ArialMT-117"/>
      <use x="383.691406" xlink:href="#ArialMT-101"/>
      <use x="439.306641" xlink:href="#ArialMT-110"/>
      <use x="494.921875" xlink:href="#ArialMT-99"/>
      <use x="544.921875" xlink:href="#ArialMT-101"/>
      <use x="600.537109" xlink:href="#ArialMT-44"/>
      <use x="628.320312" xlink:href="#ArialMT-32"/>
      <use x="650.603516" xlink:href="#ArialMT-65"/>
      <use x="717.302734" xlink:href="#ArialMT-85"/>
      <use x="789.519531" xlink:href="#ArialMT-67"/>
      <use x="861.736328" xlink:href="#ArialMT-32"/>
      <use x="889.519531" xlink:href="#ArialMT-61"/>
      <use x="947.917969" xlink:href="#ArialMT-32"/>
      <use x="975.701172" xlink:href="#ArialMT-48"/>
      <use x="1031.316406" xlink:href="#ArialMT-46"/>
      <use x="1059.099609" xlink:href="#ArialMT-57"/>
      <use x="1114.714844" xlink:href="#ArialMT-56"/>
      <use x="1170.330078" xlink:href="#ArialMT-56"/>
     </g>
    </g>
    <g id="line2d_42">
     <path d="M 481.017188 311.97975 
L 514.017188 311.97975 
" style="fill:none;stroke:#bb9832;stroke-dasharray:2.25,2.25;stroke-dashoffset:0;stroke-width:2.25;"/>
    </g>
    <g id="line2d_43"/>
    <g id="text_19">
     <!-- Field_artefacts, AUC = 0.722 -->
     <g style="fill:#262626;" transform="translate(527.217188 317.75475)scale(0.165 -0.165)">
      <defs>
       <path d="M 8.203125 0 
L 8.203125 71.578125 
L 56.5 71.578125 
L 56.5 63.140625 
L 17.671875 63.140625 
L 17.671875 40.96875 
L 51.265625 40.96875 
L 51.265625 32.515625 
L 17.671875 32.515625 
L 17.671875 0 
z
" id="ArialMT-70"/>
       <path d="M -1.515625 -19.875 
L -1.515625 -13.53125 
L 56.734375 -13.53125 
L 56.734375 -19.875 
z
" id="ArialMT-95"/>
       <path d="M 4.734375 62.203125 
L 4.734375 70.65625 
L 51.078125 70.65625 
L 51.078125 63.8125 
Q 44.234375 56.546875 37.515625 44.484375 
Q 30.8125 32.421875 27.15625 19.671875 
Q 24.515625 10.6875 23.78125 0 
L 14.75 0 
Q 14.890625 8.453125 18.0625 20.40625 
Q 21.234375 32.375 27.171875 43.484375 
Q 33.109375 54.59375 39.796875 62.203125 
z
" id="ArialMT-55"/>
      </defs>
      <use xlink:href="#ArialMT-70"/>
      <use x="61.083984" xlink:href="#ArialMT-105"/>
      <use x="83.300781" xlink:href="#ArialMT-101"/>
      <use x="138.916016" xlink:href="#ArialMT-108"/>
      <use x="161.132812" xlink:href="#ArialMT-100"/>
      <use x="216.748047" xlink:href="#ArialMT-95"/>
      <use x="272.363281" xlink:href="#ArialMT-97"/>
      <use x="327.978516" xlink:href="#ArialMT-114"/>
      <use x="361.279297" xlink:href="#ArialMT-116"/>
      <use x="389.0625" xlink:href="#ArialMT-101"/>
      <use x="444.677734" xlink:href="#ArialMT-102"/>
      <use x="472.460938" xlink:href="#ArialMT-97"/>
      <use x="528.076172" xlink:href="#ArialMT-99"/>
      <use x="578.076172" xlink:href="#ArialMT-116"/>
      <use x="605.859375" xlink:href="#ArialMT-115"/>
      <use x="655.859375" xlink:href="#ArialMT-44"/>
      <use x="683.642578" xlink:href="#ArialMT-32"/>
      <use x="705.925781" xlink:href="#ArialMT-65"/>
      <use x="772.625" xlink:href="#ArialMT-85"/>
      <use x="844.841797" xlink:href="#ArialMT-67"/>
      <use x="917.058594" xlink:href="#ArialMT-32"/>
      <use x="944.841797" xlink:href="#ArialMT-61"/>
      <use x="1003.240234" xlink:href="#ArialMT-32"/>
      <use x="1031.023438" xlink:href="#ArialMT-48"/>
      <use x="1086.638672" xlink:href="#ArialMT-46"/>
      <use x="1114.421875" xlink:href="#ArialMT-55"/>
      <use x="1170.037109" xlink:href="#ArialMT-50"/>
      <use x="1225.652344" xlink:href="#ArialMT-50"/>
     </g>
    </g>
    <g id="line2d_44">
     <path d="M 481.017188 335.520609 
L 514.017188 335.520609 
" style="fill:none;stroke:#97a431;stroke-dasharray:6.75,2.8125,3.375,2.8125;stroke-dashoffset:0;stroke-width:2.25;"/>
    </g>
    <g id="line2d_45"/>
    <g id="text_20">
     <!-- highiron-lowt1, AUC = 0.413 -->
     <g style="fill:#262626;" transform="translate(527.217188 341.295609)scale(0.165 -0.165)">
      <defs>
       <path d="M 6.59375 0 
L 6.59375 71.578125 
L 15.375 71.578125 
L 15.375 45.90625 
Q 21.53125 53.03125 30.90625 53.03125 
Q 36.671875 53.03125 40.921875 50.75 
Q 45.171875 48.484375 47 44.484375 
Q 48.828125 40.484375 48.828125 32.859375 
L 48.828125 0 
L 40.046875 0 
L 40.046875 32.859375 
Q 40.046875 39.453125 37.1875 42.453125 
Q 34.328125 45.453125 29.109375 45.453125 
Q 25.203125 45.453125 21.75 43.421875 
Q 18.3125 41.40625 16.84375 37.9375 
Q 15.375 34.46875 15.375 28.375 
L 15.375 0 
z
" id="ArialMT-104"/>
       <path d="M 4.984375 -4.296875 
L 13.53125 -5.5625 
Q 14.0625 -9.515625 16.5 -11.328125 
Q 19.78125 -13.765625 25.4375 -13.765625 
Q 31.546875 -13.765625 34.859375 -11.328125 
Q 38.1875 -8.890625 39.359375 -4.5 
Q 40.046875 -1.8125 39.984375 6.78125 
Q 34.234375 0 25.640625 0 
Q 14.9375 0 9.078125 7.71875 
Q 3.21875 15.4375 3.21875 26.21875 
Q 3.21875 33.640625 5.90625 39.90625 
Q 8.59375 46.1875 13.6875 49.609375 
Q 18.796875 53.03125 25.6875 53.03125 
Q 34.859375 53.03125 40.828125 45.609375 
L 40.828125 51.859375 
L 48.921875 51.859375 
L 48.921875 7.03125 
Q 48.921875 -5.078125 46.453125 -10.125 
Q 44 -15.1875 38.640625 -18.109375 
Q 33.296875 -21.046875 25.484375 -21.046875 
Q 16.21875 -21.046875 10.5 -16.875 
Q 4.78125 -12.703125 4.984375 -4.296875 
z
M 12.25 26.859375 
Q 12.25 16.65625 16.296875 11.96875 
Q 20.359375 7.28125 26.46875 7.28125 
Q 32.515625 7.28125 36.609375 11.9375 
Q 40.71875 16.609375 40.71875 26.5625 
Q 40.71875 36.078125 36.5 40.90625 
Q 32.28125 45.75 26.3125 45.75 
Q 20.453125 45.75 16.34375 40.984375 
Q 12.25 36.234375 12.25 26.859375 
z
" id="ArialMT-103"/>
       <path d="M 3.171875 21.484375 
L 3.171875 30.328125 
L 30.171875 30.328125 
L 30.171875 21.484375 
z
" id="ArialMT-45"/>
       <path d="M 16.15625 0 
L 0.296875 51.859375 
L 9.375 51.859375 
L 17.625 21.921875 
L 20.703125 10.796875 
Q 20.90625 11.625 23.390625 21.484375 
L 31.640625 51.859375 
L 40.671875 51.859375 
L 48.4375 21.78125 
L 51.03125 11.859375 
L 54 21.875 
L 62.890625 51.859375 
L 71.4375 51.859375 
L 55.21875 0 
L 46.09375 0 
L 37.84375 31.0625 
L 35.84375 39.890625 
L 25.34375 0 
z
" id="ArialMT-119"/>
       <path d="M 4.203125 18.890625 
L 12.984375 20.0625 
Q 14.5 12.59375 18.140625 9.296875 
Q 21.78125 6 27 6 
Q 33.203125 6 37.46875 10.296875 
Q 41.75 14.59375 41.75 20.953125 
Q 41.75 27 37.796875 30.921875 
Q 33.84375 34.859375 27.734375 34.859375 
Q 25.25 34.859375 21.53125 33.890625 
L 22.515625 41.609375 
Q 23.390625 41.5 23.921875 41.5 
Q 29.546875 41.5 34.03125 44.421875 
Q 38.53125 47.359375 38.53125 53.46875 
Q 38.53125 58.296875 35.25 61.46875 
Q 31.984375 64.65625 26.8125 64.65625 
Q 21.6875 64.65625 18.265625 61.421875 
Q 14.84375 58.203125 13.875 51.765625 
L 5.078125 53.328125 
Q 6.6875 62.15625 12.390625 67.015625 
Q 18.109375 71.875 26.609375 71.875 
Q 32.46875 71.875 37.390625 69.359375 
Q 42.328125 66.84375 44.9375 62.5 
Q 47.5625 58.15625 47.5625 53.265625 
Q 47.5625 48.640625 45.0625 44.828125 
Q 42.578125 41.015625 37.703125 38.765625 
Q 44.046875 37.3125 47.5625 32.6875 
Q 51.078125 28.078125 51.078125 21.140625 
Q 51.078125 11.765625 44.234375 5.25 
Q 37.40625 -1.265625 26.953125 -1.265625 
Q 17.53125 -1.265625 11.296875 4.34375 
Q 5.078125 9.96875 4.203125 18.890625 
z
" id="ArialMT-51"/>
      </defs>
      <use xlink:href="#ArialMT-104"/>
      <use x="55.615234" xlink:href="#ArialMT-105"/>
      <use x="77.832031" xlink:href="#ArialMT-103"/>
      <use x="133.447266" xlink:href="#ArialMT-104"/>
      <use x="189.0625" xlink:href="#ArialMT-105"/>
      <use x="211.279297" xlink:href="#ArialMT-114"/>
      <use x="244.580078" xlink:href="#ArialMT-111"/>
      <use x="300.195312" xlink:href="#ArialMT-110"/>
      <use x="355.810547" xlink:href="#ArialMT-45"/>
      <use x="389.111328" xlink:href="#ArialMT-108"/>
      <use x="411.328125" xlink:href="#ArialMT-111"/>
      <use x="466.943359" xlink:href="#ArialMT-119"/>
      <use x="539.160156" xlink:href="#ArialMT-116"/>
      <use x="566.943359" xlink:href="#ArialMT-49"/>
      <use x="622.558594" xlink:href="#ArialMT-44"/>
      <use x="650.341797" xlink:href="#ArialMT-32"/>
      <use x="672.625" xlink:href="#ArialMT-65"/>
      <use x="739.324219" xlink:href="#ArialMT-85"/>
      <use x="811.541016" xlink:href="#ArialMT-67"/>
      <use x="883.757812" xlink:href="#ArialMT-32"/>
      <use x="911.541016" xlink:href="#ArialMT-61"/>
      <use x="969.939453" xlink:href="#ArialMT-32"/>
      <use x="997.722656" xlink:href="#ArialMT-48"/>
      <use x="1053.337891" xlink:href="#ArialMT-46"/>
      <use x="1081.121094" xlink:href="#ArialMT-52"/>
      <use x="1136.736328" xlink:href="#ArialMT-49"/>
      <use x="1192.351562" xlink:href="#ArialMT-51"/>
     </g>
    </g>
    <g id="line2d_46">
     <path d="M 481.017188 359.254828 
L 514.017188 359.254828 
" style="fill:none;stroke:#50b131;stroke-dasharray:11.25,2.25,2.25,2.25;stroke-dashoffset:0;stroke-width:2.25;"/>
    </g>
    <g id="line2d_47"/>
    <g id="text_21">
     <!-- lookuptable-rip, AUC = 0.596 -->
     <g style="fill:#262626;" transform="translate(527.217188 365.029828)scale(0.165 -0.165)">
      <defs>
       <path d="M 6.640625 0 
L 6.640625 71.578125 
L 15.4375 71.578125 
L 15.4375 30.765625 
L 36.234375 51.859375 
L 47.609375 51.859375 
L 27.78125 32.625 
L 49.609375 0 
L 38.765625 0 
L 21.625 26.515625 
L 15.4375 20.5625 
L 15.4375 0 
z
" id="ArialMT-107"/>
      </defs>
      <use xlink:href="#ArialMT-108"/>
      <use x="22.216797" xlink:href="#ArialMT-111"/>
      <use x="77.832031" xlink:href="#ArialMT-111"/>
      <use x="133.447266" xlink:href="#ArialMT-107"/>
      <use x="183.447266" xlink:href="#ArialMT-117"/>
      <use x="239.0625" xlink:href="#ArialMT-112"/>
      <use x="294.677734" xlink:href="#ArialMT-116"/>
      <use x="322.460938" xlink:href="#ArialMT-97"/>
      <use x="378.076172" xlink:href="#ArialMT-98"/>
      <use x="433.691406" xlink:href="#ArialMT-108"/>
      <use x="455.908203" xlink:href="#ArialMT-101"/>
      <use x="511.523438" xlink:href="#ArialMT-45"/>
      <use x="544.824219" xlink:href="#ArialMT-114"/>
      <use x="578.125" xlink:href="#ArialMT-105"/>
      <use x="600.341797" xlink:href="#ArialMT-112"/>
      <use x="655.957031" xlink:href="#ArialMT-44"/>
      <use x="683.740234" xlink:href="#ArialMT-32"/>
      <use x="706.023438" xlink:href="#ArialMT-65"/>
      <use x="772.722656" xlink:href="#ArialMT-85"/>
      <use x="844.939453" xlink:href="#ArialMT-67"/>
      <use x="917.15625" xlink:href="#ArialMT-32"/>
      <use x="944.939453" xlink:href="#ArialMT-61"/>
      <use x="1003.337891" xlink:href="#ArialMT-32"/>
      <use x="1031.121094" xlink:href="#ArialMT-48"/>
      <use x="1086.736328" xlink:href="#ArialMT-46"/>
      <use x="1114.519531" xlink:href="#ArialMT-53"/>
      <use x="1170.134766" xlink:href="#ArialMT-57"/>
      <use x="1225.75" xlink:href="#ArialMT-54"/>
     </g>
    </g>
    <g id="line2d_48">
     <path d="M 481.017188 382.795687 
L 514.017188 382.795687 
" style="fill:none;stroke:#34af84;stroke-dasharray:6.75,2.8125,2.8125,2.8125,2.8125,2.8125;stroke-dashoffset:0;stroke-width:2.25;"/>
    </g>
    <g id="line2d_49"/>
    <g id="text_22">
     <!-- m50pcfail, AUC = 0.610 -->
     <g style="fill:#262626;" transform="translate(527.217188 388.570687)scale(0.165 -0.165)">
      <defs>
       <path d="M 6.59375 0 
L 6.59375 51.859375 
L 14.453125 51.859375 
L 14.453125 44.578125 
Q 16.890625 48.390625 20.9375 50.703125 
Q 25 53.03125 30.171875 53.03125 
Q 35.9375 53.03125 39.625 50.640625 
Q 43.3125 48.25 44.828125 43.953125 
Q 50.984375 53.03125 60.84375 53.03125 
Q 68.5625 53.03125 72.703125 48.75 
Q 76.859375 44.484375 76.859375 35.59375 
L 76.859375 0 
L 68.109375 0 
L 68.109375 32.671875 
Q 68.109375 37.9375 67.25 40.25 
Q 66.40625 42.578125 64.15625 43.984375 
Q 61.921875 45.40625 58.890625 45.40625 
Q 53.421875 45.40625 49.796875 41.765625 
Q 46.1875 38.140625 46.1875 30.125 
L 46.1875 0 
L 37.40625 0 
L 37.40625 33.6875 
Q 37.40625 39.546875 35.25 42.46875 
Q 33.109375 45.40625 28.21875 45.40625 
Q 24.515625 45.40625 21.359375 43.453125 
Q 18.21875 41.5 16.796875 37.734375 
Q 15.375 33.984375 15.375 26.90625 
L 15.375 0 
z
" id="ArialMT-109"/>
      </defs>
      <use xlink:href="#ArialMT-109"/>
      <use x="83.300781" xlink:href="#ArialMT-53"/>
      <use x="138.916016" xlink:href="#ArialMT-48"/>
      <use x="194.53125" xlink:href="#ArialMT-112"/>
      <use x="250.146484" xlink:href="#ArialMT-99"/>
      <use x="300.146484" xlink:href="#ArialMT-102"/>
      <use x="327.929688" xlink:href="#ArialMT-97"/>
      <use x="383.544922" xlink:href="#ArialMT-105"/>
      <use x="405.761719" xlink:href="#ArialMT-108"/>
      <use x="427.978516" xlink:href="#ArialMT-44"/>
      <use x="455.761719" xlink:href="#ArialMT-32"/>
      <use x="478.044922" xlink:href="#ArialMT-65"/>
      <use x="544.744141" xlink:href="#ArialMT-85"/>
      <use x="616.960938" xlink:href="#ArialMT-67"/>
      <use x="689.177734" xlink:href="#ArialMT-32"/>
      <use x="716.960938" xlink:href="#ArialMT-61"/>
      <use x="775.359375" xlink:href="#ArialMT-32"/>
      <use x="803.142578" xlink:href="#ArialMT-48"/>
      <use x="858.757812" xlink:href="#ArialMT-46"/>
      <use x="886.541016" xlink:href="#ArialMT-54"/>
      <use x="942.15625" xlink:href="#ArialMT-49"/>
      <use x="997.771484" xlink:href="#ArialMT-48"/>
     </g>
    </g>
    <g id="line2d_50">
     <path d="M 481.017188 406.346859 
L 514.017188 406.346859 
" style="fill:none;stroke:#36ada4;stroke-dasharray:9,2.25,9,2.25,2.25,2.25;stroke-dashoffset:0;stroke-width:2.25;"/>
    </g>
    <g id="line2d_51"/>
    <g id="text_23">
     <!-- Other_Unlisted, AUC = 0.603 -->
     <g style="fill:#262626;" transform="translate(527.217188 412.121859)scale(0.165 -0.165)">
      <defs>
       <path d="M 4.828125 34.859375 
Q 4.828125 52.6875 14.390625 62.765625 
Q 23.96875 72.859375 39.109375 72.859375 
Q 49.03125 72.859375 56.984375 68.109375 
Q 64.9375 63.375 69.109375 54.90625 
Q 73.296875 46.4375 73.296875 35.6875 
Q 73.296875 24.8125 68.890625 16.21875 
Q 64.5 7.625 56.4375 3.203125 
Q 48.390625 -1.21875 39.0625 -1.21875 
Q 28.953125 -1.21875 20.984375 3.65625 
Q 13.03125 8.546875 8.921875 16.984375 
Q 4.828125 25.4375 4.828125 34.859375 
z
M 14.59375 34.71875 
Q 14.59375 21.78125 21.546875 14.328125 
Q 28.515625 6.890625 39.015625 6.890625 
Q 49.703125 6.890625 56.609375 14.40625 
Q 63.53125 21.921875 63.53125 35.75 
Q 63.53125 44.484375 60.578125 51 
Q 57.625 57.515625 51.921875 61.109375 
Q 46.234375 64.703125 39.15625 64.703125 
Q 29.109375 64.703125 21.84375 57.78125 
Q 14.59375 50.875 14.59375 34.71875 
z
" id="ArialMT-79"/>
      </defs>
      <use xlink:href="#ArialMT-79"/>
      <use x="77.783203" xlink:href="#ArialMT-116"/>
      <use x="105.566406" xlink:href="#ArialMT-104"/>
      <use x="161.181641" xlink:href="#ArialMT-101"/>
      <use x="216.796875" xlink:href="#ArialMT-114"/>
      <use x="250.097656" xlink:href="#ArialMT-95"/>
      <use x="305.712891" xlink:href="#ArialMT-85"/>
      <use x="377.929688" xlink:href="#ArialMT-110"/>
      <use x="433.544922" xlink:href="#ArialMT-108"/>
      <use x="455.761719" xlink:href="#ArialMT-105"/>
      <use x="477.978516" xlink:href="#ArialMT-115"/>
      <use x="527.978516" xlink:href="#ArialMT-116"/>
      <use x="555.761719" xlink:href="#ArialMT-101"/>
      <use x="611.376953" xlink:href="#ArialMT-100"/>
      <use x="666.992188" xlink:href="#ArialMT-44"/>
      <use x="694.775391" xlink:href="#ArialMT-32"/>
      <use x="717.058594" xlink:href="#ArialMT-65"/>
      <use x="783.757812" xlink:href="#ArialMT-85"/>
      <use x="855.974609" xlink:href="#ArialMT-67"/>
      <use x="928.191406" xlink:href="#ArialMT-32"/>
      <use x="955.974609" xlink:href="#ArialMT-61"/>
      <use x="1014.373047" xlink:href="#ArialMT-32"/>
      <use x="1042.15625" xlink:href="#ArialMT-48"/>
      <use x="1097.771484" xlink:href="#ArialMT-46"/>
      <use x="1125.554688" xlink:href="#ArialMT-54"/>
      <use x="1181.169922" xlink:href="#ArialMT-48"/>
      <use x="1236.785156" xlink:href="#ArialMT-51"/>
     </g>
    </g>
    <g id="line2d_52">
     <path d="M 481.017188 429.887719 
L 514.017188 429.887719 
" style="fill:none;stroke:#38aabf;stroke-dasharray:6.75,2.8125,6.75,2.8125,2.8125,2.8125;stroke-dashoffset:0;stroke-width:2.25;"/>
    </g>
    <g id="line2d_53"/>
    <g id="text_24">
     <!-- pdff35, AUC = 0.427 -->
     <g style="fill:#262626;" transform="translate(527.217188 435.662719)scale(0.165 -0.165)">
      <use xlink:href="#ArialMT-112"/>
      <use x="55.615234" xlink:href="#ArialMT-100"/>
      <use x="111.230469" xlink:href="#ArialMT-102"/>
      <use x="137.263672" xlink:href="#ArialMT-102"/>
      <use x="165.046875" xlink:href="#ArialMT-51"/>
      <use x="220.662109" xlink:href="#ArialMT-53"/>
      <use x="276.277344" xlink:href="#ArialMT-44"/>
      <use x="304.060547" xlink:href="#ArialMT-32"/>
      <use x="326.34375" xlink:href="#ArialMT-65"/>
      <use x="393.042969" xlink:href="#ArialMT-85"/>
      <use x="465.259766" xlink:href="#ArialMT-67"/>
      <use x="537.476562" xlink:href="#ArialMT-32"/>
      <use x="565.259766" xlink:href="#ArialMT-61"/>
      <use x="623.658203" xlink:href="#ArialMT-32"/>
      <use x="651.441406" xlink:href="#ArialMT-48"/>
      <use x="707.056641" xlink:href="#ArialMT-46"/>
      <use x="734.839844" xlink:href="#ArialMT-52"/>
      <use x="790.455078" xlink:href="#ArialMT-50"/>
      <use x="846.070312" xlink:href="#ArialMT-55"/>
     </g>
    </g>
    <g id="line2d_54">
     <path d="M 481.017188 453.227484 
L 514.017188 453.227484 
" style="fill:none;stroke:#3ba3ec;stroke-dasharray:9,2.25,2.25,2.25,2.25,2.25;stroke-dashoffset:0;stroke-width:2.25;"/>
    </g>
    <g id="line2d_55"/>
    <g id="text_25">
     <!-- Rainbow, AUC = 0.872 -->
     <g style="fill:#262626;" transform="translate(527.217188 459.002484)scale(0.165 -0.165)">
      <defs>
       <path d="M 7.859375 0 
L 7.859375 71.578125 
L 39.59375 71.578125 
Q 49.171875 71.578125 54.140625 69.640625 
Q 59.125 67.71875 62.109375 62.828125 
Q 65.09375 57.953125 65.09375 52.046875 
Q 65.09375 44.4375 60.15625 39.203125 
Q 55.21875 33.984375 44.921875 32.5625 
Q 48.6875 30.765625 50.640625 29 
Q 54.78125 25.203125 58.5 19.484375 
L 70.953125 0 
L 59.03125 0 
L 49.5625 14.890625 
Q 45.40625 21.34375 42.71875 24.75 
Q 40.046875 28.171875 37.921875 29.53125 
Q 35.796875 30.90625 33.59375 31.453125 
Q 31.984375 31.78125 28.328125 31.78125 
L 17.328125 31.78125 
L 17.328125 0 
z
M 17.328125 39.984375 
L 37.703125 39.984375 
Q 44.1875 39.984375 47.84375 41.328125 
Q 51.515625 42.671875 53.421875 45.625 
Q 55.328125 48.578125 55.328125 52.046875 
Q 55.328125 57.125 51.640625 60.390625 
Q 47.953125 63.671875 39.984375 63.671875 
L 17.328125 63.671875 
z
" id="ArialMT-82"/>
      </defs>
      <use xlink:href="#ArialMT-82"/>
      <use x="72.216797" xlink:href="#ArialMT-97"/>
      <use x="127.832031" xlink:href="#ArialMT-105"/>
      <use x="150.048828" xlink:href="#ArialMT-110"/>
      <use x="205.664062" xlink:href="#ArialMT-98"/>
      <use x="261.279297" xlink:href="#ArialMT-111"/>
      <use x="316.894531" xlink:href="#ArialMT-119"/>
      <use x="383.611328" xlink:href="#ArialMT-44"/>
      <use x="411.394531" xlink:href="#ArialMT-32"/>
      <use x="433.677734" xlink:href="#ArialMT-65"/>
      <use x="500.376953" xlink:href="#ArialMT-85"/>
      <use x="572.59375" xlink:href="#ArialMT-67"/>
      <use x="644.810547" xlink:href="#ArialMT-32"/>
      <use x="672.59375" xlink:href="#ArialMT-61"/>
      <use x="730.992188" xlink:href="#ArialMT-32"/>
      <use x="758.775391" xlink:href="#ArialMT-48"/>
      <use x="814.390625" xlink:href="#ArialMT-46"/>
      <use x="842.173828" xlink:href="#ArialMT-56"/>
      <use x="897.789062" xlink:href="#ArialMT-55"/>
      <use x="953.404297" xlink:href="#ArialMT-50"/>
     </g>
    </g>
    <g id="line2d_56">
     <path d="M 481.017188 476.768344 
L 514.017188 476.768344 
" style="fill:none;stroke:#a48cf4;stroke-dasharray:6.75,2.8125,2.8125,2.8125,2.8125,2.8125,2.8125,2.8125;stroke-dashoffset:0;stroke-width:2.25;"/>
    </g>
    <g id="line2d_57"/>
    <g id="text_26">
     <!-- Segmentation_fail, AUC = 0.834 -->
     <g style="fill:#262626;" transform="translate(527.217188 482.543344)scale(0.165 -0.165)">
      <defs>
       <path d="M 4.5 23 
L 13.421875 23.78125 
Q 14.0625 18.40625 16.375 14.96875 
Q 18.703125 11.53125 23.578125 9.40625 
Q 28.46875 7.28125 34.578125 7.28125 
Q 39.984375 7.28125 44.140625 8.890625 
Q 48.296875 10.5 50.3125 13.296875 
Q 52.34375 16.109375 52.34375 19.4375 
Q 52.34375 22.796875 50.390625 25.3125 
Q 48.4375 27.828125 43.953125 29.546875 
Q 41.0625 30.671875 31.203125 33.03125 
Q 21.34375 35.40625 17.390625 37.5 
Q 12.25 40.1875 9.734375 44.15625 
Q 7.234375 48.140625 7.234375 53.078125 
Q 7.234375 58.5 10.296875 63.203125 
Q 13.375 67.921875 19.28125 70.359375 
Q 25.203125 72.796875 32.421875 72.796875 
Q 40.375 72.796875 46.453125 70.234375 
Q 52.546875 67.671875 55.8125 62.6875 
Q 59.078125 57.71875 59.328125 51.421875 
L 50.25 50.734375 
Q 49.515625 57.515625 45.28125 60.984375 
Q 41.0625 64.453125 32.8125 64.453125 
Q 24.21875 64.453125 20.28125 61.296875 
Q 16.359375 58.15625 16.359375 53.71875 
Q 16.359375 49.859375 19.140625 47.359375 
Q 21.875 44.875 33.421875 42.265625 
Q 44.96875 39.65625 49.265625 37.703125 
Q 55.515625 34.8125 58.484375 30.390625 
Q 61.46875 25.984375 61.46875 20.21875 
Q 61.46875 14.5 58.203125 9.4375 
Q 54.9375 4.390625 48.796875 1.578125 
Q 42.671875 -1.21875 35.015625 -1.21875 
Q 25.296875 -1.21875 18.71875 1.609375 
Q 12.15625 4.4375 8.421875 10.125 
Q 4.6875 15.828125 4.5 23 
z
" id="ArialMT-83"/>
      </defs>
      <use xlink:href="#ArialMT-83"/>
      <use x="66.699219" xlink:href="#ArialMT-101"/>
      <use x="122.314453" xlink:href="#ArialMT-103"/>
      <use x="177.929688" xlink:href="#ArialMT-109"/>
      <use x="261.230469" xlink:href="#ArialMT-101"/>
      <use x="316.845703" xlink:href="#ArialMT-110"/>
      <use x="372.460938" xlink:href="#ArialMT-116"/>
      <use x="400.244141" xlink:href="#ArialMT-97"/>
      <use x="455.859375" xlink:href="#ArialMT-116"/>
      <use x="483.642578" xlink:href="#ArialMT-105"/>
      <use x="505.859375" xlink:href="#ArialMT-111"/>
      <use x="561.474609" xlink:href="#ArialMT-110"/>
      <use x="617.089844" xlink:href="#ArialMT-95"/>
      <use x="672.705078" xlink:href="#ArialMT-102"/>
      <use x="700.488281" xlink:href="#ArialMT-97"/>
      <use x="756.103516" xlink:href="#ArialMT-105"/>
      <use x="778.320312" xlink:href="#ArialMT-108"/>
      <use x="800.537109" xlink:href="#ArialMT-44"/>
      <use x="828.320312" xlink:href="#ArialMT-32"/>
      <use x="850.603516" xlink:href="#ArialMT-65"/>
      <use x="917.302734" xlink:href="#ArialMT-85"/>
      <use x="989.519531" xlink:href="#ArialMT-67"/>
      <use x="1061.736328" xlink:href="#ArialMT-32"/>
      <use x="1089.519531" xlink:href="#ArialMT-61"/>
      <use x="1147.917969" xlink:href="#ArialMT-32"/>
      <use x="1175.701172" xlink:href="#ArialMT-48"/>
      <use x="1231.316406" xlink:href="#ArialMT-46"/>
      <use x="1259.099609" xlink:href="#ArialMT-56"/>
      <use x="1314.714844" xlink:href="#ArialMT-51"/>
      <use x="1370.330078" xlink:href="#ArialMT-52"/>
     </g>
    </g>
    <g id="line2d_58">
     <path d="M 481.017188 500.502562 
L 514.017188 500.502562 
" style="fill:none;stroke:#e866f4;stroke-dasharray:9,2.25,9,2.25,9,2.25,2.25,2.25;stroke-dashoffset:0;stroke-width:2.25;"/>
    </g>
    <g id="line2d_59"/>
    <g id="text_27">
     <!-- Wrong_location, AUC = 0.808 -->
     <g style="fill:#262626;" transform="translate(527.217188 506.277562)scale(0.165 -0.165)">
      <defs>
       <path d="M 20.21875 0 
L 1.21875 71.578125 
L 10.9375 71.578125 
L 21.828125 24.65625 
Q 23.578125 17.28125 24.859375 10.015625 
Q 27.59375 21.484375 28.078125 23.25 
L 41.703125 71.578125 
L 53.125 71.578125 
L 63.375 35.359375 
Q 67.234375 21.875 68.953125 10.015625 
Q 70.3125 16.796875 72.515625 25.59375 
L 83.734375 71.578125 
L 93.265625 71.578125 
L 73.640625 0 
L 64.5 0 
L 49.421875 54.546875 
Q 47.515625 61.375 47.171875 62.9375 
Q 46.046875 58.015625 45.0625 54.546875 
L 29.890625 0 
z
" id="ArialMT-87"/>
      </defs>
      <use xlink:href="#ArialMT-87"/>
      <use x="92.634766" xlink:href="#ArialMT-114"/>
      <use x="125.935547" xlink:href="#ArialMT-111"/>
      <use x="181.550781" xlink:href="#ArialMT-110"/>
      <use x="237.166016" xlink:href="#ArialMT-103"/>
      <use x="292.78125" xlink:href="#ArialMT-95"/>
      <use x="348.396484" xlink:href="#ArialMT-108"/>
      <use x="370.613281" xlink:href="#ArialMT-111"/>
      <use x="426.228516" xlink:href="#ArialMT-99"/>
      <use x="476.228516" xlink:href="#ArialMT-97"/>
      <use x="531.84375" xlink:href="#ArialMT-116"/>
      <use x="559.626953" xlink:href="#ArialMT-105"/>
      <use x="581.84375" xlink:href="#ArialMT-111"/>
      <use x="637.458984" xlink:href="#ArialMT-110"/>
      <use x="693.074219" xlink:href="#ArialMT-44"/>
      <use x="720.857422" xlink:href="#ArialMT-32"/>
      <use x="743.140625" xlink:href="#ArialMT-65"/>
      <use x="809.839844" xlink:href="#ArialMT-85"/>
      <use x="882.056641" xlink:href="#ArialMT-67"/>
      <use x="954.273438" xlink:href="#ArialMT-32"/>
      <use x="982.056641" xlink:href="#ArialMT-61"/>
      <use x="1040.455078" xlink:href="#ArialMT-32"/>
      <use x="1068.238281" xlink:href="#ArialMT-48"/>
      <use x="1123.853516" xlink:href="#ArialMT-46"/>
      <use x="1151.636719" xlink:href="#ArialMT-56"/>
      <use x="1207.251953" xlink:href="#ArialMT-48"/>
      <use x="1262.867188" xlink:href="#ArialMT-56"/>
     </g>
    </g>
    <g id="line2d_60">
     <path d="M 481.017188 524.035687 
L 514.017188 524.035687 
" style="fill:none;stroke:#f668c2;stroke-dasharray:6.75,2.8125,6.75,2.8125,2.8125,2.8125,2.8125,2.8125;stroke-dashoffset:0;stroke-width:2.25;"/>
    </g>
    <g id="line2d_61"/>
    <g id="text_28">
     <!-- zeroct1, AUC = 0.586 -->
     <g style="fill:#262626;" transform="translate(527.217188 529.810687)scale(0.165 -0.165)">
      <defs>
       <path d="M 1.953125 0 
L 1.953125 7.125 
L 34.96875 45.015625 
Q 29.34375 44.734375 25.046875 44.734375 
L 3.90625 44.734375 
L 3.90625 51.859375 
L 46.296875 51.859375 
L 46.296875 46.046875 
L 18.21875 13.140625 
L 12.796875 7.125 
Q 18.703125 7.5625 23.875 7.5625 
L 47.859375 7.5625 
L 47.859375 0 
z
" id="ArialMT-122"/>
      </defs>
      <use xlink:href="#ArialMT-122"/>
      <use x="50" xlink:href="#ArialMT-101"/>
      <use x="105.615234" xlink:href="#ArialMT-114"/>
      <use x="138.916016" xlink:href="#ArialMT-111"/>
      <use x="194.53125" xlink:href="#ArialMT-99"/>
      <use x="244.53125" xlink:href="#ArialMT-116"/>
      <use x="272.314453" xlink:href="#ArialMT-49"/>
      <use x="327.929688" xlink:href="#ArialMT-44"/>
      <use x="355.712891" xlink:href="#ArialMT-32"/>
      <use x="377.996094" xlink:href="#ArialMT-65"/>
      <use x="444.695312" xlink:href="#ArialMT-85"/>
      <use x="516.912109" xlink:href="#ArialMT-67"/>
      <use x="589.128906" xlink:href="#ArialMT-32"/>
      <use x="616.912109" xlink:href="#ArialMT-61"/>
      <use x="675.310547" xlink:href="#ArialMT-32"/>
      <use x="703.09375" xlink:href="#ArialMT-48"/>
      <use x="758.708984" xlink:href="#ArialMT-46"/>
      <use x="786.492188" xlink:href="#ArialMT-53"/>
      <use x="842.107422" xlink:href="#ArialMT-56"/>
      <use x="897.722656" xlink:href="#ArialMT-54"/>
     </g>
    </g>
   </g>
  </g>
 </g>
 <defs>
  <clipPath id="p264e34f771">
   <rect height="521.856" width="714.24" x="63.096563" y="26.084062"/>
  </clipPath>
 </defs>
</svg>
