<?xml version="1.0" encoding="utf-8" standalone="no"?>
<!DOCTYPE svg PUBLIC "-//W3C//DTD SVG 1.1//EN"
  "http://www.w3.org/Graphics/SVG/1.1/DTD/svg11.dtd">
<!-- Created with matplotlib (https://matplotlib.org/) -->
<svg height="603.410766pt" version="1.1" viewBox="0 0 784.536562 603.410766" width="784.536562pt" xmlns="http://www.w3.org/2000/svg" xmlns:xlink="http://www.w3.org/1999/xlink">
 <metadata>
  <rdf:RDF xmlns:cc="http://creativecommons.org/ns#" xmlns:dc="http://purl.org/dc/elements/1.1/" xmlns:rdf="http://www.w3.org/1999/02/22-rdf-syntax-ns#">
   <cc:Work>
    <dc:type rdf:resource="http://purl.org/dc/dcmitype/StillImage"/>
    <dc:date>2021-07-16T12:57:10.359374</dc:date>
    <dc:format>image/svg+xml</dc:format>
    <dc:creator>
     <cc:Agent>
      <dc:title>Matplotlib v3.3.3, https://matplotlib.org/</dc:title>
     </cc:Agent>
    </dc:creator>
   </cc:Work>
  </rdf:RDF>
 </metadata>
 <defs>
  <style type="text/css">*{stroke-linecap:butt;stroke-linejoin:round;}</style>
 </defs>
 <g id="figure_1">
  <g id="patch_1">
   <path d="M 0 603.410766 
L 784.536562 603.410766 
L 784.536562 0 
L 0 0 
z
" style="fill:#ffffff;"/>
  </g>
  <g id="axes_1">
   <g id="patch_2">
    <path d="M 63.096563 547.940062 
L 777.336563 547.940062 
L 777.336563 26.084062 
L 63.096563 26.084062 
z
" style="fill:#eaeaf2;"/>
   </g>
   <g id="matplotlib.axis_1">
    <g id="xtick_1">
     <g id="line2d_1">
      <path clip-path="url(#p104cd83890)" d="M 95.562017 547.940062 
L 95.562017 26.084062 
" style="fill:none;stroke:#ffffff;stroke-linecap:round;stroke-width:1.5;"/>
     </g>
     <g id="text_1">
      <!-- 0.0 -->
      <g style="fill:#262626;" transform="translate(84.094517 572.250453)scale(0.165 -0.165)">
       <defs>
        <path d="M 4.15625 35.296875 
Q 4.15625 48 6.765625 55.734375 
Q 9.375 63.484375 14.515625 67.671875 
Q 19.671875 71.875 27.484375 71.875 
Q 33.25 71.875 37.59375 69.546875 
Q 41.9375 67.234375 44.765625 62.859375 
Q 47.609375 58.5 49.21875 52.21875 
Q 50.828125 45.953125 50.828125 35.296875 
Q 50.828125 22.703125 48.234375 14.96875 
Q 45.65625 7.234375 40.5 3 
Q 35.359375 -1.21875 27.484375 -1.21875 
Q 17.140625 -1.21875 11.234375 6.203125 
Q 4.15625 15.140625 4.15625 35.296875 
z
M 13.1875 35.296875 
Q 13.1875 17.671875 17.3125 11.828125 
Q 21.4375 6 27.484375 6 
Q 33.546875 6 37.671875 11.859375 
Q 41.796875 17.71875 41.796875 35.296875 
Q 41.796875 52.984375 37.671875 58.78125 
Q 33.546875 64.59375 27.390625 64.59375 
Q 21.34375 64.59375 17.71875 59.46875 
Q 13.1875 52.9375 13.1875 35.296875 
z
" id="ArialMT-48"/>
        <path d="M 9.078125 0 
L 9.078125 10.015625 
L 19.09375 10.015625 
L 19.09375 0 
z
" id="ArialMT-46"/>
       </defs>
       <use xlink:href="#ArialMT-48"/>
       <use x="55.615234" xlink:href="#ArialMT-46"/>
       <use x="83.398438" xlink:href="#ArialMT-48"/>
      </g>
     </g>
    </g>
    <g id="xtick_2">
     <g id="line2d_2">
      <path clip-path="url(#p104cd83890)" d="M 225.423835 547.940062 
L 225.423835 26.084062 
" style="fill:none;stroke:#ffffff;stroke-linecap:round;stroke-width:1.5;"/>
     </g>
     <g id="text_2">
      <!-- 0.2 -->
      <g style="fill:#262626;" transform="translate(213.956335 572.250453)scale(0.165 -0.165)">
       <defs>
        <path d="M 50.34375 8.453125 
L 50.34375 0 
L 3.03125 0 
Q 2.9375 3.171875 4.046875 6.109375 
Q 5.859375 10.9375 9.828125 15.625 
Q 13.8125 20.3125 21.34375 26.46875 
Q 33.015625 36.03125 37.109375 41.625 
Q 41.21875 47.21875 41.21875 52.203125 
Q 41.21875 57.421875 37.46875 61 
Q 33.734375 64.59375 27.734375 64.59375 
Q 21.390625 64.59375 17.578125 60.78125 
Q 13.765625 56.984375 13.71875 50.25 
L 4.6875 51.171875 
Q 5.609375 61.28125 11.65625 66.578125 
Q 17.71875 71.875 27.9375 71.875 
Q 38.234375 71.875 44.234375 66.15625 
Q 50.25 60.453125 50.25 52 
Q 50.25 47.703125 48.484375 43.546875 
Q 46.734375 39.40625 42.65625 34.8125 
Q 38.578125 30.21875 29.109375 22.21875 
Q 21.1875 15.578125 18.9375 13.203125 
Q 16.703125 10.84375 15.234375 8.453125 
z
" id="ArialMT-50"/>
       </defs>
       <use xlink:href="#ArialMT-48"/>
       <use x="55.615234" xlink:href="#ArialMT-46"/>
       <use x="83.398438" xlink:href="#ArialMT-50"/>
      </g>
     </g>
    </g>
    <g id="xtick_3">
     <g id="line2d_3">
      <path clip-path="url(#p104cd83890)" d="M 355.285653 547.940062 
L 355.285653 26.084062 
" style="fill:none;stroke:#ffffff;stroke-linecap:round;stroke-width:1.5;"/>
     </g>
     <g id="text_3">
      <!-- 0.4 -->
      <g style="fill:#262626;" transform="translate(343.818153 572.250453)scale(0.165 -0.165)">
       <defs>
        <path d="M 32.328125 0 
L 32.328125 17.140625 
L 1.265625 17.140625 
L 1.265625 25.203125 
L 33.9375 71.578125 
L 41.109375 71.578125 
L 41.109375 25.203125 
L 50.78125 25.203125 
L 50.78125 17.140625 
L 41.109375 17.140625 
L 41.109375 0 
z
M 32.328125 25.203125 
L 32.328125 57.46875 
L 9.90625 25.203125 
z
" id="ArialMT-52"/>
       </defs>
       <use xlink:href="#ArialMT-48"/>
       <use x="55.615234" xlink:href="#ArialMT-46"/>
       <use x="83.398438" xlink:href="#ArialMT-52"/>
      </g>
     </g>
    </g>
    <g id="xtick_4">
     <g id="line2d_4">
      <path clip-path="url(#p104cd83890)" d="M 485.147472 547.940062 
L 485.147472 26.084062 
" style="fill:none;stroke:#ffffff;stroke-linecap:round;stroke-width:1.5;"/>
     </g>
     <g id="text_4">
      <!-- 0.6 -->
      <g style="fill:#262626;" transform="translate(473.679972 572.250453)scale(0.165 -0.165)">
       <defs>
        <path d="M 49.75 54.046875 
L 41.015625 53.375 
Q 39.84375 58.546875 37.703125 60.890625 
Q 34.125 64.65625 28.90625 64.65625 
Q 24.703125 64.65625 21.53125 62.3125 
Q 17.390625 59.28125 14.984375 53.46875 
Q 12.59375 47.65625 12.5 36.921875 
Q 15.671875 41.75 20.265625 44.09375 
Q 24.859375 46.4375 29.890625 46.4375 
Q 38.671875 46.4375 44.84375 39.96875 
Q 51.03125 33.5 51.03125 23.25 
Q 51.03125 16.5 48.125 10.71875 
Q 45.21875 4.9375 40.140625 1.859375 
Q 35.0625 -1.21875 28.609375 -1.21875 
Q 17.625 -1.21875 10.6875 6.859375 
Q 3.765625 14.9375 3.765625 33.5 
Q 3.765625 54.25 11.421875 63.671875 
Q 18.109375 71.875 29.4375 71.875 
Q 37.890625 71.875 43.28125 67.140625 
Q 48.6875 62.40625 49.75 54.046875 
z
M 13.875 23.1875 
Q 13.875 18.65625 15.796875 14.5 
Q 17.71875 10.359375 21.1875 8.171875 
Q 24.65625 6 28.46875 6 
Q 34.03125 6 38.03125 10.484375 
Q 42.046875 14.984375 42.046875 22.703125 
Q 42.046875 30.125 38.078125 34.390625 
Q 34.125 38.671875 28.125 38.671875 
Q 22.171875 38.671875 18.015625 34.390625 
Q 13.875 30.125 13.875 23.1875 
z
" id="ArialMT-54"/>
       </defs>
       <use xlink:href="#ArialMT-48"/>
       <use x="55.615234" xlink:href="#ArialMT-46"/>
       <use x="83.398438" xlink:href="#ArialMT-54"/>
      </g>
     </g>
    </g>
    <g id="xtick_5">
     <g id="line2d_5">
      <path clip-path="url(#p104cd83890)" d="M 615.00929 547.940062 
L 615.00929 26.084062 
" style="fill:none;stroke:#ffffff;stroke-linecap:round;stroke-width:1.5;"/>
     </g>
     <g id="text_5">
      <!-- 0.8 -->
      <g style="fill:#262626;" transform="translate(603.54179 572.250453)scale(0.165 -0.165)">
       <defs>
        <path d="M 17.671875 38.8125 
Q 12.203125 40.828125 9.5625 44.53125 
Q 6.9375 48.25 6.9375 53.421875 
Q 6.9375 61.234375 12.546875 66.546875 
Q 18.171875 71.875 27.484375 71.875 
Q 36.859375 71.875 42.578125 66.421875 
Q 48.296875 60.984375 48.296875 53.171875 
Q 48.296875 48.1875 45.671875 44.5 
Q 43.0625 40.828125 37.75 38.8125 
Q 44.34375 36.671875 47.78125 31.875 
Q 51.21875 27.09375 51.21875 20.453125 
Q 51.21875 11.28125 44.71875 5.03125 
Q 38.234375 -1.21875 27.640625 -1.21875 
Q 17.046875 -1.21875 10.546875 5.046875 
Q 4.046875 11.328125 4.046875 20.703125 
Q 4.046875 27.6875 7.59375 32.390625 
Q 11.140625 37.109375 17.671875 38.8125 
z
M 15.921875 53.71875 
Q 15.921875 48.640625 19.1875 45.40625 
Q 22.46875 42.1875 27.6875 42.1875 
Q 32.765625 42.1875 36.015625 45.375 
Q 39.265625 48.578125 39.265625 53.21875 
Q 39.265625 58.0625 35.90625 61.359375 
Q 32.5625 64.65625 27.59375 64.65625 
Q 22.5625 64.65625 19.234375 61.421875 
Q 15.921875 58.203125 15.921875 53.71875 
z
M 13.09375 20.65625 
Q 13.09375 16.890625 14.875 13.375 
Q 16.65625 9.859375 20.171875 7.921875 
Q 23.6875 6 27.734375 6 
Q 34.03125 6 38.125 10.046875 
Q 42.234375 14.109375 42.234375 20.359375 
Q 42.234375 26.703125 38.015625 30.859375 
Q 33.796875 35.015625 27.4375 35.015625 
Q 21.234375 35.015625 17.15625 30.90625 
Q 13.09375 26.8125 13.09375 20.65625 
z
" id="ArialMT-56"/>
       </defs>
       <use xlink:href="#ArialMT-48"/>
       <use x="55.615234" xlink:href="#ArialMT-46"/>
       <use x="83.398438" xlink:href="#ArialMT-56"/>
      </g>
     </g>
    </g>
    <g id="xtick_6">
     <g id="line2d_6">
      <path clip-path="url(#p104cd83890)" d="M 744.871108 547.940062 
L 744.871108 26.084062 
" style="fill:none;stroke:#ffffff;stroke-linecap:round;stroke-width:1.5;"/>
     </g>
     <g id="text_6">
      <!-- 1.0 -->
      <g style="fill:#262626;" transform="translate(733.403608 572.250453)scale(0.165 -0.165)">
       <defs>
        <path d="M 37.25 0 
L 28.46875 0 
L 28.46875 56 
Q 25.296875 52.984375 20.140625 49.953125 
Q 14.984375 46.921875 10.890625 45.40625 
L 10.890625 53.90625 
Q 18.265625 57.375 23.78125 62.296875 
Q 29.296875 67.234375 31.59375 71.875 
L 37.25 71.875 
z
" id="ArialMT-49"/>
       </defs>
       <use xlink:href="#ArialMT-49"/>
       <use x="55.615234" xlink:href="#ArialMT-46"/>
       <use x="83.398438" xlink:href="#ArialMT-48"/>
      </g>
     </g>
    </g>
    <g id="text_7">
     <!-- false positive rate -->
     <g style="fill:#262626;" transform="translate(350.185313 592.633266)scale(0.18 -0.18)">
      <defs>
       <path d="M 8.6875 0 
L 8.6875 45.015625 
L 0.921875 45.015625 
L 0.921875 51.859375 
L 8.6875 51.859375 
L 8.6875 57.375 
Q 8.6875 62.59375 9.625 65.140625 
Q 10.890625 68.5625 14.078125 70.671875 
Q 17.28125 72.796875 23.046875 72.796875 
Q 26.765625 72.796875 31.25 71.921875 
L 29.9375 64.265625 
Q 27.203125 64.75 24.75 64.75 
Q 20.75 64.75 19.09375 63.03125 
Q 17.4375 61.328125 17.4375 56.640625 
L 17.4375 51.859375 
L 27.546875 51.859375 
L 27.546875 45.015625 
L 17.4375 45.015625 
L 17.4375 0 
z
" id="ArialMT-102"/>
       <path d="M 40.4375 6.390625 
Q 35.546875 2.25 31.03125 0.53125 
Q 26.515625 -1.171875 21.34375 -1.171875 
Q 12.796875 -1.171875 8.203125 3 
Q 3.609375 7.171875 3.609375 13.671875 
Q 3.609375 17.484375 5.34375 20.625 
Q 7.078125 23.78125 9.890625 25.6875 
Q 12.703125 27.59375 16.21875 28.5625 
Q 18.796875 29.25 24.03125 29.890625 
Q 34.671875 31.15625 39.703125 32.90625 
Q 39.75 34.71875 39.75 35.203125 
Q 39.75 40.578125 37.25 42.78125 
Q 33.890625 45.75 27.25 45.75 
Q 21.046875 45.75 18.09375 43.578125 
Q 15.140625 41.40625 13.71875 35.890625 
L 5.125 37.0625 
Q 6.296875 42.578125 8.984375 45.96875 
Q 11.671875 49.359375 16.75 51.1875 
Q 21.828125 53.03125 28.515625 53.03125 
Q 35.15625 53.03125 39.296875 51.46875 
Q 43.453125 49.90625 45.40625 47.53125 
Q 47.359375 45.171875 48.140625 41.546875 
Q 48.578125 39.3125 48.578125 33.453125 
L 48.578125 21.734375 
Q 48.578125 9.46875 49.140625 6.21875 
Q 49.703125 2.984375 51.375 0 
L 42.1875 0 
Q 40.828125 2.734375 40.4375 6.390625 
z
M 39.703125 26.03125 
Q 34.90625 24.078125 25.34375 22.703125 
Q 19.921875 21.921875 17.671875 20.9375 
Q 15.4375 19.96875 14.203125 18.09375 
Q 12.984375 16.21875 12.984375 13.921875 
Q 12.984375 10.40625 15.640625 8.0625 
Q 18.3125 5.71875 23.4375 5.71875 
Q 28.515625 5.71875 32.46875 7.9375 
Q 36.421875 10.15625 38.28125 14.015625 
Q 39.703125 17 39.703125 22.796875 
z
" id="ArialMT-97"/>
       <path d="M 6.390625 0 
L 6.390625 71.578125 
L 15.1875 71.578125 
L 15.1875 0 
z
" id="ArialMT-108"/>
       <path d="M 3.078125 15.484375 
L 11.765625 16.84375 
Q 12.5 11.625 15.84375 8.84375 
Q 19.1875 6.0625 25.203125 6.0625 
Q 31.25 6.0625 34.171875 8.515625 
Q 37.109375 10.984375 37.109375 14.3125 
Q 37.109375 17.28125 34.515625 19 
Q 32.71875 20.171875 25.53125 21.96875 
Q 15.875 24.421875 12.140625 26.203125 
Q 8.40625 27.984375 6.46875 31.125 
Q 4.546875 34.28125 4.546875 38.09375 
Q 4.546875 41.546875 6.125 44.5 
Q 7.71875 47.46875 10.453125 49.421875 
Q 12.5 50.921875 16.03125 51.96875 
Q 19.578125 53.03125 23.640625 53.03125 
Q 29.734375 53.03125 34.34375 51.265625 
Q 38.96875 49.515625 41.15625 46.5 
Q 43.359375 43.5 44.1875 38.484375 
L 35.59375 37.3125 
Q 35.015625 41.3125 32.203125 43.546875 
Q 29.390625 45.796875 24.265625 45.796875 
Q 18.21875 45.796875 15.625 43.796875 
Q 13.03125 41.796875 13.03125 39.109375 
Q 13.03125 37.40625 14.109375 36.03125 
Q 15.1875 34.625 17.484375 33.6875 
Q 18.796875 33.203125 25.25 31.453125 
Q 34.578125 28.953125 38.25 27.359375 
Q 41.9375 25.78125 44.03125 22.75 
Q 46.140625 19.734375 46.140625 15.234375 
Q 46.140625 10.84375 43.578125 6.953125 
Q 41.015625 3.078125 36.171875 0.953125 
Q 31.34375 -1.171875 25.25 -1.171875 
Q 15.140625 -1.171875 9.84375 3.03125 
Q 4.546875 7.234375 3.078125 15.484375 
z
" id="ArialMT-115"/>
       <path d="M 42.09375 16.703125 
L 51.171875 15.578125 
Q 49.03125 7.625 43.21875 3.21875 
Q 37.40625 -1.171875 28.375 -1.171875 
Q 17 -1.171875 10.328125 5.828125 
Q 3.65625 12.84375 3.65625 25.484375 
Q 3.65625 38.578125 10.390625 45.796875 
Q 17.140625 53.03125 27.875 53.03125 
Q 38.28125 53.03125 44.875 45.953125 
Q 51.46875 38.875 51.46875 26.03125 
Q 51.46875 25.25 51.421875 23.6875 
L 12.75 23.6875 
Q 13.234375 15.140625 17.578125 10.59375 
Q 21.921875 6.0625 28.421875 6.0625 
Q 33.25 6.0625 36.671875 8.59375 
Q 40.09375 11.140625 42.09375 16.703125 
z
M 13.234375 30.90625 
L 42.1875 30.90625 
Q 41.609375 37.453125 38.875 40.71875 
Q 34.671875 45.796875 27.984375 45.796875 
Q 21.921875 45.796875 17.796875 41.75 
Q 13.671875 37.703125 13.234375 30.90625 
z
" id="ArialMT-101"/>
       <path id="ArialMT-32"/>
       <path d="M 6.59375 -19.875 
L 6.59375 51.859375 
L 14.59375 51.859375 
L 14.59375 45.125 
Q 17.4375 49.078125 21 51.046875 
Q 24.5625 53.03125 29.640625 53.03125 
Q 36.28125 53.03125 41.359375 49.609375 
Q 46.4375 46.1875 49.015625 39.953125 
Q 51.609375 33.734375 51.609375 26.3125 
Q 51.609375 18.359375 48.75 11.984375 
Q 45.90625 5.609375 40.453125 2.21875 
Q 35.015625 -1.171875 29 -1.171875 
Q 24.609375 -1.171875 21.109375 0.6875 
Q 17.625 2.546875 15.375 5.375 
L 15.375 -19.875 
z
M 14.546875 25.640625 
Q 14.546875 15.625 18.59375 10.84375 
Q 22.65625 6.0625 28.421875 6.0625 
Q 34.28125 6.0625 38.453125 11.015625 
Q 42.625 15.96875 42.625 26.375 
Q 42.625 36.28125 38.546875 41.203125 
Q 34.46875 46.140625 28.8125 46.140625 
Q 23.1875 46.140625 18.859375 40.890625 
Q 14.546875 35.640625 14.546875 25.640625 
z
" id="ArialMT-112"/>
       <path d="M 3.328125 25.921875 
Q 3.328125 40.328125 11.328125 47.265625 
Q 18.015625 53.03125 27.640625 53.03125 
Q 38.328125 53.03125 45.109375 46.015625 
Q 51.90625 39.015625 51.90625 26.65625 
Q 51.90625 16.65625 48.90625 10.90625 
Q 45.90625 5.171875 40.15625 2 
Q 34.421875 -1.171875 27.640625 -1.171875 
Q 16.75 -1.171875 10.03125 5.8125 
Q 3.328125 12.796875 3.328125 25.921875 
z
M 12.359375 25.921875 
Q 12.359375 15.96875 16.703125 11.015625 
Q 21.046875 6.0625 27.640625 6.0625 
Q 34.1875 6.0625 38.53125 11.03125 
Q 42.875 16.015625 42.875 26.21875 
Q 42.875 35.84375 38.5 40.796875 
Q 34.125 45.75 27.640625 45.75 
Q 21.046875 45.75 16.703125 40.8125 
Q 12.359375 35.890625 12.359375 25.921875 
z
" id="ArialMT-111"/>
       <path d="M 6.640625 61.46875 
L 6.640625 71.578125 
L 15.4375 71.578125 
L 15.4375 61.46875 
z
M 6.640625 0 
L 6.640625 51.859375 
L 15.4375 51.859375 
L 15.4375 0 
z
" id="ArialMT-105"/>
       <path d="M 25.78125 7.859375 
L 27.046875 0.09375 
Q 23.34375 -0.6875 20.40625 -0.6875 
Q 15.625 -0.6875 12.984375 0.828125 
Q 10.359375 2.34375 9.28125 4.8125 
Q 8.203125 7.28125 8.203125 15.1875 
L 8.203125 45.015625 
L 1.765625 45.015625 
L 1.765625 51.859375 
L 8.203125 51.859375 
L 8.203125 64.703125 
L 16.9375 69.96875 
L 16.9375 51.859375 
L 25.78125 51.859375 
L 25.78125 45.015625 
L 16.9375 45.015625 
L 16.9375 14.703125 
Q 16.9375 10.9375 17.40625 9.859375 
Q 17.875 8.796875 18.921875 8.15625 
Q 19.96875 7.515625 21.921875 7.515625 
Q 23.390625 7.515625 25.78125 7.859375 
z
" id="ArialMT-116"/>
       <path d="M 21 0 
L 1.265625 51.859375 
L 10.546875 51.859375 
L 21.6875 20.796875 
Q 23.484375 15.765625 25 10.359375 
Q 26.171875 14.453125 28.265625 20.21875 
L 39.796875 51.859375 
L 48.828125 51.859375 
L 29.203125 0 
z
" id="ArialMT-118"/>
       <path d="M 6.5 0 
L 6.5 51.859375 
L 14.40625 51.859375 
L 14.40625 44 
Q 17.4375 49.515625 20 51.265625 
Q 22.5625 53.03125 25.640625 53.03125 
Q 30.078125 53.03125 34.671875 50.203125 
L 31.640625 42.046875 
Q 28.421875 43.953125 25.203125 43.953125 
Q 22.3125 43.953125 20.015625 42.21875 
Q 17.71875 40.484375 16.75 37.40625 
Q 15.28125 32.71875 15.28125 27.15625 
L 15.28125 0 
z
" id="ArialMT-114"/>
      </defs>
      <use xlink:href="#ArialMT-102"/>
      <use x="27.783203" xlink:href="#ArialMT-97"/>
      <use x="83.398438" xlink:href="#ArialMT-108"/>
      <use x="105.615234" xlink:href="#ArialMT-115"/>
      <use x="155.615234" xlink:href="#ArialMT-101"/>
      <use x="211.230469" xlink:href="#ArialMT-32"/>
      <use x="239.013672" xlink:href="#ArialMT-112"/>
      <use x="294.628906" xlink:href="#ArialMT-111"/>
      <use x="350.244141" xlink:href="#ArialMT-115"/>
      <use x="400.244141" xlink:href="#ArialMT-105"/>
      <use x="422.460938" xlink:href="#ArialMT-116"/>
      <use x="450.244141" xlink:href="#ArialMT-105"/>
      <use x="472.460938" xlink:href="#ArialMT-118"/>
      <use x="522.460938" xlink:href="#ArialMT-101"/>
      <use x="578.076172" xlink:href="#ArialMT-32"/>
      <use x="605.859375" xlink:href="#ArialMT-114"/>
      <use x="639.160156" xlink:href="#ArialMT-97"/>
      <use x="694.775391" xlink:href="#ArialMT-116"/>
      <use x="722.558594" xlink:href="#ArialMT-101"/>
     </g>
    </g>
   </g>
   <g id="matplotlib.axis_2">
    <g id="ytick_1">
     <g id="line2d_7">
      <path clip-path="url(#p104cd83890)" d="M 63.096563 524.219335 
L 777.336563 524.219335 
" style="fill:none;stroke:#ffffff;stroke-linecap:round;stroke-width:1.5;"/>
     </g>
     <g id="text_8">
      <!-- 0.0 -->
      <g style="fill:#262626;" transform="translate(27.661563 530.124531)scale(0.165 -0.165)">
       <use xlink:href="#ArialMT-48"/>
       <use x="55.615234" xlink:href="#ArialMT-46"/>
       <use x="83.398438" xlink:href="#ArialMT-48"/>
      </g>
     </g>
    </g>
    <g id="ytick_2">
     <g id="line2d_8">
      <path clip-path="url(#p104cd83890)" d="M 63.096563 429.336426 
L 777.336563 429.336426 
" style="fill:none;stroke:#ffffff;stroke-linecap:round;stroke-width:1.5;"/>
     </g>
     <g id="text_9">
      <!-- 0.2 -->
      <g style="fill:#262626;" transform="translate(27.661563 435.241621)scale(0.165 -0.165)">
       <use xlink:href="#ArialMT-48"/>
       <use x="55.615234" xlink:href="#ArialMT-46"/>
       <use x="83.398438" xlink:href="#ArialMT-50"/>
      </g>
     </g>
    </g>
    <g id="ytick_3">
     <g id="line2d_9">
      <path clip-path="url(#p104cd83890)" d="M 63.096563 334.453517 
L 777.336563 334.453517 
" style="fill:none;stroke:#ffffff;stroke-linecap:round;stroke-width:1.5;"/>
     </g>
     <g id="text_10">
      <!-- 0.4 -->
      <g style="fill:#262626;" transform="translate(27.661563 340.358712)scale(0.165 -0.165)">
       <use xlink:href="#ArialMT-48"/>
       <use x="55.615234" xlink:href="#ArialMT-46"/>
       <use x="83.398438" xlink:href="#ArialMT-52"/>
      </g>
     </g>
    </g>
    <g id="ytick_4">
     <g id="line2d_10">
      <path clip-path="url(#p104cd83890)" d="M 63.096563 239.570608 
L 777.336563 239.570608 
" style="fill:none;stroke:#ffffff;stroke-linecap:round;stroke-width:1.5;"/>
     </g>
     <g id="text_11">
      <!-- 0.6 -->
      <g style="fill:#262626;" transform="translate(27.661563 245.475803)scale(0.165 -0.165)">
       <use xlink:href="#ArialMT-48"/>
       <use x="55.615234" xlink:href="#ArialMT-46"/>
       <use x="83.398438" xlink:href="#ArialMT-54"/>
      </g>
     </g>
    </g>
    <g id="ytick_5">
     <g id="line2d_11">
      <path clip-path="url(#p104cd83890)" d="M 63.096563 144.687699 
L 777.336563 144.687699 
" style="fill:none;stroke:#ffffff;stroke-linecap:round;stroke-width:1.5;"/>
     </g>
     <g id="text_12">
      <!-- 0.8 -->
      <g style="fill:#262626;" transform="translate(27.661563 150.592894)scale(0.165 -0.165)">
       <use xlink:href="#ArialMT-48"/>
       <use x="55.615234" xlink:href="#ArialMT-46"/>
       <use x="83.398438" xlink:href="#ArialMT-56"/>
      </g>
     </g>
    </g>
    <g id="ytick_6">
     <g id="line2d_12">
      <path clip-path="url(#p104cd83890)" d="M 63.096563 49.80479 
L 777.336563 49.80479 
" style="fill:none;stroke:#ffffff;stroke-linecap:round;stroke-width:1.5;"/>
     </g>
     <g id="text_13">
      <!-- 1.0 -->
      <g style="fill:#262626;" transform="translate(27.661563 55.709985)scale(0.165 -0.165)">
       <use xlink:href="#ArialMT-49"/>
       <use x="55.615234" xlink:href="#ArialMT-46"/>
       <use x="83.398438" xlink:href="#ArialMT-48"/>
      </g>
     </g>
    </g>
    <g id="text_14">
     <!-- true positive rate -->
     <g style="fill:#262626;" transform="translate(20.084062 353.540344)rotate(-90)scale(0.18 -0.18)">
      <defs>
       <path d="M 40.578125 0 
L 40.578125 7.625 
Q 34.515625 -1.171875 24.125 -1.171875 
Q 19.53125 -1.171875 15.546875 0.578125 
Q 11.578125 2.34375 9.640625 5 
Q 7.71875 7.671875 6.9375 11.53125 
Q 6.390625 14.109375 6.390625 19.734375 
L 6.390625 51.859375 
L 15.1875 51.859375 
L 15.1875 23.09375 
Q 15.1875 16.21875 15.71875 13.8125 
Q 16.546875 10.359375 19.234375 8.375 
Q 21.921875 6.390625 25.875 6.390625 
Q 29.828125 6.390625 33.296875 8.421875 
Q 36.765625 10.453125 38.203125 13.9375 
Q 39.65625 17.4375 39.65625 24.078125 
L 39.65625 51.859375 
L 48.4375 51.859375 
L 48.4375 0 
z
" id="ArialMT-117"/>
      </defs>
      <use xlink:href="#ArialMT-116"/>
      <use x="27.783203" xlink:href="#ArialMT-114"/>
      <use x="61.083984" xlink:href="#ArialMT-117"/>
      <use x="116.699219" xlink:href="#ArialMT-101"/>
      <use x="172.314453" xlink:href="#ArialMT-32"/>
      <use x="200.097656" xlink:href="#ArialMT-112"/>
      <use x="255.712891" xlink:href="#ArialMT-111"/>
      <use x="311.328125" xlink:href="#ArialMT-115"/>
      <use x="361.328125" xlink:href="#ArialMT-105"/>
      <use x="383.544922" xlink:href="#ArialMT-116"/>
      <use x="411.328125" xlink:href="#ArialMT-105"/>
      <use x="433.544922" xlink:href="#ArialMT-118"/>
      <use x="483.544922" xlink:href="#ArialMT-101"/>
      <use x="539.160156" xlink:href="#ArialMT-32"/>
      <use x="566.943359" xlink:href="#ArialMT-114"/>
      <use x="600.244141" xlink:href="#ArialMT-97"/>
      <use x="655.859375" xlink:href="#ArialMT-116"/>
      <use x="683.642578" xlink:href="#ArialMT-101"/>
     </g>
    </g>
   </g>
   <g id="line2d_13">
    <path clip-path="url(#p104cd83890)" d="M 95.562017 524.219335 
L 744.871108 49.80479 
" style="fill:none;stroke:#000000;stroke-dasharray:14.4,3.6,2.25,3.6;stroke-dashoffset:0;stroke-width:2.25;"/>
   </g>
   <g id="line2d_14">
    <path clip-path="url(#p104cd83890)" d="M 95.562017 524.219335 
L 96.479305 511.516528 
L 96.554844 509.512958 
L 96.696677 509.175384 
L 97.122174 500.574276 
L 97.264007 500.049334 
L 97.515414 499.617022 
L 97.689504 497.725038 
L 98.115002 496.805998 
L 98.398667 495.100328 
L 98.540499 494.762754 
L 98.824164 493.150767 
L 98.942481 492.947313 
L 98.965997 491.688987 
L 99.249662 490.826471 
L 100.100656 487.583135 
L 100.142912 487.510474 
L 100.404677 486.498248 
L 101.093484 485.032746 
L 101.235316 483.472822 
L 101.660814 482.460098 
L 102.086311 479.292649 
L 102.653641 476.345266 
L 103.362803 474.751077 
L 103.504636 473.8514 
L 105.348458 469.837667 
L 105.490291 467.780386 
L 105.773956 467.105237 
L 105.915788 466.767663 
L 106.199453 465.530411 
L 108.262759 461.012012 
L 108.752438 460.518828 
L 108.791837 459.529964 
L 108.983417 459.463573 
L 109.036103 457.722617 
L 109.182054 457.173526 
L 109.443978 457.173526 
L 109.57494 455.683136 
L 110.02893 455.402085 
L 110.59626 455.308401 
L 111.189191 452.273111 
L 111.67358 451.353703 
L 111.686592 450.512543 
L 112.014585 450.418859 
L 112.190824 449.454602 
L 112.197533 448.535194 
L 112.581915 447.477253 
L 112.590498 446.557845 
L 112.86558 446.464161 
L 113.369244 445.499904 
L 113.631115 444.535646 
L 113.716574 443.522555 
L 114.424335 442.603147 
L 115.079276 440.719481 
L 115.472241 438.835816 
L 116.253997 437.871559 
L 116.384959 436.93026 
L 116.38916 436.010852 
L 116.511722 435.461761 
L 116.520148 434.542353 
L 116.643481 433.993262 
L 117.170518 433.444171 
L 118.964376 432.801397 
L 119.270903 431.881989 
L 120.200978 430.783807 
L 120.695722 427.959911 
L 120.710854 425.634349 
L 120.837663 424.693051 
L 121.34591 423.679344 
L 121.366716 422.759936 
L 121.913847 418.787102 
L 122.177365 418.238011 
L 123.78668 418.144327 
L 124.11747 416.260662 
L 124.29596 409.671571 
L 124.62 407.34601 
L 124.76652 404.07915 
L 126.069986 403.114892 
L 126.999213 402.195484 
L 127.248405 401.231227 
L 127.474325 401.137543 
L 129.081502 400.173286 
L 129.701889 399.209029 
L 129.819396 397.818778 
L 129.962499 397.818778 
L 131.088519 396.977617 
L 131.321828 389.469118 
L 131.917072 387.143557 
L 132.981616 386.594466 
L 133.48073 376.166465 
L 134.588663 376.072781 
L 135.221521 372.843714 
L 135.616799 372.294623 
L 136.143835 371.196441 
L 136.422129 370.232184 
L 136.868656 370.232184 
L 137.076939 366.987214 
L 137.329668 365.889033 
L 137.444482 364.875326 
L 137.86271 364.875326 
L 138.5155 362.255824 
L 138.679091 362.162141 
L 139.306055 361.61305 
L 139.425406 360.648792 
L 139.964851 359.135444 
L 140.94841 359.041761 
L 141.501846 358.028054 
L 142.08307 357.934371 
L 142.471765 355.608809 
L 143.101186 355.608809 
L 143.917625 355.059718 
L 144.400955 354.095461 
L 144.541767 352.605071 
L 144.70818 352.05598 
L 145.186567 351.091723 
L 145.206589 350.172315 
L 146.025771 349.623224 
L 146.62171 348.68838 
L 146.816326 348.139289 
L 147.475282 347.298128 
L 148.045981 346.284422 
L 148.465532 344.543466 
L 148.994471 344.543466 
L 149.093043 343.529759 
L 149.310599 342.688599 
L 149.638532 340.363037 
L 150.309354 340.269354 
L 150.337234 339.390808 
L 151.340535 338.426551 
L 151.984019 336.100989 
L 153.417373 336.100989 
L 153.971024 335.159691 
L 154.090181 334.195434 
L 157.259146 334.008066 
L 157.307339 333.166906 
L 158.254832 332.153199 
L 159.563659 330.298332 
L 161.764539 329.457172 
L 162.628036 328.537764 
L 165.910927 328.44408 
L 168.814042 327.565535 
L 175.130038 327.471851 
L 175.972622 326.530552 
L 176.938595 325.652007 
L 178.043245 325.102916 
L 178.534018 322.185336 
L 179.423524 315.596245 
L 181.690843 313.835676 
L 185.925727 312.894378 
L 187.185799 312.800694 
L 189.824951 306.211603 
L 190.69792 305.333058 
L 192.047277 304.491897 
L 192.676983 303.478191 
L 193.763634 302.513934 
L 199.222273 302.42025 
L 200.001845 301.541704 
L 200.462497 300.443523 
L 200.788092 299.564977 
L 204.658593 298.074587 
L 205.962897 297.133289 
L 212.037106 296.584198 
L 213.094685 294.729331 
L 215.916001 293.788032 
L 216.250952 292.030941 
L 217.714429 289.207045 
L 218.04858 286.881484 
L 222.176635 285.917227 
L 222.620685 284.997819 
L 225.345179 284.156658 
L 225.423835 283.278113 
L 225.738144 282.336814 
L 226.44472 281.323108 
L 226.569828 278.499211 
L 231.45173 277.620666 
L 231.713812 276.742121 
L 233.960829 275.777863 
L 234.436161 275.228772 
L 238.767052 274.387612 
L 239.00946 273.373906 
L 247.346857 271.883516 
L 248.402631 271.334425 
L 250.720572 270.370168 
L 254.811685 269.428869 
L 254.972446 268.587709 
L 255.385866 268.038618 
L 256.283387 267.197457 
L 256.285977 266.183751 
L 257.098735 265.63466 
L 257.266844 264.756115 
L 257.725686 263.742408 
L 261.35978 263.648724 
L 261.446787 263.099634 
L 261.621704 263.099634 
L 262.575904 262.258473 
L 263.13406 262.258473 
L 263.746291 261.244767 
L 264.99254 260.28051 
L 267.033103 260.28051 
L 274.754036 258.812011 
L 277.728204 258.718327 
L 281.415456 258.718327 
L 281.737696 258.09583 
L 282.355392 257.861436 
L 284.016188 256.54181 
L 284.80196 255.421514 
L 285.171732 252.513384 
L 286.095906 251.424313 
L 287.27158 250.607406 
L 289.188007 250.170846 
L 291.628919 248.994532 
L 291.888955 247.949808 
L 294.875665 246.535563 
L 296.44816 245.257419 
L 296.579201 244.345574 
L 297.496489 243.233929 
L 301.434121 238.966449 
L 302.428511 238.713757 
L 302.869178 237.835211 
L 303.047512 236.915803 
L 306.492428 236.074643 
L 309.555237 235.060936 
L 310.86269 234.182391 
L 311.080722 233.34123 
L 312.916039 232.50007 
L 313.601934 232.50007 
L 313.612601 231.486364 
L 315.444959 230.472657 
L 315.449132 229.594112 
L 316.497462 228.715566 
L 320.337891 228.715566 
L 320.598501 227.837021 
L 321.345985 226.958475 
L 326.20161 226.958475 
L 326.46222 226.409384 
L 328.423968 226.409384 
L 329.301943 225.47454 
L 331.305116 225.47454 
L 331.412648 224.460834 
L 331.567198 224.460834 
L 332.20145 223.911743 
L 333.624681 223.911743 
L 335.988601 223.070582 
L 338.087666 222.056876 
L 341.508462 221.115577 
L 341.982608 220.15132 
L 343.910689 219.179091 
L 347.276554 219.179091 
L 349.004959 216.85353 
L 349.890023 216.85353 
L 352.457447 215.889272 
L 353.435324 215.889272 
L 355.049874 214.969864 
L 361.514225 214.969864 
L 365.004987 214.050456 
L 365.637907 213.171911 
L 372.301668 213.171911 
L 374.379898 212.230612 
L 376.999561 212.230612 
L 377.392022 211.289313 
L 380.404145 211.289313 
L 383.242199 210.275607 
L 386.532758 210.275607 
L 391.310313 209.434447 
L 391.98858 208.515039 
L 395.243136 208.515039 
L 396.320836 207.550781 
L 399.917468 206.609483 
L 404.89402 206.609483 
L 406.648323 205.768322 
L 407.902754 205.768322 
L 408.240795 204.754616 
L 409.418739 203.740909 
L 413.266771 203.740909 
L 414.516271 202.862364 
L 416.088765 201.983819 
L 418.457447 201.983819 
L 418.578548 201.105273 
L 421.986333 200.264113 
L 423.097724 199.322814 
L 427.882472 198.444268 
L 429.589791 197.603108 
L 432.201994 195.669994 
L 435.464397 195.669994 
L 435.726163 195.120903 
L 440.218358 195.120903 
L 440.639231 194.571812 
L 443.736589 193.630513 
L 444.257808 191.304952 
L 445.099323 191.304952 
L 445.740947 188.481055 
L 446.313739 187.539757 
L 446.597404 187.539757 
L 451.163965 186.698596 
L 452.330969 186.698596 
L 453.448918 185.857436 
L 454.573272 184.843729 
L 459.767056 183.902431 
L 465.640669 183.902431 
L 466.446113 182.961132 
L 466.876246 182.961132 
L 467.138012 182.019833 
L 468.308652 182.019833 
L 468.572171 179.694272 
L 469.775645 179.694272 
L 470.450582 178.752973 
L 476.384269 178.752973 
L 479.41134 177.811674 
L 480.352253 175.486113 
L 481.453601 174.566705 
L 482.69774 174.566705 
L 484.152763 173.552999 
L 491.81908 173.552999 
L 491.971338 172.674453 
L 494.685787 172.674453 
L 496.316689 171.833293 
L 497.241033 170.819586 
L 501.789703 170.819586 
L 506.673123 169.978426 
L 507.293433 168.086174 
L 509.279931 165.760612 
L 511.262135 165.211522 
L 514.86955 165.211522 
L 525.812862 164.370361 
L 526.296993 163.356655 
L 526.861615 162.515494 
L 528.172556 162.515494 
L 528.522105 160.717541 
L 530.127688 160.717541 
L 530.224557 159.776242 
L 531.315325 159.776242 
L 531.753115 159.227151 
L 531.820632 156.403255 
L 532.6045 156.403255 
L 536.379766 155.461956 
L 537.432906 154.583411 
L 539.481426 154.583411 
L 540.046699 153.642112 
L 551.847437 152.763567 
L 558.256602 149.939671 
L 560.701533 149.020263 
L 561.675972 142.431172 
L 567.265591 140.10561 
L 568.418446 139.26445 
L 569.357403 138.250743 
L 577.108916 137.309445 
L 579.204307 136.368146 
L 580.426381 134.042584 
L 584.335527 131.717023 
L 589.71834 129.959932 
L 596.062964 127.63437 
L 599.19028 126.79321 
L 599.329542 125.779504 
L 599.45089 125.779504 
L 599.749936 124.938343 
L 600.376604 123.924637 
L 603.027289 123.083476 
L 603.386906 122.06977 
L 604.348991 121.128471 
L 607.361115 121.128471 
L 608.719313 120.249926 
L 608.795429 119.408765 
L 609.276627 118.395059 
L 612.481376 118.395059 
L 614.514429 115.571163 
L 615.611715 114.629864 
L 619.126923 112.304303 
L 622.216555 112.304303 
L 622.920984 111.148758 
L 623.166374 108.740938 
L 624.281413 105.543261 
L 625.016797 104.377339 
L 626.365036 101.10149 
L 628.68447 99.404568 
L 629.030092 96.963148 
L 633.160609 94.637229 
L 635.320674 93.913137 
L 640.23631 91.587576 
L 641.044898 91.038485 
L 641.896979 91.038485 
L 643.273178 90.197324 
L 644.222309 89.183618 
L 644.685256 88.242319 
L 647.992566 87.401159 
L 652.224356 87.401159 
L 652.786321 86.481751 
L 656.525283 86.481751 
L 656.7078 85.468045 
L 656.968253 85.468045 
L 668.404782 83.562489 
L 668.635907 82.643081 
L 669.033683 80.317519 
L 677.42573 79.353262 
L 677.687654 76.529366 
L 680.902331 76.529366 
L 683.650162 75.688205 
L 684.235749 73.827499 
L 690.403679 71.501937 
L 698.59489 70.660777 
L 699.018924 69.097979 
L 706.213957 69.097979 
L 707.801414 68.178571 
L 709.579739 65.354675 
L 716.073735 65.354675 
L 716.411132 64.805584 
L 725.976904 62.480023 
L 729.755745 62.480023 
L 730.407269 60.154461 
L 731.319403 57.8289 
L 731.826952 57.279809 
L 732.499595 54.455913 
L 740.287442 54.455913 
L 741.092267 52.130351 
L 741.222572 49.80479 
L 744.871108 49.80479 
L 744.871108 49.80479 
" style="fill:none;stroke:#4c72b0;stroke-linecap:round;stroke-width:2.25;"/>
   </g>
   <g id="line2d_15">
    <path clip-path="url(#p104cd83890)" d="M 95.562017 524.219335 
L 95.847211 365.982931 
L 96.231125 314.121465 
L 96.724729 292.905411 
L 96.966047 289.369402 
L 97.174458 289.074734 
L 98.238449 284.360056 
L 98.578488 283.770721 
L 99.675387 276.99337 
L 99.894766 276.404035 
L 100.311588 275.814701 
L 100.585812 274.046696 
L 100.794223 272.278692 
L 101.035541 271.100022 
L 101.123293 270.510687 
L 101.726587 269.921352 
L 101.967905 268.742682 
L 102.055656 267.564013 
L 102.318912 266.974678 
L 102.45054 265.796008 
L 103.119648 265.206673 
L 103.240307 263.438669 
L 103.558407 262.259999 
L 103.722942 261.375997 
L 103.821663 259.90266 
L 104.030074 258.72399 
L 104.106857 256.955986 
L 104.72112 255.187981 
L 105.609608 254.598646 
L 105.90577 254.009312 
L 106.004491 252.830642 
L 106.256778 252.241307 
L 106.805227 251.651972 
L 107.046545 249.883968 
L 107.452397 249.294633 
L 107.693715 246.642626 
L 108.011815 245.758624 
L 108.121505 244.579954 
L 108.340885 243.990619 
L 108.417668 242.222615 
L 108.812551 241.043945 
L 109.174528 240.45461 
L 109.503597 240.159943 
L 110.611465 237.802603 
L 111.247666 237.507936 
L 111.905805 235.150597 
L 112.443286 233.971927 
L 113.068518 233.382592 
L 113.309835 232.793257 
L 113.726657 232.203922 
L 113.858285 231.614588 
L 114.845493 230.730585 
L 114.999059 229.846583 
L 116.622469 229.257248 
L 116.808942 228.667913 
L 117.445143 227.783911 
L 118.322662 227.194576 
L 119.046615 226.899909 
L 119.573126 225.721239 
L 120.988125 224.54257 
L 121.723047 223.3639 
L 123.083201 222.774565 
L 123.105139 222.18523 
L 123.489054 221.006561 
L 124.629828 220.417226 
L 125.211185 219.827891 
L 125.638975 218.059886 
L 126.000952 217.470551 
L 126.088703 216.881217 
L 127.624361 215.702547 
L 127.832772 215.113212 
L 128.545756 214.523877 
L 130.23498 213.934542 
L 130.564049 213.345208 
L 132.264242 212.166538 
L 132.39587 211.577203 
L 134.798078 210.987868 
L 135.401372 210.103866 
L 136.991875 209.514531 
L 138.132649 208.041194 
L 140.589702 207.451859 
L 140.962648 206.862524 
L 141.796291 206.567857 
L 142.114391 206.27319 
L 142.959003 205.978522 
L 146.765241 205.978522 
L 147.873108 203.621183 
L 148.487372 203.326515 
L 149.134542 202.147846 
L 149.167449 201.558511 
L 149.441673 200.969176 
L 150.132719 200.674509 
L 150.264347 200.379841 
L 151.383184 200.085174 
L 152.534927 200.085174 
L 153.522136 199.790506 
L 154.948104 199.201171 
L 154.981011 198.611837 
L 156.747018 197.727834 
L 158.030389 197.727834 
L 159.807365 197.433167 
L 159.949961 196.843832 
L 160.586163 196.549165 
L 161.024922 196.549165 
L 161.04686 196.254497 
L 161.891472 195.95983 
L 161.902441 195.370495 
L 162.428952 195.075828 
L 162.758022 194.486493 
L 162.911587 193.897158 
L 163.273564 193.602491 
L 164.907943 193.602491 
L 165.039571 193.307823 
L 165.873213 192.718488 
L 169.174878 192.129153 
L 169.361351 191.539819 
L 170.875071 190.950484 
L 171.31383 190.655816 
L 173.650224 190.655816 
L 174.12189 190.361149 
L 174.648402 189.771814 
L 176.195029 189.182479 
L 176.447315 188.298477 
L 177.083517 188.00381 
L 177.4784 187.414475 
L 178.246229 186.82514 
L 178.750802 185.941138 
L 179.759949 185.64647 
L 181.558863 185.351803 
L 181.80018 185.057135 
L 182.875141 184.467801 
L 182.962893 183.878466 
L 183.730722 183.289131 
L 184.059791 182.994463 
L 186.264557 182.994463 
L 187.624712 182.699796 
L 187.756339 182.110461 
L 188.72161 181.815794 
L 189.544284 181.815794 
L 190.026919 181.521126 
L 190.224361 181.226459 
L 191.145756 180.342457 
L 192.9337 179.458454 
L 193.942847 179.163787 
L 195.116529 178.574452 
L 196.575404 178.279785 
L 196.586373 177.69045 
L 196.772845 177.395782 
L 199.31765 176.806448 
L 200.326797 176.217113 
L 201.895362 175.627778 
L 202.77288 174.743776 
L 202.794818 174.743776 
L 203.847841 174.449108 
L 204.39629 173.859773 
L 205.317685 173.565106 
L 205.91001 172.975771 
L 209.200706 172.975771 
L 209.288458 172.681104 
L 209.518806 172.386436 
L 210.045318 172.091769 
L 210.374387 171.502434 
L 212.315898 170.913099 
L 212.710781 170.323764 
L 213.708959 170.029097 
L 215.343338 168.55576 
L 215.771128 167.966425 
L 215.85888 167.37709 
L 216.297639 166.787755 
L 216.330546 166.19842 
L 217.284848 165.903753 
L 217.679732 165.609086 
L 217.877173 165.019751 
L 220.838799 164.430416 
L 221.431125 163.841081 
L 221.518876 163.251746 
L 223.032596 162.662411 
L 224.820541 162.073077 
L 225.632246 161.483742 
L 226.707207 160.305072 
L 227.52988 159.715737 
L 230.677979 159.126402 
L 230.765731 158.537068 
L 230.952204 158.2424 
L 232.520769 158.2424 
L 233.979644 157.947733 
L 234.528093 157.358398 
L 235.701775 157.06373 
L 238.531773 157.06373 
L 239.837082 156.769063 
L 240.166152 156.179728 
L 240.933981 155.885061 
L 240.966888 155.885061 
L 242.008941 155.590393 
L 242.217352 155.295726 
L 242.99615 155.001059 
L 243.138747 154.706391 
L 243.511692 154.706391 
L 243.742041 154.411724 
L 247.350837 154.117056 
L 247.53731 153.822389 
L 248.568394 153.527721 
L 248.754867 153.233054 
L 250.586688 152.938387 
L 251.146106 152.643719 
L 251.957811 151.759717 
L 251.979749 151.759717 
L 252.583043 151.46505 
L 253.690911 150.581047 
L 254.656181 150.581047 
L 255.10591 150.28638 
L 255.665328 149.10771 
L 256.334436 148.813043 
L 256.477033 148.518375 
L 258.078505 147.045038 
L 258.791489 147.045038 
L 260.798813 146.750371 
L 261.753115 146.455703 
L 262.279626 146.161036 
L 262.630634 145.571701 
L 262.652572 145.277034 
L 263.288773 145.277034 
L 263.661718 144.982366 
L 263.870129 144.393031 
L 266.733034 143.509029 
L 266.787879 143.214362 
L 267.21567 142.625027 
L 267.610553 142.33036 
L 269.48625 142.035692 
L 269.925009 141.446357 
L 270.429582 141.15169 
L 273.80803 141.15169 
L 274.411324 140.857022 
L 276.276052 140.562355 
L 276.287021 139.97302 
L 277.285198 139.97302 
L 277.307136 139.678353 
L 280.433297 139.089018 
L 280.883025 138.499683 
L 282.692908 137.615681 
L 284.305349 137.615681 
L 284.94155 136.731679 
L 286.378487 136.142344 
L 288.276122 135.553009 
L 288.671005 134.963674 
L 289.48271 134.374339 
L 290.107942 133.490337 
L 290.766081 133.490337 
L 293.409607 132.901002 
L 294.747823 131.427665 
L 295.20852 131.132998 
L 297.512007 131.132998 
L 297.654604 130.543663 
L 298.093364 130.543663 
L 300.122626 130.248995 
L 300.29813 129.954328 
L 302.77712 129.954328 
L 303.599794 129.65966 
L 303.961771 129.070326 
L 304.565065 128.775658 
L 305.475491 128.775658 
L 305.508398 128.186323 
L 305.936188 128.186323 
L 306.111692 127.596989 
L 307.362156 127.302321 
L 307.482815 127.007654 
L 307.504753 127.007654 
L 309.029442 126.712986 
L 311.574247 126.418319 
L 313.066029 125.828984 
L 313.899671 125.239649 
L 315.029477 124.060979 
L 319.515792 124.060979 
L 320.634629 123.471645 
L 324.769936 123.471645 
L 325.142882 123.176977 
L 326.031369 122.88231 
L 326.700477 122.88231 
L 326.810167 122.587642 
L 327.172144 121.998308 
L 328.323887 121.70364 
L 331.702335 121.70364 
L 332.217877 121.408973 
L 334.115512 121.114305 
L 336.550626 121.114305 
L 336.572564 120.819638 
L 336.989386 120.52497 
L 340.192329 120.52497 
L 340.971127 120.230303 
L 344.557986 119.346301 
L 345.281939 119.346301 
L 346.302054 118.756966 
L 346.356899 118.756966 
L 347.168604 118.462299 
L 347.497674 117.872964 
L 347.837712 117.578296 
L 350.865152 117.578296 
L 350.952904 117.283629 
L 351.238098 116.988961 
L 353.256391 116.988961 
L 353.398988 116.399627 
L 356.338676 116.399627 
L 356.40449 116.104959 
L 356.974877 115.810292 
L 359.267395 115.810292 
L 359.706155 115.515624 
L 361.59282 115.220957 
L 362.667781 115.220957 
L 362.722626 114.926289 
L 363.600144 114.631622 
L 363.665958 114.336955 
L 364.521539 114.042287 
L 367.307661 114.042287 
L 369.029792 113.452952 
L 369.05173 113.452952 
L 369.391769 113.158285 
L 369.402738 112.56895 
L 369.863435 112.274283 
L 370.104753 112.274283 
L 370.181536 111.979615 
L 370.642233 111.684948 
L 371.958511 111.684948 
L 372.166922 111.095613 
L 375.238238 110.800946 
L 375.962191 110.506278 
L 377.750136 110.506278 
L 378.934786 108.738274 
L 380.711762 108.738274 
L 387.53447 108.148939 
L 388.543617 107.559604 
L 390.572879 106.675602 
L 390.627724 106.380934 
L 391.724623 103.43426 
L 392.009817 103.43426 
L 393.523537 102.25559 
L 396.419349 102.25559 
L 397.647875 101.666256 
L 400.83985 101.666256 
L 402.649732 101.371588 
L 403.86729 100.782253 
L 404.382832 99.308916 
L 406.796009 99.308916 
L 407.96969 99.014249 
L 408.200039 98.424914 
L 408.627829 97.835579 
L 409.231124 97.540912 
L 410.273177 97.540912 
L 410.953254 97.246244 
L 411.348138 96.951577 
L 412.796044 96.951577 
L 415.132438 96.656909 
L 415.582166 96.362242 
L 424.993556 96.362242 
L 427.176384 96.067575 
L 428.18553 95.772907 
L 430.35739 95.772907 
L 430.390296 95.47824 
L 432.320838 95.183572 
L 435.830913 95.183572 
L 437.465292 94.888905 
L 438.057617 94.29957 
L 438.89126 94.004903 
L 443.366606 94.004903 
L 445.878504 93.710235 
L 446.306294 93.415568 
L 448.160053 92.826233 
L 450.693888 92.826233 
L 450.814547 92.531566 
L 451.560438 92.236898 
L 451.571407 91.942231 
L 451.933384 91.647563 
L 452.492802 91.647563 
L 460.127216 91.058229 
L 462.255199 91.058229 
L 464.613531 90.763561 
L 467.037677 90.174226 
L 467.289963 89.879559 
L 467.937133 89.584891 
L 469.505698 89.290224 
L 469.977365 88.995557 
L 471.205891 88.406222 
L 474.397866 87.816887 
L 474.595308 87.522219 
L 478.949995 87.522219 
L 481.176699 87.227552 
L 481.319296 86.638217 
L 481.878714 86.048882 
L 481.933559 85.754215 
L 482.372318 85.754215 
L 483.205961 85.459548 
L 483.447279 85.16488 
L 488.043284 85.16488 
L 488.525919 84.870213 
L 490.182236 84.575545 
L 490.511305 84.280878 
L 494.504016 83.98621 
L 495.348628 83.98621 
L 496.588123 83.691543 
L 496.62103 83.396876 
L 501.238973 83.396876 
L 502.050678 82.807541 
L 503.98122 82.807541 
L 504.123816 82.512873 
L 504.5187 82.218206 
L 505.955637 82.218206 
L 507.304822 81.923539 
L 507.941023 81.334204 
L 509.443774 80.744869 
L 510.079975 79.860867 
L 511.418192 79.566199 
L 511.900827 79.271532 
L 514.730825 78.976864 
L 514.807608 78.682197 
L 519.118419 78.682197 
L 520.719891 78.387529 
L 523.560858 78.092862 
L 523.857021 77.798195 
L 524.73454 77.20886 
L 527.564538 76.914192 
L 527.970391 76.619525 
L 532.105698 76.324858 
L 533.981395 76.324858 
L 534.025271 76.03019 
L 534.288526 75.735523 
L 535.86806 75.735523 
L 536.482323 75.440855 
L 536.877207 74.85152 
L 540.869917 74.556853 
L 544.52259 74.556853 
L 545.092977 74.262186 
L 547.517123 73.967518 
L 552.332507 73.967518 
L 553.210026 73.378183 
L 555.425761 73.378183 
L 555.65611 73.083516 
L 558.453201 72.788848 
L 559.275875 72.494181 
L 559.528162 72.199514 
L 565.473352 72.199514 
L 566.954165 71.610179 
L 569.509938 71.610179 
L 572.076681 70.726177 
L 572.186371 70.431509 
L 572.482533 70.431509 
L 572.73482 70.136842 
L 573.349083 69.842174 
L 575.707415 69.252839 
L 576.124237 69.252839 
L 578.098654 68.958172 
L 579.129739 68.368837 
L 579.173614 68.07417 
L 579.787878 68.07417 
L 580.961559 67.779502 
L 584.921363 67.484835 
L 592.281552 67.484835 
L 597.842828 66.600833 
L 599.279765 66.011498 
L 599.532051 65.422163 
L 601.034802 64.832828 
L 601.298058 64.538161 
L 604.106118 64.538161 
L 611.65278 64.243493 
L 613.583322 63.948826 
L 617.477311 63.948826 
L 619.089752 63.654158 
L 620.08793 63.359491 
L 620.603472 62.770156 
L 636.332997 62.770156 
L 638.131911 62.475489 
L 639.689507 61.591487 
L 640.720592 61.591487 
L 643.342179 60.707484 
L 644.011287 60.412817 
L 648.442757 60.412817 
L 648.464695 60.118149 
L 649.089927 59.823482 
L 652.183181 59.823482 
L 655.77004 59.528815 
L 656.41721 59.234147 
L 660.431858 59.234147 
L 663.503174 58.93948 
L 664.106468 58.350145 
L 666.925498 58.055478 
L 671.137588 58.055478 
L 671.817665 57.76081 
L 672.51968 57.171475 
L 674.658632 56.876808 
L 685.539866 56.876808 
L 688.128546 56.58214 
L 688.216298 55.698138 
L 692.592924 55.403471 
L 692.84521 55.108803 
L 694.611217 54.814136 
L 698.845245 54.519468 
L 707.466868 54.519468 
L 708.234697 53.930134 
L 708.772177 53.635466 
L 711.843493 53.340799 
L 717.207327 53.046131 
L 718.57845 52.456797 
L 720.004418 52.162129 
L 726.487088 52.162129 
L 726.651623 51.867462 
L 730.852745 51.572794 
L 735.865571 50.983459 
L 736.30433 50.688792 
L 740.275103 50.099457 
L 744.871108 49.80479 
L 744.871108 49.80479 
" style="fill:none;stroke:#dd8452;stroke-dasharray:9,3.375;stroke-dashoffset:0;stroke-width:2.25;"/>
   </g>
   <g id="line2d_16"/>
   <g id="line2d_17"/>
   <g id="patch_3">
    <path d="M 63.096563 547.940062 
L 63.096563 26.084063 
" style="fill:none;stroke:#ffffff;stroke-linecap:square;stroke-linejoin:miter;stroke-width:1.875;"/>
   </g>
   <g id="patch_4">
    <path d="M 777.336563 547.940062 
L 777.336563 26.084063 
" style="fill:none;stroke:#ffffff;stroke-linecap:square;stroke-linejoin:miter;stroke-width:1.875;"/>
   </g>
   <g id="patch_5">
    <path d="M 63.096563 547.940062 
L 777.336563 547.940062 
" style="fill:none;stroke:#ffffff;stroke-linecap:square;stroke-linejoin:miter;stroke-width:1.875;"/>
   </g>
   <g id="patch_6">
    <path d="M 63.096563 26.084062 
L 777.336563 26.084062 
" style="fill:none;stroke:#ffffff;stroke-linecap:square;stroke-linejoin:miter;stroke-width:1.875;"/>
   </g>
   <g id="text_15">
    <!-- Braided Net -->
    <g style="fill:#262626;" transform="translate(372.692344 20.084062)scale(0.18 -0.18)">
     <defs>
      <path d="M 7.328125 0 
L 7.328125 71.578125 
L 34.1875 71.578125 
Q 42.390625 71.578125 47.34375 69.40625 
Q 52.296875 67.234375 55.09375 62.71875 
Q 57.90625 58.203125 57.90625 53.265625 
Q 57.90625 48.6875 55.421875 44.625 
Q 52.9375 40.578125 47.90625 38.09375 
Q 54.390625 36.1875 57.875 31.59375 
Q 61.375 27 61.375 20.75 
Q 61.375 15.71875 59.25 11.390625 
Q 57.125 7.078125 54 4.734375 
Q 50.875 2.390625 46.15625 1.1875 
Q 41.453125 0 34.625 0 
z
M 16.796875 41.5 
L 32.28125 41.5 
Q 38.578125 41.5 41.3125 42.328125 
Q 44.921875 43.40625 46.75 45.890625 
Q 48.578125 48.390625 48.578125 52.15625 
Q 48.578125 55.71875 46.875 58.421875 
Q 45.171875 61.140625 41.984375 62.140625 
Q 38.8125 63.140625 31.109375 63.140625 
L 16.796875 63.140625 
z
M 16.796875 8.453125 
L 34.625 8.453125 
Q 39.203125 8.453125 41.0625 8.796875 
Q 44.34375 9.375 46.53125 10.734375 
Q 48.734375 12.109375 50.140625 14.71875 
Q 51.5625 17.328125 51.5625 20.75 
Q 51.5625 24.75 49.515625 27.703125 
Q 47.46875 30.671875 43.828125 31.859375 
Q 40.1875 33.0625 33.34375 33.0625 
L 16.796875 33.0625 
z
" id="ArialMT-66"/>
      <path d="M 40.234375 0 
L 40.234375 6.546875 
Q 35.296875 -1.171875 25.734375 -1.171875 
Q 19.53125 -1.171875 14.328125 2.25 
Q 9.125 5.671875 6.265625 11.796875 
Q 3.421875 17.921875 3.421875 25.875 
Q 3.421875 33.640625 6 39.96875 
Q 8.59375 46.296875 13.765625 49.65625 
Q 18.953125 53.03125 25.34375 53.03125 
Q 30.03125 53.03125 33.6875 51.046875 
Q 37.359375 49.078125 39.65625 45.90625 
L 39.65625 71.578125 
L 48.390625 71.578125 
L 48.390625 0 
z
M 12.453125 25.875 
Q 12.453125 15.921875 16.640625 10.984375 
Q 20.84375 6.0625 26.5625 6.0625 
Q 32.328125 6.0625 36.34375 10.765625 
Q 40.375 15.484375 40.375 25.140625 
Q 40.375 35.796875 36.265625 40.765625 
Q 32.171875 45.75 26.171875 45.75 
Q 20.3125 45.75 16.375 40.96875 
Q 12.453125 36.1875 12.453125 25.875 
z
" id="ArialMT-100"/>
      <path d="M 7.625 0 
L 7.625 71.578125 
L 17.328125 71.578125 
L 54.9375 15.375 
L 54.9375 71.578125 
L 64.015625 71.578125 
L 64.015625 0 
L 54.296875 0 
L 16.703125 56.25 
L 16.703125 0 
z
" id="ArialMT-78"/>
     </defs>
     <use xlink:href="#ArialMT-66"/>
     <use x="66.699219" xlink:href="#ArialMT-114"/>
     <use x="100" xlink:href="#ArialMT-97"/>
     <use x="155.615234" xlink:href="#ArialMT-105"/>
     <use x="177.832031" xlink:href="#ArialMT-100"/>
     <use x="233.447266" xlink:href="#ArialMT-101"/>
     <use x="289.0625" xlink:href="#ArialMT-100"/>
     <use x="344.677734" xlink:href="#ArialMT-32"/>
     <use x="372.460938" xlink:href="#ArialMT-78"/>
     <use x="444.677734" xlink:href="#ArialMT-101"/>
     <use x="500.292969" xlink:href="#ArialMT-116"/>
    </g>
   </g>
   <g id="legend_1">
    <g id="patch_7">
     <path d="M 74.646563 111.464062 
L 312.243984 111.464062 
Q 315.543984 111.464062 315.543984 108.164062 
L 315.543984 37.634062 
Q 315.543984 34.334062 312.243984 34.334062 
L 74.646563 34.334062 
Q 71.346563 34.334062 71.346563 37.634062 
L 71.346563 108.164062 
Q 71.346563 111.464062 74.646563 111.464062 
z
" style="fill:#eaeaf2;opacity:0.8;stroke:#cccccc;stroke-linejoin:miter;stroke-width:1.5;"/>
    </g>
    <g id="text_16">
     <!-- Model -->
     <g style="fill:#262626;" transform="translate(168.934336 53.818125)scale(0.18 -0.18)">
      <defs>
       <path d="M 7.421875 0 
L 7.421875 71.578125 
L 21.6875 71.578125 
L 38.625 20.90625 
Q 40.96875 13.8125 42.046875 10.296875 
Q 43.265625 14.203125 45.84375 21.78125 
L 62.984375 71.578125 
L 75.734375 71.578125 
L 75.734375 0 
L 66.609375 0 
L 66.609375 59.90625 
L 45.796875 0 
L 37.25 0 
L 16.546875 60.9375 
L 16.546875 0 
z
" id="ArialMT-77"/>
      </defs>
      <use xlink:href="#ArialMT-77"/>
      <use x="83.300781" xlink:href="#ArialMT-111"/>
      <use x="138.916016" xlink:href="#ArialMT-100"/>
      <use x="194.53125" xlink:href="#ArialMT-101"/>
      <use x="250.146484" xlink:href="#ArialMT-108"/>
     </g>
    </g>
    <g id="line2d_18">
     <path d="M 77.946562 71.882109 
L 110.946562 71.882109 
" style="fill:none;stroke:#4c72b0;stroke-linecap:round;stroke-width:2.25;"/>
    </g>
    <g id="line2d_19"/>
    <g id="text_17">
     <!-- macro avg., AUC = 0.671 -->
     <g style="fill:#262626;" transform="translate(124.146563 77.657109)scale(0.165 -0.165)">
      <defs>
       <path d="M 6.59375 0 
L 6.59375 51.859375 
L 14.453125 51.859375 
L 14.453125 44.578125 
Q 16.890625 48.390625 20.9375 50.703125 
Q 25 53.03125 30.171875 53.03125 
Q 35.9375 53.03125 39.625 50.640625 
Q 43.3125 48.25 44.828125 43.953125 
Q 50.984375 53.03125 60.84375 53.03125 
Q 68.5625 53.03125 72.703125 48.75 
Q 76.859375 44.484375 76.859375 35.59375 
L 76.859375 0 
L 68.109375 0 
L 68.109375 32.671875 
Q 68.109375 37.9375 67.25 40.25 
Q 66.40625 42.578125 64.15625 43.984375 
Q 61.921875 45.40625 58.890625 45.40625 
Q 53.421875 45.40625 49.796875 41.765625 
Q 46.1875 38.140625 46.1875 30.125 
L 46.1875 0 
L 37.40625 0 
L 37.40625 33.6875 
Q 37.40625 39.546875 35.25 42.46875 
Q 33.109375 45.40625 28.21875 45.40625 
Q 24.515625 45.40625 21.359375 43.453125 
Q 18.21875 41.5 16.796875 37.734375 
Q 15.375 33.984375 15.375 26.90625 
L 15.375 0 
z
" id="ArialMT-109"/>
       <path d="M 40.4375 19 
L 49.078125 17.875 
Q 47.65625 8.9375 41.8125 3.875 
Q 35.984375 -1.171875 27.484375 -1.171875 
Q 16.84375 -1.171875 10.375 5.78125 
Q 3.90625 12.75 3.90625 25.734375 
Q 3.90625 34.125 6.6875 40.421875 
Q 9.46875 46.734375 15.15625 49.875 
Q 20.84375 53.03125 27.546875 53.03125 
Q 35.984375 53.03125 41.359375 48.75 
Q 46.734375 44.484375 48.25 36.625 
L 39.703125 35.296875 
Q 38.484375 40.53125 35.375 43.15625 
Q 32.28125 45.796875 27.875 45.796875 
Q 21.234375 45.796875 17.078125 41.03125 
Q 12.9375 36.28125 12.9375 25.984375 
Q 12.9375 15.53125 16.9375 10.796875 
Q 20.953125 6.0625 27.390625 6.0625 
Q 32.5625 6.0625 36.03125 9.234375 
Q 39.5 12.40625 40.4375 19 
z
" id="ArialMT-99"/>
       <path d="M 4.984375 -4.296875 
L 13.53125 -5.5625 
Q 14.0625 -9.515625 16.5 -11.328125 
Q 19.78125 -13.765625 25.4375 -13.765625 
Q 31.546875 -13.765625 34.859375 -11.328125 
Q 38.1875 -8.890625 39.359375 -4.5 
Q 40.046875 -1.8125 39.984375 6.78125 
Q 34.234375 0 25.640625 0 
Q 14.9375 0 9.078125 7.71875 
Q 3.21875 15.4375 3.21875 26.21875 
Q 3.21875 33.640625 5.90625 39.90625 
Q 8.59375 46.1875 13.6875 49.609375 
Q 18.796875 53.03125 25.6875 53.03125 
Q 34.859375 53.03125 40.828125 45.609375 
L 40.828125 51.859375 
L 48.921875 51.859375 
L 48.921875 7.03125 
Q 48.921875 -5.078125 46.453125 -10.125 
Q 44 -15.1875 38.640625 -18.109375 
Q 33.296875 -21.046875 25.484375 -21.046875 
Q 16.21875 -21.046875 10.5 -16.875 
Q 4.78125 -12.703125 4.984375 -4.296875 
z
M 12.25 26.859375 
Q 12.25 16.65625 16.296875 11.96875 
Q 20.359375 7.28125 26.46875 7.28125 
Q 32.515625 7.28125 36.609375 11.9375 
Q 40.71875 16.609375 40.71875 26.5625 
Q 40.71875 36.078125 36.5 40.90625 
Q 32.28125 45.75 26.3125 45.75 
Q 20.453125 45.75 16.34375 40.984375 
Q 12.25 36.234375 12.25 26.859375 
z
" id="ArialMT-103"/>
       <path d="M 8.890625 0 
L 8.890625 10.015625 
L 18.890625 10.015625 
L 18.890625 0 
Q 18.890625 -5.515625 16.9375 -8.90625 
Q 14.984375 -12.3125 10.75 -14.15625 
L 8.296875 -10.40625 
Q 11.078125 -9.1875 12.390625 -6.8125 
Q 13.71875 -4.4375 13.875 0 
z
" id="ArialMT-44"/>
       <path d="M -0.140625 0 
L 27.34375 71.578125 
L 37.546875 71.578125 
L 66.84375 0 
L 56.0625 0 
L 47.703125 21.6875 
L 17.78125 21.6875 
L 9.90625 0 
z
M 20.515625 29.390625 
L 44.78125 29.390625 
L 37.3125 49.21875 
Q 33.890625 58.25 32.234375 64.0625 
Q 30.859375 57.171875 28.375 50.390625 
z
" id="ArialMT-65"/>
       <path d="M 54.6875 71.578125 
L 64.15625 71.578125 
L 64.15625 30.21875 
Q 64.15625 19.4375 61.71875 13.078125 
Q 59.28125 6.734375 52.90625 2.75 
Q 46.53125 -1.21875 36.1875 -1.21875 
Q 26.125 -1.21875 19.71875 2.25 
Q 13.328125 5.71875 10.59375 12.28125 
Q 7.859375 18.84375 7.859375 30.21875 
L 7.859375 71.578125 
L 17.328125 71.578125 
L 17.328125 30.28125 
Q 17.328125 20.953125 19.0625 16.53125 
Q 20.796875 12.109375 25.015625 9.71875 
Q 29.25 7.328125 35.359375 7.328125 
Q 45.796875 7.328125 50.234375 12.0625 
Q 54.6875 16.796875 54.6875 30.28125 
z
" id="ArialMT-85"/>
       <path d="M 58.796875 25.09375 
L 68.265625 22.703125 
Q 65.28125 11.03125 57.546875 4.90625 
Q 49.8125 -1.21875 38.625 -1.21875 
Q 27.046875 -1.21875 19.796875 3.484375 
Q 12.546875 8.203125 8.765625 17.140625 
Q 4.984375 26.078125 4.984375 36.328125 
Q 4.984375 47.515625 9.25 55.828125 
Q 13.53125 64.15625 21.40625 68.46875 
Q 29.296875 72.796875 38.765625 72.796875 
Q 49.515625 72.796875 56.828125 67.328125 
Q 64.15625 61.859375 67.046875 51.953125 
L 57.71875 49.75 
Q 55.21875 57.5625 50.484375 61.125 
Q 45.75 64.703125 38.578125 64.703125 
Q 30.328125 64.703125 24.78125 60.734375 
Q 19.234375 56.78125 16.984375 50.109375 
Q 14.75 43.453125 14.75 36.375 
Q 14.75 27.25 17.40625 20.4375 
Q 20.0625 13.625 25.671875 10.25 
Q 31.296875 6.890625 37.84375 6.890625 
Q 45.796875 6.890625 51.3125 11.46875 
Q 56.84375 16.0625 58.796875 25.09375 
z
" id="ArialMT-67"/>
       <path d="M 52.828125 42.09375 
L 5.5625 42.09375 
L 5.5625 50.296875 
L 52.828125 50.296875 
z
M 52.828125 20.359375 
L 5.5625 20.359375 
L 5.5625 28.5625 
L 52.828125 28.5625 
z
" id="ArialMT-61"/>
       <path d="M 4.734375 62.203125 
L 4.734375 70.65625 
L 51.078125 70.65625 
L 51.078125 63.8125 
Q 44.234375 56.546875 37.515625 44.484375 
Q 30.8125 32.421875 27.15625 19.671875 
Q 24.515625 10.6875 23.78125 0 
L 14.75 0 
Q 14.890625 8.453125 18.0625 20.40625 
Q 21.234375 32.375 27.171875 43.484375 
Q 33.109375 54.59375 39.796875 62.203125 
z
" id="ArialMT-55"/>
      </defs>
      <use xlink:href="#ArialMT-109"/>
      <use x="83.300781" xlink:href="#ArialMT-97"/>
      <use x="138.916016" xlink:href="#ArialMT-99"/>
      <use x="188.916016" xlink:href="#ArialMT-114"/>
      <use x="222.216797" xlink:href="#ArialMT-111"/>
      <use x="277.832031" xlink:href="#ArialMT-32"/>
      <use x="305.615234" xlink:href="#ArialMT-97"/>
      <use x="361.230469" xlink:href="#ArialMT-118"/>
      <use x="411.230469" xlink:href="#ArialMT-103"/>
      <use x="466.845703" xlink:href="#ArialMT-46"/>
      <use x="494.628906" xlink:href="#ArialMT-44"/>
      <use x="522.412109" xlink:href="#ArialMT-32"/>
      <use x="544.695312" xlink:href="#ArialMT-65"/>
      <use x="611.394531" xlink:href="#ArialMT-85"/>
      <use x="683.611328" xlink:href="#ArialMT-67"/>
      <use x="755.828125" xlink:href="#ArialMT-32"/>
      <use x="783.611328" xlink:href="#ArialMT-61"/>
      <use x="842.009766" xlink:href="#ArialMT-32"/>
      <use x="869.792969" xlink:href="#ArialMT-48"/>
      <use x="925.408203" xlink:href="#ArialMT-46"/>
      <use x="953.191406" xlink:href="#ArialMT-54"/>
      <use x="1008.806641" xlink:href="#ArialMT-55"/>
      <use x="1064.421875" xlink:href="#ArialMT-49"/>
     </g>
    </g>
    <g id="line2d_20">
     <path d="M 77.946562 95.616328 
L 110.946562 95.616328 
" style="fill:none;stroke:#dd8452;stroke-dasharray:9,3.375;stroke-dashoffset:0;stroke-width:2.25;"/>
    </g>
    <g id="line2d_21"/>
    <g id="text_18">
     <!-- micro avg., AUC = 0.865 -->
     <g style="fill:#262626;" transform="translate(124.146563 101.391328)scale(0.165 -0.165)">
      <defs>
       <path d="M 4.15625 18.75 
L 13.375 19.53125 
Q 14.40625 12.796875 18.140625 9.390625 
Q 21.875 6 27.15625 6 
Q 33.5 6 37.890625 10.78125 
Q 42.28125 15.578125 42.28125 23.484375 
Q 42.28125 31 38.0625 35.34375 
Q 33.84375 39.703125 27 39.703125 
Q 22.75 39.703125 19.328125 37.765625 
Q 15.921875 35.84375 13.96875 32.765625 
L 5.71875 33.84375 
L 12.640625 70.609375 
L 48.25 70.609375 
L 48.25 62.203125 
L 19.671875 62.203125 
L 15.828125 42.96875 
Q 22.265625 47.46875 29.34375 47.46875 
Q 38.71875 47.46875 45.15625 40.96875 
Q 51.609375 34.46875 51.609375 24.265625 
Q 51.609375 14.546875 45.953125 7.46875 
Q 39.0625 -1.21875 27.15625 -1.21875 
Q 17.390625 -1.21875 11.203125 4.25 
Q 5.03125 9.71875 4.15625 18.75 
z
" id="ArialMT-53"/>
      </defs>
      <use xlink:href="#ArialMT-109"/>
      <use x="83.300781" xlink:href="#ArialMT-105"/>
      <use x="105.517578" xlink:href="#ArialMT-99"/>
      <use x="155.517578" xlink:href="#ArialMT-114"/>
      <use x="188.818359" xlink:href="#ArialMT-111"/>
      <use x="244.433594" xlink:href="#ArialMT-32"/>
      <use x="272.216797" xlink:href="#ArialMT-97"/>
      <use x="327.832031" xlink:href="#ArialMT-118"/>
      <use x="377.832031" xlink:href="#ArialMT-103"/>
      <use x="433.447266" xlink:href="#ArialMT-46"/>
      <use x="461.230469" xlink:href="#ArialMT-44"/>
      <use x="489.013672" xlink:href="#ArialMT-32"/>
      <use x="511.296875" xlink:href="#ArialMT-65"/>
      <use x="577.996094" xlink:href="#ArialMT-85"/>
      <use x="650.212891" xlink:href="#ArialMT-67"/>
      <use x="722.429688" xlink:href="#ArialMT-32"/>
      <use x="750.212891" xlink:href="#ArialMT-61"/>
      <use x="808.611328" xlink:href="#ArialMT-32"/>
      <use x="836.394531" xlink:href="#ArialMT-48"/>
      <use x="892.009766" xlink:href="#ArialMT-46"/>
      <use x="919.792969" xlink:href="#ArialMT-56"/>
      <use x="975.408203" xlink:href="#ArialMT-54"/>
      <use x="1031.023438" xlink:href="#ArialMT-53"/>
     </g>
    </g>
   </g>
  </g>
 </g>
 <defs>
  <clipPath id="p104cd83890">
   <rect height="521.856" width="714.24" x="63.096563" y="26.084062"/>
  </clipPath>
 </defs>
</svg>
