<?xml version="1.0" encoding="utf-8" standalone="no"?>
<!DOCTYPE svg PUBLIC "-//W3C//DTD SVG 1.1//EN"
  "http://www.w3.org/Graphics/SVG/1.1/DTD/svg11.dtd">
<!-- Created with matplotlib (https://matplotlib.org/) -->
<svg height="603.641391pt" version="1.1" viewBox="0 0 784.536562 603.641391" width="784.536562pt" xmlns="http://www.w3.org/2000/svg" xmlns:xlink="http://www.w3.org/1999/xlink">
 <metadata>
  <rdf:RDF xmlns:cc="http://creativecommons.org/ns#" xmlns:dc="http://purl.org/dc/elements/1.1/" xmlns:rdf="http://www.w3.org/1999/02/22-rdf-syntax-ns#">
   <cc:Work>
    <dc:type rdf:resource="http://purl.org/dc/dcmitype/StillImage"/>
    <dc:date>2021-07-16T14:27:44.736343</dc:date>
    <dc:format>image/svg+xml</dc:format>
    <dc:creator>
     <cc:Agent>
      <dc:title>Matplotlib v3.3.3, https://matplotlib.org/</dc:title>
     </cc:Agent>
    </dc:creator>
   </cc:Work>
  </rdf:RDF>
 </metadata>
 <defs>
  <style type="text/css">*{stroke-linecap:butt;stroke-linejoin:round;}</style>
 </defs>
 <g id="figure_1">
  <g id="patch_1">
   <path d="M 0 603.641391 
L 784.536562 603.641391 
L 784.536562 0 
L 0 0 
z
" style="fill:#ffffff;"/>
  </g>
  <g id="axes_1">
   <g id="patch_2">
    <path d="M 63.096563 548.170687 
L 777.336563 548.170687 
L 777.336563 26.314687 
L 63.096563 26.314687 
z
" style="fill:#eaeaf2;"/>
   </g>
   <g id="matplotlib.axis_1">
    <g id="xtick_1">
     <g id="line2d_1">
      <path clip-path="url(#pcb3d894445)" d="M 95.562017 548.170687 
L 95.562017 26.314687 
" style="fill:none;stroke:#ffffff;stroke-linecap:round;stroke-width:1.5;"/>
     </g>
     <g id="text_1">
      <!-- 0.0 -->
      <g style="fill:#262626;" transform="translate(84.094517 572.481078)scale(0.165 -0.165)">
       <defs>
        <path d="M 4.15625 35.296875 
Q 4.15625 48 6.765625 55.734375 
Q 9.375 63.484375 14.515625 67.671875 
Q 19.671875 71.875 27.484375 71.875 
Q 33.25 71.875 37.59375 69.546875 
Q 41.9375 67.234375 44.765625 62.859375 
Q 47.609375 58.5 49.21875 52.21875 
Q 50.828125 45.953125 50.828125 35.296875 
Q 50.828125 22.703125 48.234375 14.96875 
Q 45.65625 7.234375 40.5 3 
Q 35.359375 -1.21875 27.484375 -1.21875 
Q 17.140625 -1.21875 11.234375 6.203125 
Q 4.15625 15.140625 4.15625 35.296875 
z
M 13.1875 35.296875 
Q 13.1875 17.671875 17.3125 11.828125 
Q 21.4375 6 27.484375 6 
Q 33.546875 6 37.671875 11.859375 
Q 41.796875 17.71875 41.796875 35.296875 
Q 41.796875 52.984375 37.671875 58.78125 
Q 33.546875 64.59375 27.390625 64.59375 
Q 21.34375 64.59375 17.71875 59.46875 
Q 13.1875 52.9375 13.1875 35.296875 
z
" id="ArialMT-48"/>
        <path d="M 9.078125 0 
L 9.078125 10.015625 
L 19.09375 10.015625 
L 19.09375 0 
z
" id="ArialMT-46"/>
       </defs>
       <use xlink:href="#ArialMT-48"/>
       <use x="55.615234" xlink:href="#ArialMT-46"/>
       <use x="83.398438" xlink:href="#ArialMT-48"/>
      </g>
     </g>
    </g>
    <g id="xtick_2">
     <g id="line2d_2">
      <path clip-path="url(#pcb3d894445)" d="M 225.423835 548.170687 
L 225.423835 26.314687 
" style="fill:none;stroke:#ffffff;stroke-linecap:round;stroke-width:1.5;"/>
     </g>
     <g id="text_2">
      <!-- 0.2 -->
      <g style="fill:#262626;" transform="translate(213.956335 572.481078)scale(0.165 -0.165)">
       <defs>
        <path d="M 50.34375 8.453125 
L 50.34375 0 
L 3.03125 0 
Q 2.9375 3.171875 4.046875 6.109375 
Q 5.859375 10.9375 9.828125 15.625 
Q 13.8125 20.3125 21.34375 26.46875 
Q 33.015625 36.03125 37.109375 41.625 
Q 41.21875 47.21875 41.21875 52.203125 
Q 41.21875 57.421875 37.46875 61 
Q 33.734375 64.59375 27.734375 64.59375 
Q 21.390625 64.59375 17.578125 60.78125 
Q 13.765625 56.984375 13.71875 50.25 
L 4.6875 51.171875 
Q 5.609375 61.28125 11.65625 66.578125 
Q 17.71875 71.875 27.9375 71.875 
Q 38.234375 71.875 44.234375 66.15625 
Q 50.25 60.453125 50.25 52 
Q 50.25 47.703125 48.484375 43.546875 
Q 46.734375 39.40625 42.65625 34.8125 
Q 38.578125 30.21875 29.109375 22.21875 
Q 21.1875 15.578125 18.9375 13.203125 
Q 16.703125 10.84375 15.234375 8.453125 
z
" id="ArialMT-50"/>
       </defs>
       <use xlink:href="#ArialMT-48"/>
       <use x="55.615234" xlink:href="#ArialMT-46"/>
       <use x="83.398438" xlink:href="#ArialMT-50"/>
      </g>
     </g>
    </g>
    <g id="xtick_3">
     <g id="line2d_3">
      <path clip-path="url(#pcb3d894445)" d="M 355.285653 548.170687 
L 355.285653 26.314687 
" style="fill:none;stroke:#ffffff;stroke-linecap:round;stroke-width:1.5;"/>
     </g>
     <g id="text_3">
      <!-- 0.4 -->
      <g style="fill:#262626;" transform="translate(343.818153 572.481078)scale(0.165 -0.165)">
       <defs>
        <path d="M 32.328125 0 
L 32.328125 17.140625 
L 1.265625 17.140625 
L 1.265625 25.203125 
L 33.9375 71.578125 
L 41.109375 71.578125 
L 41.109375 25.203125 
L 50.78125 25.203125 
L 50.78125 17.140625 
L 41.109375 17.140625 
L 41.109375 0 
z
M 32.328125 25.203125 
L 32.328125 57.46875 
L 9.90625 25.203125 
z
" id="ArialMT-52"/>
       </defs>
       <use xlink:href="#ArialMT-48"/>
       <use x="55.615234" xlink:href="#ArialMT-46"/>
       <use x="83.398438" xlink:href="#ArialMT-52"/>
      </g>
     </g>
    </g>
    <g id="xtick_4">
     <g id="line2d_4">
      <path clip-path="url(#pcb3d894445)" d="M 485.147472 548.170687 
L 485.147472 26.314687 
" style="fill:none;stroke:#ffffff;stroke-linecap:round;stroke-width:1.5;"/>
     </g>
     <g id="text_4">
      <!-- 0.6 -->
      <g style="fill:#262626;" transform="translate(473.679972 572.481078)scale(0.165 -0.165)">
       <defs>
        <path d="M 49.75 54.046875 
L 41.015625 53.375 
Q 39.84375 58.546875 37.703125 60.890625 
Q 34.125 64.65625 28.90625 64.65625 
Q 24.703125 64.65625 21.53125 62.3125 
Q 17.390625 59.28125 14.984375 53.46875 
Q 12.59375 47.65625 12.5 36.921875 
Q 15.671875 41.75 20.265625 44.09375 
Q 24.859375 46.4375 29.890625 46.4375 
Q 38.671875 46.4375 44.84375 39.96875 
Q 51.03125 33.5 51.03125 23.25 
Q 51.03125 16.5 48.125 10.71875 
Q 45.21875 4.9375 40.140625 1.859375 
Q 35.0625 -1.21875 28.609375 -1.21875 
Q 17.625 -1.21875 10.6875 6.859375 
Q 3.765625 14.9375 3.765625 33.5 
Q 3.765625 54.25 11.421875 63.671875 
Q 18.109375 71.875 29.4375 71.875 
Q 37.890625 71.875 43.28125 67.140625 
Q 48.6875 62.40625 49.75 54.046875 
z
M 13.875 23.1875 
Q 13.875 18.65625 15.796875 14.5 
Q 17.71875 10.359375 21.1875 8.171875 
Q 24.65625 6 28.46875 6 
Q 34.03125 6 38.03125 10.484375 
Q 42.046875 14.984375 42.046875 22.703125 
Q 42.046875 30.125 38.078125 34.390625 
Q 34.125 38.671875 28.125 38.671875 
Q 22.171875 38.671875 18.015625 34.390625 
Q 13.875 30.125 13.875 23.1875 
z
" id="ArialMT-54"/>
       </defs>
       <use xlink:href="#ArialMT-48"/>
       <use x="55.615234" xlink:href="#ArialMT-46"/>
       <use x="83.398438" xlink:href="#ArialMT-54"/>
      </g>
     </g>
    </g>
    <g id="xtick_5">
     <g id="line2d_5">
      <path clip-path="url(#pcb3d894445)" d="M 615.00929 548.170687 
L 615.00929 26.314687 
" style="fill:none;stroke:#ffffff;stroke-linecap:round;stroke-width:1.5;"/>
     </g>
     <g id="text_5">
      <!-- 0.8 -->
      <g style="fill:#262626;" transform="translate(603.54179 572.481078)scale(0.165 -0.165)">
       <defs>
        <path d="M 17.671875 38.8125 
Q 12.203125 40.828125 9.5625 44.53125 
Q 6.9375 48.25 6.9375 53.421875 
Q 6.9375 61.234375 12.546875 66.546875 
Q 18.171875 71.875 27.484375 71.875 
Q 36.859375 71.875 42.578125 66.421875 
Q 48.296875 60.984375 48.296875 53.171875 
Q 48.296875 48.1875 45.671875 44.5 
Q 43.0625 40.828125 37.75 38.8125 
Q 44.34375 36.671875 47.78125 31.875 
Q 51.21875 27.09375 51.21875 20.453125 
Q 51.21875 11.28125 44.71875 5.03125 
Q 38.234375 -1.21875 27.640625 -1.21875 
Q 17.046875 -1.21875 10.546875 5.046875 
Q 4.046875 11.328125 4.046875 20.703125 
Q 4.046875 27.6875 7.59375 32.390625 
Q 11.140625 37.109375 17.671875 38.8125 
z
M 15.921875 53.71875 
Q 15.921875 48.640625 19.1875 45.40625 
Q 22.46875 42.1875 27.6875 42.1875 
Q 32.765625 42.1875 36.015625 45.375 
Q 39.265625 48.578125 39.265625 53.21875 
Q 39.265625 58.0625 35.90625 61.359375 
Q 32.5625 64.65625 27.59375 64.65625 
Q 22.5625 64.65625 19.234375 61.421875 
Q 15.921875 58.203125 15.921875 53.71875 
z
M 13.09375 20.65625 
Q 13.09375 16.890625 14.875 13.375 
Q 16.65625 9.859375 20.171875 7.921875 
Q 23.6875 6 27.734375 6 
Q 34.03125 6 38.125 10.046875 
Q 42.234375 14.109375 42.234375 20.359375 
Q 42.234375 26.703125 38.015625 30.859375 
Q 33.796875 35.015625 27.4375 35.015625 
Q 21.234375 35.015625 17.15625 30.90625 
Q 13.09375 26.8125 13.09375 20.65625 
z
" id="ArialMT-56"/>
       </defs>
       <use xlink:href="#ArialMT-48"/>
       <use x="55.615234" xlink:href="#ArialMT-46"/>
       <use x="83.398438" xlink:href="#ArialMT-56"/>
      </g>
     </g>
    </g>
    <g id="xtick_6">
     <g id="line2d_6">
      <path clip-path="url(#pcb3d894445)" d="M 744.871108 548.170687 
L 744.871108 26.314687 
" style="fill:none;stroke:#ffffff;stroke-linecap:round;stroke-width:1.5;"/>
     </g>
     <g id="text_6">
      <!-- 1.0 -->
      <g style="fill:#262626;" transform="translate(733.403608 572.481078)scale(0.165 -0.165)">
       <defs>
        <path d="M 37.25 0 
L 28.46875 0 
L 28.46875 56 
Q 25.296875 52.984375 20.140625 49.953125 
Q 14.984375 46.921875 10.890625 45.40625 
L 10.890625 53.90625 
Q 18.265625 57.375 23.78125 62.296875 
Q 29.296875 67.234375 31.59375 71.875 
L 37.25 71.875 
z
" id="ArialMT-49"/>
       </defs>
       <use xlink:href="#ArialMT-49"/>
       <use x="55.615234" xlink:href="#ArialMT-46"/>
       <use x="83.398438" xlink:href="#ArialMT-48"/>
      </g>
     </g>
    </g>
    <g id="text_7">
     <!-- false positive rate -->
     <g style="fill:#262626;" transform="translate(350.185313 592.863891)scale(0.18 -0.18)">
      <defs>
       <path d="M 8.6875 0 
L 8.6875 45.015625 
L 0.921875 45.015625 
L 0.921875 51.859375 
L 8.6875 51.859375 
L 8.6875 57.375 
Q 8.6875 62.59375 9.625 65.140625 
Q 10.890625 68.5625 14.078125 70.671875 
Q 17.28125 72.796875 23.046875 72.796875 
Q 26.765625 72.796875 31.25 71.921875 
L 29.9375 64.265625 
Q 27.203125 64.75 24.75 64.75 
Q 20.75 64.75 19.09375 63.03125 
Q 17.4375 61.328125 17.4375 56.640625 
L 17.4375 51.859375 
L 27.546875 51.859375 
L 27.546875 45.015625 
L 17.4375 45.015625 
L 17.4375 0 
z
" id="ArialMT-102"/>
       <path d="M 40.4375 6.390625 
Q 35.546875 2.25 31.03125 0.53125 
Q 26.515625 -1.171875 21.34375 -1.171875 
Q 12.796875 -1.171875 8.203125 3 
Q 3.609375 7.171875 3.609375 13.671875 
Q 3.609375 17.484375 5.34375 20.625 
Q 7.078125 23.78125 9.890625 25.6875 
Q 12.703125 27.59375 16.21875 28.5625 
Q 18.796875 29.25 24.03125 29.890625 
Q 34.671875 31.15625 39.703125 32.90625 
Q 39.75 34.71875 39.75 35.203125 
Q 39.75 40.578125 37.25 42.78125 
Q 33.890625 45.75 27.25 45.75 
Q 21.046875 45.75 18.09375 43.578125 
Q 15.140625 41.40625 13.71875 35.890625 
L 5.125 37.0625 
Q 6.296875 42.578125 8.984375 45.96875 
Q 11.671875 49.359375 16.75 51.1875 
Q 21.828125 53.03125 28.515625 53.03125 
Q 35.15625 53.03125 39.296875 51.46875 
Q 43.453125 49.90625 45.40625 47.53125 
Q 47.359375 45.171875 48.140625 41.546875 
Q 48.578125 39.3125 48.578125 33.453125 
L 48.578125 21.734375 
Q 48.578125 9.46875 49.140625 6.21875 
Q 49.703125 2.984375 51.375 0 
L 42.1875 0 
Q 40.828125 2.734375 40.4375 6.390625 
z
M 39.703125 26.03125 
Q 34.90625 24.078125 25.34375 22.703125 
Q 19.921875 21.921875 17.671875 20.9375 
Q 15.4375 19.96875 14.203125 18.09375 
Q 12.984375 16.21875 12.984375 13.921875 
Q 12.984375 10.40625 15.640625 8.0625 
Q 18.3125 5.71875 23.4375 5.71875 
Q 28.515625 5.71875 32.46875 7.9375 
Q 36.421875 10.15625 38.28125 14.015625 
Q 39.703125 17 39.703125 22.796875 
z
" id="ArialMT-97"/>
       <path d="M 6.390625 0 
L 6.390625 71.578125 
L 15.1875 71.578125 
L 15.1875 0 
z
" id="ArialMT-108"/>
       <path d="M 3.078125 15.484375 
L 11.765625 16.84375 
Q 12.5 11.625 15.84375 8.84375 
Q 19.1875 6.0625 25.203125 6.0625 
Q 31.25 6.0625 34.171875 8.515625 
Q 37.109375 10.984375 37.109375 14.3125 
Q 37.109375 17.28125 34.515625 19 
Q 32.71875 20.171875 25.53125 21.96875 
Q 15.875 24.421875 12.140625 26.203125 
Q 8.40625 27.984375 6.46875 31.125 
Q 4.546875 34.28125 4.546875 38.09375 
Q 4.546875 41.546875 6.125 44.5 
Q 7.71875 47.46875 10.453125 49.421875 
Q 12.5 50.921875 16.03125 51.96875 
Q 19.578125 53.03125 23.640625 53.03125 
Q 29.734375 53.03125 34.34375 51.265625 
Q 38.96875 49.515625 41.15625 46.5 
Q 43.359375 43.5 44.1875 38.484375 
L 35.59375 37.3125 
Q 35.015625 41.3125 32.203125 43.546875 
Q 29.390625 45.796875 24.265625 45.796875 
Q 18.21875 45.796875 15.625 43.796875 
Q 13.03125 41.796875 13.03125 39.109375 
Q 13.03125 37.40625 14.109375 36.03125 
Q 15.1875 34.625 17.484375 33.6875 
Q 18.796875 33.203125 25.25 31.453125 
Q 34.578125 28.953125 38.25 27.359375 
Q 41.9375 25.78125 44.03125 22.75 
Q 46.140625 19.734375 46.140625 15.234375 
Q 46.140625 10.84375 43.578125 6.953125 
Q 41.015625 3.078125 36.171875 0.953125 
Q 31.34375 -1.171875 25.25 -1.171875 
Q 15.140625 -1.171875 9.84375 3.03125 
Q 4.546875 7.234375 3.078125 15.484375 
z
" id="ArialMT-115"/>
       <path d="M 42.09375 16.703125 
L 51.171875 15.578125 
Q 49.03125 7.625 43.21875 3.21875 
Q 37.40625 -1.171875 28.375 -1.171875 
Q 17 -1.171875 10.328125 5.828125 
Q 3.65625 12.84375 3.65625 25.484375 
Q 3.65625 38.578125 10.390625 45.796875 
Q 17.140625 53.03125 27.875 53.03125 
Q 38.28125 53.03125 44.875 45.953125 
Q 51.46875 38.875 51.46875 26.03125 
Q 51.46875 25.25 51.421875 23.6875 
L 12.75 23.6875 
Q 13.234375 15.140625 17.578125 10.59375 
Q 21.921875 6.0625 28.421875 6.0625 
Q 33.25 6.0625 36.671875 8.59375 
Q 40.09375 11.140625 42.09375 16.703125 
z
M 13.234375 30.90625 
L 42.1875 30.90625 
Q 41.609375 37.453125 38.875 40.71875 
Q 34.671875 45.796875 27.984375 45.796875 
Q 21.921875 45.796875 17.796875 41.75 
Q 13.671875 37.703125 13.234375 30.90625 
z
" id="ArialMT-101"/>
       <path id="ArialMT-32"/>
       <path d="M 6.59375 -19.875 
L 6.59375 51.859375 
L 14.59375 51.859375 
L 14.59375 45.125 
Q 17.4375 49.078125 21 51.046875 
Q 24.5625 53.03125 29.640625 53.03125 
Q 36.28125 53.03125 41.359375 49.609375 
Q 46.4375 46.1875 49.015625 39.953125 
Q 51.609375 33.734375 51.609375 26.3125 
Q 51.609375 18.359375 48.75 11.984375 
Q 45.90625 5.609375 40.453125 2.21875 
Q 35.015625 -1.171875 29 -1.171875 
Q 24.609375 -1.171875 21.109375 0.6875 
Q 17.625 2.546875 15.375 5.375 
L 15.375 -19.875 
z
M 14.546875 25.640625 
Q 14.546875 15.625 18.59375 10.84375 
Q 22.65625 6.0625 28.421875 6.0625 
Q 34.28125 6.0625 38.453125 11.015625 
Q 42.625 15.96875 42.625 26.375 
Q 42.625 36.28125 38.546875 41.203125 
Q 34.46875 46.140625 28.8125 46.140625 
Q 23.1875 46.140625 18.859375 40.890625 
Q 14.546875 35.640625 14.546875 25.640625 
z
" id="ArialMT-112"/>
       <path d="M 3.328125 25.921875 
Q 3.328125 40.328125 11.328125 47.265625 
Q 18.015625 53.03125 27.640625 53.03125 
Q 38.328125 53.03125 45.109375 46.015625 
Q 51.90625 39.015625 51.90625 26.65625 
Q 51.90625 16.65625 48.90625 10.90625 
Q 45.90625 5.171875 40.15625 2 
Q 34.421875 -1.171875 27.640625 -1.171875 
Q 16.75 -1.171875 10.03125 5.8125 
Q 3.328125 12.796875 3.328125 25.921875 
z
M 12.359375 25.921875 
Q 12.359375 15.96875 16.703125 11.015625 
Q 21.046875 6.0625 27.640625 6.0625 
Q 34.1875 6.0625 38.53125 11.03125 
Q 42.875 16.015625 42.875 26.21875 
Q 42.875 35.84375 38.5 40.796875 
Q 34.125 45.75 27.640625 45.75 
Q 21.046875 45.75 16.703125 40.8125 
Q 12.359375 35.890625 12.359375 25.921875 
z
" id="ArialMT-111"/>
       <path d="M 6.640625 61.46875 
L 6.640625 71.578125 
L 15.4375 71.578125 
L 15.4375 61.46875 
z
M 6.640625 0 
L 6.640625 51.859375 
L 15.4375 51.859375 
L 15.4375 0 
z
" id="ArialMT-105"/>
       <path d="M 25.78125 7.859375 
L 27.046875 0.09375 
Q 23.34375 -0.6875 20.40625 -0.6875 
Q 15.625 -0.6875 12.984375 0.828125 
Q 10.359375 2.34375 9.28125 4.8125 
Q 8.203125 7.28125 8.203125 15.1875 
L 8.203125 45.015625 
L 1.765625 45.015625 
L 1.765625 51.859375 
L 8.203125 51.859375 
L 8.203125 64.703125 
L 16.9375 69.96875 
L 16.9375 51.859375 
L 25.78125 51.859375 
L 25.78125 45.015625 
L 16.9375 45.015625 
L 16.9375 14.703125 
Q 16.9375 10.9375 17.40625 9.859375 
Q 17.875 8.796875 18.921875 8.15625 
Q 19.96875 7.515625 21.921875 7.515625 
Q 23.390625 7.515625 25.78125 7.859375 
z
" id="ArialMT-116"/>
       <path d="M 21 0 
L 1.265625 51.859375 
L 10.546875 51.859375 
L 21.6875 20.796875 
Q 23.484375 15.765625 25 10.359375 
Q 26.171875 14.453125 28.265625 20.21875 
L 39.796875 51.859375 
L 48.828125 51.859375 
L 29.203125 0 
z
" id="ArialMT-118"/>
       <path d="M 6.5 0 
L 6.5 51.859375 
L 14.40625 51.859375 
L 14.40625 44 
Q 17.4375 49.515625 20 51.265625 
Q 22.5625 53.03125 25.640625 53.03125 
Q 30.078125 53.03125 34.671875 50.203125 
L 31.640625 42.046875 
Q 28.421875 43.953125 25.203125 43.953125 
Q 22.3125 43.953125 20.015625 42.21875 
Q 17.71875 40.484375 16.75 37.40625 
Q 15.28125 32.71875 15.28125 27.15625 
L 15.28125 0 
z
" id="ArialMT-114"/>
      </defs>
      <use xlink:href="#ArialMT-102"/>
      <use x="27.783203" xlink:href="#ArialMT-97"/>
      <use x="83.398438" xlink:href="#ArialMT-108"/>
      <use x="105.615234" xlink:href="#ArialMT-115"/>
      <use x="155.615234" xlink:href="#ArialMT-101"/>
      <use x="211.230469" xlink:href="#ArialMT-32"/>
      <use x="239.013672" xlink:href="#ArialMT-112"/>
      <use x="294.628906" xlink:href="#ArialMT-111"/>
      <use x="350.244141" xlink:href="#ArialMT-115"/>
      <use x="400.244141" xlink:href="#ArialMT-105"/>
      <use x="422.460938" xlink:href="#ArialMT-116"/>
      <use x="450.244141" xlink:href="#ArialMT-105"/>
      <use x="472.460938" xlink:href="#ArialMT-118"/>
      <use x="522.460938" xlink:href="#ArialMT-101"/>
      <use x="578.076172" xlink:href="#ArialMT-32"/>
      <use x="605.859375" xlink:href="#ArialMT-114"/>
      <use x="639.160156" xlink:href="#ArialMT-97"/>
      <use x="694.775391" xlink:href="#ArialMT-116"/>
      <use x="722.558594" xlink:href="#ArialMT-101"/>
     </g>
    </g>
   </g>
   <g id="matplotlib.axis_2">
    <g id="ytick_1">
     <g id="line2d_7">
      <path clip-path="url(#pcb3d894445)" d="M 63.096563 524.44996 
L 777.336563 524.44996 
" style="fill:none;stroke:#ffffff;stroke-linecap:round;stroke-width:1.5;"/>
     </g>
     <g id="text_8">
      <!-- 0.0 -->
      <g style="fill:#262626;" transform="translate(27.661563 530.355156)scale(0.165 -0.165)">
       <use xlink:href="#ArialMT-48"/>
       <use x="55.615234" xlink:href="#ArialMT-46"/>
       <use x="83.398438" xlink:href="#ArialMT-48"/>
      </g>
     </g>
    </g>
    <g id="ytick_2">
     <g id="line2d_8">
      <path clip-path="url(#pcb3d894445)" d="M 63.096563 429.567051 
L 777.336563 429.567051 
" style="fill:none;stroke:#ffffff;stroke-linecap:round;stroke-width:1.5;"/>
     </g>
     <g id="text_9">
      <!-- 0.2 -->
      <g style="fill:#262626;" transform="translate(27.661563 435.472246)scale(0.165 -0.165)">
       <use xlink:href="#ArialMT-48"/>
       <use x="55.615234" xlink:href="#ArialMT-46"/>
       <use x="83.398438" xlink:href="#ArialMT-50"/>
      </g>
     </g>
    </g>
    <g id="ytick_3">
     <g id="line2d_9">
      <path clip-path="url(#pcb3d894445)" d="M 63.096563 334.684142 
L 777.336563 334.684142 
" style="fill:none;stroke:#ffffff;stroke-linecap:round;stroke-width:1.5;"/>
     </g>
     <g id="text_10">
      <!-- 0.4 -->
      <g style="fill:#262626;" transform="translate(27.661563 340.589337)scale(0.165 -0.165)">
       <use xlink:href="#ArialMT-48"/>
       <use x="55.615234" xlink:href="#ArialMT-46"/>
       <use x="83.398438" xlink:href="#ArialMT-52"/>
      </g>
     </g>
    </g>
    <g id="ytick_4">
     <g id="line2d_10">
      <path clip-path="url(#pcb3d894445)" d="M 63.096563 239.801233 
L 777.336563 239.801233 
" style="fill:none;stroke:#ffffff;stroke-linecap:round;stroke-width:1.5;"/>
     </g>
     <g id="text_11">
      <!-- 0.6 -->
      <g style="fill:#262626;" transform="translate(27.661563 245.706428)scale(0.165 -0.165)">
       <use xlink:href="#ArialMT-48"/>
       <use x="55.615234" xlink:href="#ArialMT-46"/>
       <use x="83.398438" xlink:href="#ArialMT-54"/>
      </g>
     </g>
    </g>
    <g id="ytick_5">
     <g id="line2d_11">
      <path clip-path="url(#pcb3d894445)" d="M 63.096563 144.918324 
L 777.336563 144.918324 
" style="fill:none;stroke:#ffffff;stroke-linecap:round;stroke-width:1.5;"/>
     </g>
     <g id="text_12">
      <!-- 0.8 -->
      <g style="fill:#262626;" transform="translate(27.661563 150.823519)scale(0.165 -0.165)">
       <use xlink:href="#ArialMT-48"/>
       <use x="55.615234" xlink:href="#ArialMT-46"/>
       <use x="83.398438" xlink:href="#ArialMT-56"/>
      </g>
     </g>
    </g>
    <g id="ytick_6">
     <g id="line2d_12">
      <path clip-path="url(#pcb3d894445)" d="M 63.096563 50.035415 
L 777.336563 50.035415 
" style="fill:none;stroke:#ffffff;stroke-linecap:round;stroke-width:1.5;"/>
     </g>
     <g id="text_13">
      <!-- 1.0 -->
      <g style="fill:#262626;" transform="translate(27.661563 55.94061)scale(0.165 -0.165)">
       <use xlink:href="#ArialMT-49"/>
       <use x="55.615234" xlink:href="#ArialMT-46"/>
       <use x="83.398438" xlink:href="#ArialMT-48"/>
      </g>
     </g>
    </g>
    <g id="text_14">
     <!-- true positive rate -->
     <g style="fill:#262626;" transform="translate(20.084062 353.770969)rotate(-90)scale(0.18 -0.18)">
      <defs>
       <path d="M 40.578125 0 
L 40.578125 7.625 
Q 34.515625 -1.171875 24.125 -1.171875 
Q 19.53125 -1.171875 15.546875 0.578125 
Q 11.578125 2.34375 9.640625 5 
Q 7.71875 7.671875 6.9375 11.53125 
Q 6.390625 14.109375 6.390625 19.734375 
L 6.390625 51.859375 
L 15.1875 51.859375 
L 15.1875 23.09375 
Q 15.1875 16.21875 15.71875 13.8125 
Q 16.546875 10.359375 19.234375 8.375 
Q 21.921875 6.390625 25.875 6.390625 
Q 29.828125 6.390625 33.296875 8.421875 
Q 36.765625 10.453125 38.203125 13.9375 
Q 39.65625 17.4375 39.65625 24.078125 
L 39.65625 51.859375 
L 48.4375 51.859375 
L 48.4375 0 
z
" id="ArialMT-117"/>
      </defs>
      <use xlink:href="#ArialMT-116"/>
      <use x="27.783203" xlink:href="#ArialMT-114"/>
      <use x="61.083984" xlink:href="#ArialMT-117"/>
      <use x="116.699219" xlink:href="#ArialMT-101"/>
      <use x="172.314453" xlink:href="#ArialMT-32"/>
      <use x="200.097656" xlink:href="#ArialMT-112"/>
      <use x="255.712891" xlink:href="#ArialMT-111"/>
      <use x="311.328125" xlink:href="#ArialMT-115"/>
      <use x="361.328125" xlink:href="#ArialMT-105"/>
      <use x="383.544922" xlink:href="#ArialMT-116"/>
      <use x="411.328125" xlink:href="#ArialMT-105"/>
      <use x="433.544922" xlink:href="#ArialMT-118"/>
      <use x="483.544922" xlink:href="#ArialMT-101"/>
      <use x="539.160156" xlink:href="#ArialMT-32"/>
      <use x="566.943359" xlink:href="#ArialMT-114"/>
      <use x="600.244141" xlink:href="#ArialMT-97"/>
      <use x="655.859375" xlink:href="#ArialMT-116"/>
      <use x="683.642578" xlink:href="#ArialMT-101"/>
     </g>
    </g>
   </g>
   <g id="line2d_13">
    <path clip-path="url(#pcb3d894445)" d="M 95.562017 524.44996 
L 744.871108 50.035415 
" style="fill:none;stroke:#000000;stroke-dasharray:14.4,3.6,2.25,3.6;stroke-dashoffset:0;stroke-width:2.25;"/>
   </g>
   <g id="line2d_14">
    <path clip-path="url(#pcb3d894445)" d="M 95.562017 482.343769 
L 95.692243 482.343769 
L 95.70385 468.811373 
L 95.824099 459.991886 
L 95.987514 443.400967 
L 96.271179 440.403087 
L 96.609924 417.672616 
L 96.696677 417.391565 
L 96.872429 401.956239 
L 96.980342 392.49418 
L 97.122174 391.463658 
L 97.134511 387.295294 
L 97.264865 386.639508 
L 97.274886 385.211871 
L 97.547672 380.893525 
L 97.657407 380.893525 
L 97.65783 379.974117 
L 97.919331 370.655338 
L 97.973169 370.280603 
L 98.559029 370.280603 
L 98.965997 363.282857 
L 99.097988 363.282857 
L 99.202517 355.850612 
L 99.338584 355.850612 
L 99.391494 347.722303 
L 99.599037 347.534936 
L 99.675159 345.134017 
L 99.852606 344.665598 
L 99.882888 343.701341 
L 100.252992 343.701341 
L 100.383297 340.877445 
L 100.643906 340.877445 
L 100.805781 340.328354 
L 101.034821 340.328354 
L 101.199063 337.581638 
L 101.295431 337.581638 
L 101.720953 333.126157 
L 101.812887 330.302261 
L 102.114076 328.459458 
L 102.241074 328.459458 
L 102.242421 327.54005 
L 102.894404 327.54005 
L 103.031365 326.112414 
L 103.623123 326.112414 
L 103.731084 324.722162 
L 103.945269 323.802754 
L 104.865941 322.924209 
L 105.64405 318.536208 
L 105.648118 317.6168 
L 105.779106 316.697392 
L 105.833426 303.519211 
L 106.038969 303.519211 
L 106.041082 302.599803 
L 106.294399 302.599803 
L 106.300893 301.635545 
L 106.498026 299.752948 
L 106.761545 299.752948 
L 107.050448 297.914132 
L 107.229392 291.325041 
L 107.39364 290.77595 
L 107.653676 290.77595 
L 107.741474 289.834651 
L 107.748848 287.11729 
L 107.901443 287.11729 
L 108.079136 286.568199 
L 108.185108 284.725396 
L 108.324209 284.725396 
L 108.606173 282.158716 
L 108.975342 282.158716 
L 109.053814 279.833154 
L 109.179308 279.833154 
L 109.235795 278.954609 
L 109.319768 278.954609 
L 109.321342 276.318972 
L 109.473926 276.318972 
L 109.577767 273.516967 
L 109.733962 265.699122 
L 109.923764 265.699122 
L 109.964921 264.734865 
L 110.187283 264.734865 
L 110.41677 262.409303 
L 110.846078 262.409303 
L 110.88765 260.570487 
L 111.980429 260.570487 
L 112.197533 258.70978 
L 112.558947 258.160689 
L 112.723747 257.196432 
L 113.24544 257.196432 
L 113.481261 255.727933 
L 114.008298 255.178842 
L 114.42053 255.178842 
L 114.555323 253.340026 
L 114.667094 251.033844 
L 115.19413 251.033844 
L 115.23805 248.708283 
L 115.49866 248.159192 
L 115.611319 247.280647 
L 115.974818 247.280647 
L 116.234854 244.955085 
L 116.379963 244.955085 
L 116.541099 240.868955 
L 116.773566 239.904698 
L 117.453233 239.904698 
L 117.559179 238.940441 
L 117.565795 237.293168 
L 117.829313 237.293168 
L 117.848015 234.967606 
L 118.597373 234.967606 
L 118.765673 232.613098 
L 119.135159 232.613098 
L 119.248041 230.287536 
L 119.654147 230.287536 
L 119.93746 228.403871 
L 120.076614 228.403871 
L 120.200978 227.484463 
L 121.233696 227.484463 
L 121.255051 226.935372 
L 121.890669 223.596104 
L 122.152646 223.047013 
L 122.796599 223.047013 
L 122.96792 216.457922 
L 123.325939 216.457922 
L 123.363198 215.908831 
L 123.587863 215.908831 
L 123.707866 212.663862 
L 124.417271 212.663862 
L 124.812548 209.177773 
L 125.022502 206.285001 
L 125.207826 206.285001 
L 125.471344 205.735911 
L 126.331857 205.735911 
L 126.74982 203.853313 
L 127.497397 203.853313 
L 127.647682 203.304222 
L 128.007926 203.304222 
L 128.164954 201.547131 
L 129.067989 201.547131 
L 129.253201 199.899859 
L 129.51539 199.899859 
L 129.880956 197.051936 
L 131.268747 197.051936 
L 131.374291 194.22804 
L 131.664024 194.22804 
L 131.845781 193.263783 
L 132.006178 190.938221 
L 132.093019 190.38913 
L 132.586338 190.38913 
L 132.747696 187.667782 
L 132.923836 187.667782 
L 133.148082 187.118691 
L 133.508652 187.118691 
L 133.563962 186.240146 
L 134.239273 186.240146 
L 134.499726 185.691055 
L 134.827405 185.691055 
L 134.957422 184.81251 
L 135.52958 184.81251 
L 135.791662 183.384873 
L 136.974029 183.384873 
L 137.364156 180.137393 
L 137.969928 180.137393 
L 138.13322 179.217985 
L 138.302009 179.217985 
L 138.383741 178.668894 
L 139.437814 178.668894 
L 139.443103 177.749486 
L 139.609636 177.749486 
L 140.288154 176.785229 
L 140.54819 176.785229 
L 140.647497 175.865821 
L 141.038411 175.865821 
L 141.232075 175.31673 
L 141.401728 175.31673 
L 141.414201 174.218548 
L 142.628475 174.218548 
L 142.829729 173.340002 
L 145.065615 173.340002 
L 145.208167 172.790911 
L 145.861531 172.790911 
L 146.123508 171.826654 
L 146.398992 171.826654 
L 146.637157 170.948109 
L 146.684567 170.948109 
L 146.948086 169.300836 
L 147.179099 168.751745 
L 147.439135 168.751745 
L 147.475122 168.202654 
L 149.638532 168.202654 
L 149.682028 167.324109 
L 150.359352 167.324109 
L 150.468275 166.359852 
L 151.972462 166.359852 
L 152.153176 165.26167 
L 152.85014 165.26167 
L 152.877247 164.712579 
L 153.243422 164.712579 
L 153.382562 162.784064 
L 154.194839 162.784064 
L 154.232947 161.842766 
L 156.258587 161.842766 
L 156.316084 160.878509 
L 158.393805 160.878509 
L 158.411132 160.329418 
L 159.102968 160.329418 
L 159.340461 159.488257 
L 162.443078 159.488257 
L 162.506947 158.390075 
L 163.517536 158.390075 
L 163.662204 157.448777 
L 164.386421 157.448777 
L 164.492602 156.570231 
L 165.014505 156.570231 
L 165.233169 154.24467 
L 165.511615 153.366124 
L 167.099382 153.366124 
L 167.285738 152.424825 
L 169.031642 152.424825 
L 169.139963 151.505417 
L 169.832393 151.505417 
L 170.09437 149.62282 
L 175.202914 149.62282 
L 175.23506 148.744275 
L 178.043245 148.744275 
L 178.215646 145.920378 
L 181.29756 145.920378 
L 181.455698 140.272586 
L 181.551953 140.272586 
L 181.603984 137.44869 
L 182.520717 137.44869 
L 182.608501 136.899599 
L 183.490655 136.899599 
L 183.646076 135.252327 
L 185.909306 135.252327 
L 186.054433 133.41351 
L 186.541324 133.41351 
L 186.84246 132.494102 
L 193.710093 132.494102 
L 193.855504 130.931305 
L 196.227065 130.931305 
L 196.402679 130.011897 
L 201.510193 130.011897 
L 201.696576 129.04764 
L 201.957029 129.04764 
L 202.021083 126.722078 
L 203.474621 126.722078 
L 203.496391 124.883262 
L 209.105983 124.883262 
L 209.197609 123.044446 
L 211.013655 123.044446 
L 211.131444 122.103148 
L 217.787971 122.103148 
L 218.247112 119.579666 
L 219.950732 119.579666 
L 220.081667 117.697069 
L 226.359964 117.697069 
L 226.706486 116.818523 
L 231.058606 116.818523 
L 231.209371 115.877224 
L 239.663816 115.877224 
L 239.76553 115.328134 
L 241.103583 115.328134 
L 241.155878 112.504237 
L 242.868747 112.504237 
L 243.067113 111.625692 
L 247.346857 111.625692 
L 247.477819 110.784531 
L 261.73097 110.784531 
L 261.931515 108.45897 
L 263.633505 108.45897 
L 263.687862 102.811178 
L 269.78608 102.811178 
L 269.897778 101.869879 
L 273.038963 101.869879 
L 273.38491 100.92858 
L 273.431611 100.92858 
L 273.646993 100.379489 
L 278.683685 100.379489 
L 278.700479 99.538329 
L 285.426952 99.538329 
L 285.546495 97.781238 
L 290.630042 97.781238 
L 290.786831 96.839939 
L 298.806901 96.839939 
L 298.975735 95.898641 
L 299.937723 95.898641 
L 299.986272 94.14155 
L 300.510436 94.14155 
L 300.558734 93.127843 
L 315.907526 93.127843 
L 316.057381 92.029662 
L 324.437252 92.029662 
L 324.50012 89.50618 
L 344.509718 89.50618 
L 344.574594 88.564881 
L 346.321841 88.564881 
L 346.378164 85.740985 
L 351.871666 85.740985 
L 351.982082 84.86244 
L 356.432336 84.86244 
L 356.535827 84.021279 
L 380.538734 84.021279 
L 380.645301 83.180119 
L 396.895193 83.180119 
L 397.036307 82.166412 
L 405.480377 82.166412 
L 405.54883 81.152706 
L 410.195956 81.152706 
L 410.335207 78.32881 
L 412.724033 78.32881 
L 412.812735 77.387511 
L 425.606197 77.387511 
L 425.624214 76.83842 
L 461.327744 76.83842 
L 461.46956 75.824714 
L 470.410079 75.824714 
L 470.491151 75.275623 
L 501.494814 75.275623 
L 501.643717 72.234504 
L 513.452368 72.234504 
L 513.601371 71.685413 
L 533.256024 71.685413 
L 533.364659 70.587231 
L 539.901572 70.587231 
L 539.98563 67.546113 
L 541.626224 67.546113 
L 541.790164 66.997022 
L 544.630366 66.997022 
L 544.751455 64.173126 
L 566.988972 64.173126 
L 566.996256 63.074944 
L 583.032478 63.074944 
L 583.202631 61.392623 
L 602.187292 61.392623 
L 602.317597 59.710302 
L 609.484364 59.710302 
L 609.614748 58.769003 
L 628.769482 58.769003 
L 628.839339 57.755297 
L 663.330576 57.755297 
L 663.430574 55.727884 
L 672.987524 55.727884 
L 673.103873 53.700471 
L 676.770921 53.700471 
L 676.942985 52.859311 
L 688.833419 52.859311 
L 689.02502 51.918012 
L 689.201073 51.918012 
L 689.309644 50.035415 
L 744.871108 50.035415 
L 744.871108 50.035415 
" style="fill:none;stroke:#4c72b0;stroke-linecap:round;stroke-width:2.25;"/>
   </g>
   <g id="line2d_15">
    <path clip-path="url(#pcb3d894445)" d="M 95.562017 513.907415 
L 95.880118 267.49997 
L 96.253063 237.443894 
L 96.549226 234.202552 
L 96.669885 233.613217 
L 96.911202 229.487873 
L 97.04283 227.425201 
L 97.064768 227.425201 
L 97.119613 227.130534 
L 97.382869 226.246532 
L 97.514496 224.773195 
L 97.744845 224.18386 
L 97.920349 223.00519 
L 97.942287 222.121188 
L 98.194574 221.237186 
L 98.688178 220.647851 
L 98.764961 220.058516 
L 98.808837 218.585179 
L 99.236627 215.343837 
L 99.346317 213.8705 
L 99.412131 213.8705 
L 99.565697 213.281165 
L 99.587635 213.281165 
L 99.598604 212.69183 
L 100.037363 211.807828 
L 100.147053 210.039824 
L 100.794223 207.387817 
L 101.013603 202.967806 
L 101.167169 200.905134 
L 101.375579 199.726464 
L 101.69368 198.253127 
L 101.759494 197.663792 
L 101.934998 197.074457 
L 102.461509 192.359778 
L 102.56023 192.065111 
L 102.922206 192.065111 
L 103.284183 189.707772 
L 103.437749 189.413104 
L 103.755849 185.582428 
L 103.799725 185.582428 
L 104.28236 182.046419 
L 104.39205 182.046419 
L 104.764996 179.689079 
L 104.885655 179.689079 
L 105.083096 177.037073 
L 105.47798 176.15307 
L 105.675422 176.15307 
L 105.828987 174.385066 
L 105.894801 174.385066 
L 106.245809 172.617061 
L 106.34453 172.617061 
L 106.399375 172.027726 
L 106.585847 171.733059 
L 106.618754 171.438392 
L 106.77232 171.143724 
L 106.969762 170.259722 
L 107.024607 169.965055 
L 107.397552 169.081052 
L 107.649839 168.786385 
L 107.671777 167.902383 
L 107.869219 167.313048 
L 108.077629 167.01838 
L 108.658986 158.767693 
L 109.141621 158.473025 
L 109.15259 158.178358 
L 109.382939 157.589023 
L 109.843636 154.347681 
L 109.986233 154.347681 
L 110.315302 154.053014 
L 110.424992 153.463679 
L 110.863752 151.401007 
L 110.88569 151.401007 
L 111.006348 151.10634 
L 111.127007 150.517005 
L 111.499953 149.92767 
L 112.037433 149.633003 
L 112.18003 149.338335 
L 112.28972 148.749 
L 112.673634 148.454333 
L 112.871076 146.686328 
L 113.825378 146.096994 
L 113.989913 144.918324 
L 114.01185 144.918324 
L 114.406734 144.034322 
L 114.439641 143.739654 
L 114.626114 143.444987 
L 115.09778 141.97165 
L 116.095958 140.498313 
L 116.106927 139.908978 
L 116.545686 139.024975 
L 116.600531 138.730308 
L 116.841849 138.435641 
L 117.028321 137.846306 
L 117.346422 137.846306 
L 117.829057 136.078301 
L 118.158127 135.488966 
L 118.904018 135.488966 
L 120.110606 134.899632 
L 121.755954 134.899632 
L 121.942427 133.426295 
L 122.293434 133.131627 
L 122.578628 131.952957 
L 123.225798 131.952957 
L 123.598744 131.65829 
L 123.653589 130.774288 
L 124.103317 129.890285 
L 124.454325 129.595618 
L 124.805332 129.595618 
L 125.36475 129.006283 
L 125.737696 129.006283 
L 126.220331 128.711616 
L 126.253238 128.122281 
L 126.593277 127.827614 
L 126.615215 127.238279 
L 127.021067 126.059609 
L 127.043005 126.059609 
L 127.295292 125.764942 
L 127.404982 125.175607 
L 127.799865 124.880939 
L 127.898586 124.291604 
L 128.128935 124.291604 
L 128.238625 123.112935 
L 128.809012 123.112935 
L 129.302616 122.5236 
L 129.456182 121.34493 
L 129.47812 121.34493 
L 129.511027 121.050263 
L 130.333701 120.166261 
L 131.167344 120.166261 
L 131.255096 119.871593 
L 131.595134 119.576926 
L 131.891297 118.987591 
L 132.61525 118.987591 
L 132.681064 118.398256 
L 133.174668 118.398256 
L 133.426955 118.103589 
L 134.008311 117.219586 
L 134.425132 117.219586 
L 135.083271 116.630252 
L 135.127147 116.335584 
L 135.522031 116.040917 
L 136.531178 116.040917 
L 136.849278 115.746249 
L 136.882185 115.451582 
L 138.187494 115.451582 
L 138.330091 114.862247 
L 139.218579 114.862247 
L 139.613462 114.56758 
L 139.810904 114.272912 
L 140.063191 114.272912 
L 140.118036 113.978245 
L 140.469043 113.683577 
L 140.567764 113.38891 
L 140.984586 113.094243 
L 141.335593 113.094243 
L 141.576911 111.326238 
L 141.949856 111.031571 
L 142.01567 110.736903 
L 142.224081 110.736903 
L 142.278926 110.147568 
L 143.397762 110.147568 
L 143.628111 108.968899 
L 144.143653 108.968899 
L 144.154622 108.379564 
L 144.363033 107.790229 
L 144.527568 107.790229 
L 144.801793 106.611559 
L 145.26249 106.611559 
L 145.602528 106.316892 
L 145.734156 106.022224 
L 146.118071 105.727557 
L 146.172916 105.43289 
L 146.359388 105.43289 
L 146.381326 105.138222 
L 146.787179 104.843555 
L 147.31369 104.843555 
L 147.522101 103.959553 
L 147.675667 103.07555 
L 150.352099 103.07555 
L 150.692138 102.780883 
L 150.856672 102.486215 
L 153.818299 102.486215 
L 154.01574 101.896881 
L 154.070585 101.896881 
L 154.169306 101.307546 
L 156.034034 101.307546 
L 156.154692 100.128876 
L 158.107172 100.128876 
L 158.326552 99.539541 
L 161.386898 99.539541 
L 161.69403 98.655539 
L 161.748875 98.360872 
L 162.67027 98.360872 
L 162.77996 97.771537 
L 165.247981 97.771537 
L 165.489299 97.182202 
L 165.8074 97.182202 
L 166.026779 96.592867 
L 168.439956 96.592867 
L 168.582553 96.003532 
L 169.701389 96.003532 
L 169.822048 95.414197 
L 176.600881 95.414197 
L 176.83123 94.824863 
L 176.875106 94.824863 
L 177.105455 94.235528 
L 186.286495 94.235528 
L 186.604596 91.878188 
L 186.681379 91.878188 
L 186.714286 91.583521 
L 186.98851 91.288854 
L 190.915407 91.288854 
L 191.047035 90.699519 
L 198.703387 90.699519 
L 199.076332 90.404851 
L 199.284743 90.110184 
L 201.708889 90.110184 
L 201.939237 89.520849 
L 204.670515 89.520849 
L 204.846019 88.342179 
L 218.261088 88.342179 
L 218.326902 87.752844 
L 220.71814 87.752844 
L 220.849768 87.16351 
L 221.650504 86.574175 
L 221.847946 86.574175 
L 222.034419 85.98484 
L 223.438449 85.98484 
L 223.64686 84.80617 
L 224.688913 84.80617 
L 224.809572 84.216835 
L 226.740113 84.216835 
L 226.805927 83.922168 
L 226.915617 83.038166 
L 234.659721 83.038166 
L 234.824256 81.859496 
L 238.959563 81.859496 
L 239.003439 80.091492 
L 242.908398 80.091492 
L 243.292312 78.912822 
L 243.31425 78.323487 
L 248.502581 78.323487 
L 248.908433 77.734152 
L 251.069323 77.734152 
L 251.299672 77.144817 
L 258.155288 77.144817 
L 258.363698 76.555483 
L 272.930511 76.555483 
L 273.040201 74.787478 
L 275.628881 74.787478 
L 275.650819 74.492811 
L 275.914075 74.198143 
L 279.084112 74.198143 
L 279.369305 73.019473 
L 282.385776 73.019473 
L 282.605156 72.430139 
L 286.444301 72.430139 
L 286.630774 71.840804 
L 290.656391 71.840804 
L 290.820926 71.251469 
L 299.804525 71.251469 
L 300.023905 70.662134 
L 305.37677 70.662134 
L 305.453553 70.072799 
L 307.976419 70.072799 
L 308.129985 69.483464 
L 316.258003 69.483464 
L 316.378662 68.89413 
L 322.532263 68.89413 
L 323.069743 68.304795 
L 323.190402 67.71546 
L 325.460982 67.71546 
L 325.614548 67.126125 
L 325.691331 67.126125 
L 325.713269 66.53679 
L 334.663961 66.53679 
L 334.78462 65.358121 
L 338.865082 65.358121 
L 339.084462 63.590116 
L 346.817597 63.590116 
L 347.036976 63.000781 
L 350.042478 63.000781 
L 350.700618 62.116779 
L 351.150346 61.232777 
L 360.342356 61.232777 
L 360.517859 60.054107 
L 360.594642 60.054107 
L 360.923712 59.75944 
L 361.066309 59.464772 
L 363.051695 59.464772 
L 363.172354 58.286103 
L 367.121189 58.286103 
L 367.132158 57.696768 
L 367.362506 57.107433 
L 380.240095 57.107433 
L 380.371723 56.518098 
L 380.40463 55.928763 
L 385.878154 55.928763 
L 386.152378 55.339428 
L 396.858108 55.339428 
L 396.891015 55.044761 
L 397.209116 54.750093 
L 401.476051 54.750093 
L 401.607679 53.571424 
L 406.335311 53.571424 
L 406.34628 52.982089 
L 406.774071 52.392754 
L 437.300757 52.392754 
L 437.585951 51.803419 
L 440.547577 51.803419 
L 440.701143 51.508752 
L 441.085057 51.214084 
L 514.632104 51.214084 
L 514.873422 50.62475 
L 522.310394 50.62475 
L 522.387177 50.330082 
L 522.771092 50.035415 
L 744.871108 50.035415 
L 744.871108 50.035415 
" style="fill:none;stroke:#dd8452;stroke-dasharray:9,3.375;stroke-dashoffset:0;stroke-width:2.25;"/>
   </g>
   <g id="line2d_16"/>
   <g id="line2d_17"/>
   <g id="patch_3">
    <path d="M 63.096563 548.170687 
L 63.096563 26.314687 
" style="fill:none;stroke:#ffffff;stroke-linecap:square;stroke-linejoin:miter;stroke-width:1.875;"/>
   </g>
   <g id="patch_4">
    <path d="M 777.336563 548.170687 
L 777.336563 26.314687 
" style="fill:none;stroke:#ffffff;stroke-linecap:square;stroke-linejoin:miter;stroke-width:1.875;"/>
   </g>
   <g id="patch_5">
    <path d="M 63.096563 548.170687 
L 777.336563 548.170687 
" style="fill:none;stroke:#ffffff;stroke-linecap:square;stroke-linejoin:miter;stroke-width:1.875;"/>
   </g>
   <g id="patch_6">
    <path d="M 63.096563 26.314687 
L 777.336563 26.314687 
" style="fill:none;stroke:#ffffff;stroke-linecap:square;stroke-linejoin:miter;stroke-width:1.875;"/>
   </g>
   <g id="text_15">
    <!-- DCGAN_ESQ -->
    <g style="fill:#262626;" transform="translate(363.702188 20.314687)scale(0.18 -0.18)">
     <defs>
      <path d="M 7.71875 0 
L 7.71875 71.578125 
L 32.375 71.578125 
Q 40.71875 71.578125 45.125 70.5625 
Q 51.265625 69.140625 55.609375 65.4375 
Q 61.28125 60.640625 64.078125 53.1875 
Q 66.890625 45.75 66.890625 36.1875 
Q 66.890625 28.03125 64.984375 21.734375 
Q 63.09375 15.4375 60.109375 11.296875 
Q 57.125 7.171875 53.578125 4.796875 
Q 50.046875 2.4375 45.046875 1.21875 
Q 40.046875 0 33.546875 0 
z
M 17.1875 8.453125 
L 32.46875 8.453125 
Q 39.546875 8.453125 43.578125 9.765625 
Q 47.609375 11.078125 50 13.484375 
Q 53.375 16.84375 55.25 22.53125 
Q 57.125 28.21875 57.125 36.328125 
Q 57.125 47.5625 53.4375 53.59375 
Q 49.75 59.625 44.484375 61.671875 
Q 40.671875 63.140625 32.234375 63.140625 
L 17.1875 63.140625 
z
" id="ArialMT-68"/>
      <path d="M 58.796875 25.09375 
L 68.265625 22.703125 
Q 65.28125 11.03125 57.546875 4.90625 
Q 49.8125 -1.21875 38.625 -1.21875 
Q 27.046875 -1.21875 19.796875 3.484375 
Q 12.546875 8.203125 8.765625 17.140625 
Q 4.984375 26.078125 4.984375 36.328125 
Q 4.984375 47.515625 9.25 55.828125 
Q 13.53125 64.15625 21.40625 68.46875 
Q 29.296875 72.796875 38.765625 72.796875 
Q 49.515625 72.796875 56.828125 67.328125 
Q 64.15625 61.859375 67.046875 51.953125 
L 57.71875 49.75 
Q 55.21875 57.5625 50.484375 61.125 
Q 45.75 64.703125 38.578125 64.703125 
Q 30.328125 64.703125 24.78125 60.734375 
Q 19.234375 56.78125 16.984375 50.109375 
Q 14.75 43.453125 14.75 36.375 
Q 14.75 27.25 17.40625 20.4375 
Q 20.0625 13.625 25.671875 10.25 
Q 31.296875 6.890625 37.84375 6.890625 
Q 45.796875 6.890625 51.3125 11.46875 
Q 56.84375 16.0625 58.796875 25.09375 
z
" id="ArialMT-67"/>
      <path d="M 41.21875 28.078125 
L 41.21875 36.46875 
L 71.53125 36.53125 
L 71.53125 9.96875 
Q 64.546875 4.390625 57.125 1.578125 
Q 49.703125 -1.21875 41.890625 -1.21875 
Q 31.34375 -1.21875 22.71875 3.296875 
Q 14.109375 7.8125 9.71875 16.359375 
Q 5.328125 24.90625 5.328125 35.453125 
Q 5.328125 45.90625 9.6875 54.953125 
Q 14.0625 64.015625 22.265625 68.40625 
Q 30.46875 72.796875 41.15625 72.796875 
Q 48.921875 72.796875 55.1875 70.28125 
Q 61.46875 67.78125 65.03125 63.28125 
Q 68.609375 58.796875 70.453125 51.5625 
L 61.921875 49.21875 
Q 60.296875 54.6875 57.90625 57.8125 
Q 55.515625 60.9375 51.0625 62.8125 
Q 46.625 64.703125 41.21875 64.703125 
Q 34.71875 64.703125 29.984375 62.71875 
Q 25.25 60.75 22.34375 57.515625 
Q 19.4375 54.296875 17.828125 50.4375 
Q 15.09375 43.796875 15.09375 36.03125 
Q 15.09375 26.46875 18.390625 20.015625 
Q 21.6875 13.578125 27.984375 10.453125 
Q 34.28125 7.328125 41.359375 7.328125 
Q 47.515625 7.328125 53.375 9.6875 
Q 59.234375 12.0625 62.25 14.75 
L 62.25 28.078125 
z
" id="ArialMT-71"/>
      <path d="M -0.140625 0 
L 27.34375 71.578125 
L 37.546875 71.578125 
L 66.84375 0 
L 56.0625 0 
L 47.703125 21.6875 
L 17.78125 21.6875 
L 9.90625 0 
z
M 20.515625 29.390625 
L 44.78125 29.390625 
L 37.3125 49.21875 
Q 33.890625 58.25 32.234375 64.0625 
Q 30.859375 57.171875 28.375 50.390625 
z
" id="ArialMT-65"/>
      <path d="M 7.625 0 
L 7.625 71.578125 
L 17.328125 71.578125 
L 54.9375 15.375 
L 54.9375 71.578125 
L 64.015625 71.578125 
L 64.015625 0 
L 54.296875 0 
L 16.703125 56.25 
L 16.703125 0 
z
" id="ArialMT-78"/>
      <path d="M -1.515625 -19.875 
L -1.515625 -13.53125 
L 56.734375 -13.53125 
L 56.734375 -19.875 
z
" id="ArialMT-95"/>
      <path d="M 7.90625 0 
L 7.90625 71.578125 
L 59.671875 71.578125 
L 59.671875 63.140625 
L 17.390625 63.140625 
L 17.390625 41.21875 
L 56.984375 41.21875 
L 56.984375 32.8125 
L 17.390625 32.8125 
L 17.390625 8.453125 
L 61.328125 8.453125 
L 61.328125 0 
z
" id="ArialMT-69"/>
      <path d="M 4.5 23 
L 13.421875 23.78125 
Q 14.0625 18.40625 16.375 14.96875 
Q 18.703125 11.53125 23.578125 9.40625 
Q 28.46875 7.28125 34.578125 7.28125 
Q 39.984375 7.28125 44.140625 8.890625 
Q 48.296875 10.5 50.3125 13.296875 
Q 52.34375 16.109375 52.34375 19.4375 
Q 52.34375 22.796875 50.390625 25.3125 
Q 48.4375 27.828125 43.953125 29.546875 
Q 41.0625 30.671875 31.203125 33.03125 
Q 21.34375 35.40625 17.390625 37.5 
Q 12.25 40.1875 9.734375 44.15625 
Q 7.234375 48.140625 7.234375 53.078125 
Q 7.234375 58.5 10.296875 63.203125 
Q 13.375 67.921875 19.28125 70.359375 
Q 25.203125 72.796875 32.421875 72.796875 
Q 40.375 72.796875 46.453125 70.234375 
Q 52.546875 67.671875 55.8125 62.6875 
Q 59.078125 57.71875 59.328125 51.421875 
L 50.25 50.734375 
Q 49.515625 57.515625 45.28125 60.984375 
Q 41.0625 64.453125 32.8125 64.453125 
Q 24.21875 64.453125 20.28125 61.296875 
Q 16.359375 58.15625 16.359375 53.71875 
Q 16.359375 49.859375 19.140625 47.359375 
Q 21.875 44.875 33.421875 42.265625 
Q 44.96875 39.65625 49.265625 37.703125 
Q 55.515625 34.8125 58.484375 30.390625 
Q 61.46875 25.984375 61.46875 20.21875 
Q 61.46875 14.5 58.203125 9.4375 
Q 54.9375 4.390625 48.796875 1.578125 
Q 42.671875 -1.21875 35.015625 -1.21875 
Q 25.296875 -1.21875 18.71875 1.609375 
Q 12.15625 4.4375 8.421875 10.125 
Q 4.6875 15.828125 4.5 23 
z
" id="ArialMT-83"/>
      <path d="M 61.96875 7.671875 
Q 68.5625 3.125 74.125 1.03125 
L 71.34375 -5.5625 
Q 63.625 -2.78125 55.953125 3.21875 
Q 48 -1.21875 38.375 -1.21875 
Q 28.65625 -1.21875 20.75 3.46875 
Q 12.84375 8.15625 8.5625 16.640625 
Q 4.296875 25.140625 4.296875 35.796875 
Q 4.296875 46.390625 8.59375 55.078125 
Q 12.890625 63.765625 20.828125 68.3125 
Q 28.765625 72.859375 38.578125 72.859375 
Q 48.484375 72.859375 56.4375 68.140625 
Q 64.40625 63.421875 68.578125 54.953125 
Q 72.75 46.484375 72.75 35.84375 
Q 72.75 27 70.0625 19.9375 
Q 67.390625 12.890625 61.96875 7.671875 
z
M 41.109375 19.78125 
Q 49.3125 17.484375 54.640625 12.9375 
Q 62.984375 20.5625 62.984375 35.84375 
Q 62.984375 44.53125 60.03125 51.015625 
Q 57.078125 57.515625 51.390625 61.109375 
Q 45.703125 64.703125 38.625 64.703125 
Q 28.03125 64.703125 21.046875 57.453125 
Q 14.0625 50.203125 14.0625 35.796875 
Q 14.0625 21.828125 20.96875 14.359375 
Q 27.875 6.890625 38.625 6.890625 
Q 43.703125 6.890625 48.1875 8.796875 
Q 43.75 11.671875 38.8125 12.890625 
z
" id="ArialMT-81"/>
     </defs>
     <use xlink:href="#ArialMT-68"/>
     <use x="72.216797" xlink:href="#ArialMT-67"/>
     <use x="144.433594" xlink:href="#ArialMT-71"/>
     <use x="222.216797" xlink:href="#ArialMT-65"/>
     <use x="288.916016" xlink:href="#ArialMT-78"/>
     <use x="361.132812" xlink:href="#ArialMT-95"/>
     <use x="416.748047" xlink:href="#ArialMT-69"/>
     <use x="483.447266" xlink:href="#ArialMT-83"/>
     <use x="550.146484" xlink:href="#ArialMT-81"/>
    </g>
   </g>
   <g id="legend_1">
    <g id="patch_7">
     <path d="M 528.189141 539.920687 
L 765.786562 539.920687 
Q 769.086562 539.920687 769.086562 536.620687 
L 769.086562 466.090687 
Q 769.086562 462.790687 765.786562 462.790687 
L 528.189141 462.790687 
Q 524.889141 462.790687 524.889141 466.090687 
L 524.889141 536.620687 
Q 524.889141 539.920687 528.189141 539.920687 
z
" style="fill:#eaeaf2;opacity:0.8;stroke:#cccccc;stroke-linejoin:miter;stroke-width:1.5;"/>
    </g>
    <g id="text_16">
     <!-- Model -->
     <g style="fill:#262626;" transform="translate(622.476914 482.27475)scale(0.18 -0.18)">
      <defs>
       <path d="M 7.421875 0 
L 7.421875 71.578125 
L 21.6875 71.578125 
L 38.625 20.90625 
Q 40.96875 13.8125 42.046875 10.296875 
Q 43.265625 14.203125 45.84375 21.78125 
L 62.984375 71.578125 
L 75.734375 71.578125 
L 75.734375 0 
L 66.609375 0 
L 66.609375 59.90625 
L 45.796875 0 
L 37.25 0 
L 16.546875 60.9375 
L 16.546875 0 
z
" id="ArialMT-77"/>
       <path d="M 40.234375 0 
L 40.234375 6.546875 
Q 35.296875 -1.171875 25.734375 -1.171875 
Q 19.53125 -1.171875 14.328125 2.25 
Q 9.125 5.671875 6.265625 11.796875 
Q 3.421875 17.921875 3.421875 25.875 
Q 3.421875 33.640625 6 39.96875 
Q 8.59375 46.296875 13.765625 49.65625 
Q 18.953125 53.03125 25.34375 53.03125 
Q 30.03125 53.03125 33.6875 51.046875 
Q 37.359375 49.078125 39.65625 45.90625 
L 39.65625 71.578125 
L 48.390625 71.578125 
L 48.390625 0 
z
M 12.453125 25.875 
Q 12.453125 15.921875 16.640625 10.984375 
Q 20.84375 6.0625 26.5625 6.0625 
Q 32.328125 6.0625 36.34375 10.765625 
Q 40.375 15.484375 40.375 25.140625 
Q 40.375 35.796875 36.265625 40.765625 
Q 32.171875 45.75 26.171875 45.75 
Q 20.3125 45.75 16.375 40.96875 
Q 12.453125 36.1875 12.453125 25.875 
z
" id="ArialMT-100"/>
      </defs>
      <use xlink:href="#ArialMT-77"/>
      <use x="83.300781" xlink:href="#ArialMT-111"/>
      <use x="138.916016" xlink:href="#ArialMT-100"/>
      <use x="194.53125" xlink:href="#ArialMT-101"/>
      <use x="250.146484" xlink:href="#ArialMT-108"/>
     </g>
    </g>
    <g id="line2d_18">
     <path d="M 531.489141 500.338734 
L 564.489141 500.338734 
" style="fill:none;stroke:#4c72b0;stroke-linecap:round;stroke-width:2.25;"/>
    </g>
    <g id="line2d_19"/>
    <g id="text_17">
     <!-- macro avg., AUC = 0.903 -->
     <g style="fill:#262626;" transform="translate(577.689141 506.113734)scale(0.165 -0.165)">
      <defs>
       <path d="M 6.59375 0 
L 6.59375 51.859375 
L 14.453125 51.859375 
L 14.453125 44.578125 
Q 16.890625 48.390625 20.9375 50.703125 
Q 25 53.03125 30.171875 53.03125 
Q 35.9375 53.03125 39.625 50.640625 
Q 43.3125 48.25 44.828125 43.953125 
Q 50.984375 53.03125 60.84375 53.03125 
Q 68.5625 53.03125 72.703125 48.75 
Q 76.859375 44.484375 76.859375 35.59375 
L 76.859375 0 
L 68.109375 0 
L 68.109375 32.671875 
Q 68.109375 37.9375 67.25 40.25 
Q 66.40625 42.578125 64.15625 43.984375 
Q 61.921875 45.40625 58.890625 45.40625 
Q 53.421875 45.40625 49.796875 41.765625 
Q 46.1875 38.140625 46.1875 30.125 
L 46.1875 0 
L 37.40625 0 
L 37.40625 33.6875 
Q 37.40625 39.546875 35.25 42.46875 
Q 33.109375 45.40625 28.21875 45.40625 
Q 24.515625 45.40625 21.359375 43.453125 
Q 18.21875 41.5 16.796875 37.734375 
Q 15.375 33.984375 15.375 26.90625 
L 15.375 0 
z
" id="ArialMT-109"/>
       <path d="M 40.4375 19 
L 49.078125 17.875 
Q 47.65625 8.9375 41.8125 3.875 
Q 35.984375 -1.171875 27.484375 -1.171875 
Q 16.84375 -1.171875 10.375 5.78125 
Q 3.90625 12.75 3.90625 25.734375 
Q 3.90625 34.125 6.6875 40.421875 
Q 9.46875 46.734375 15.15625 49.875 
Q 20.84375 53.03125 27.546875 53.03125 
Q 35.984375 53.03125 41.359375 48.75 
Q 46.734375 44.484375 48.25 36.625 
L 39.703125 35.296875 
Q 38.484375 40.53125 35.375 43.15625 
Q 32.28125 45.796875 27.875 45.796875 
Q 21.234375 45.796875 17.078125 41.03125 
Q 12.9375 36.28125 12.9375 25.984375 
Q 12.9375 15.53125 16.9375 10.796875 
Q 20.953125 6.0625 27.390625 6.0625 
Q 32.5625 6.0625 36.03125 9.234375 
Q 39.5 12.40625 40.4375 19 
z
" id="ArialMT-99"/>
       <path d="M 4.984375 -4.296875 
L 13.53125 -5.5625 
Q 14.0625 -9.515625 16.5 -11.328125 
Q 19.78125 -13.765625 25.4375 -13.765625 
Q 31.546875 -13.765625 34.859375 -11.328125 
Q 38.1875 -8.890625 39.359375 -4.5 
Q 40.046875 -1.8125 39.984375 6.78125 
Q 34.234375 0 25.640625 0 
Q 14.9375 0 9.078125 7.71875 
Q 3.21875 15.4375 3.21875 26.21875 
Q 3.21875 33.640625 5.90625 39.90625 
Q 8.59375 46.1875 13.6875 49.609375 
Q 18.796875 53.03125 25.6875 53.03125 
Q 34.859375 53.03125 40.828125 45.609375 
L 40.828125 51.859375 
L 48.921875 51.859375 
L 48.921875 7.03125 
Q 48.921875 -5.078125 46.453125 -10.125 
Q 44 -15.1875 38.640625 -18.109375 
Q 33.296875 -21.046875 25.484375 -21.046875 
Q 16.21875 -21.046875 10.5 -16.875 
Q 4.78125 -12.703125 4.984375 -4.296875 
z
M 12.25 26.859375 
Q 12.25 16.65625 16.296875 11.96875 
Q 20.359375 7.28125 26.46875 7.28125 
Q 32.515625 7.28125 36.609375 11.9375 
Q 40.71875 16.609375 40.71875 26.5625 
Q 40.71875 36.078125 36.5 40.90625 
Q 32.28125 45.75 26.3125 45.75 
Q 20.453125 45.75 16.34375 40.984375 
Q 12.25 36.234375 12.25 26.859375 
z
" id="ArialMT-103"/>
       <path d="M 8.890625 0 
L 8.890625 10.015625 
L 18.890625 10.015625 
L 18.890625 0 
Q 18.890625 -5.515625 16.9375 -8.90625 
Q 14.984375 -12.3125 10.75 -14.15625 
L 8.296875 -10.40625 
Q 11.078125 -9.1875 12.390625 -6.8125 
Q 13.71875 -4.4375 13.875 0 
z
" id="ArialMT-44"/>
       <path d="M 54.6875 71.578125 
L 64.15625 71.578125 
L 64.15625 30.21875 
Q 64.15625 19.4375 61.71875 13.078125 
Q 59.28125 6.734375 52.90625 2.75 
Q 46.53125 -1.21875 36.1875 -1.21875 
Q 26.125 -1.21875 19.71875 2.25 
Q 13.328125 5.71875 10.59375 12.28125 
Q 7.859375 18.84375 7.859375 30.21875 
L 7.859375 71.578125 
L 17.328125 71.578125 
L 17.328125 30.28125 
Q 17.328125 20.953125 19.0625 16.53125 
Q 20.796875 12.109375 25.015625 9.71875 
Q 29.25 7.328125 35.359375 7.328125 
Q 45.796875 7.328125 50.234375 12.0625 
Q 54.6875 16.796875 54.6875 30.28125 
z
" id="ArialMT-85"/>
       <path d="M 52.828125 42.09375 
L 5.5625 42.09375 
L 5.5625 50.296875 
L 52.828125 50.296875 
z
M 52.828125 20.359375 
L 5.5625 20.359375 
L 5.5625 28.5625 
L 52.828125 28.5625 
z
" id="ArialMT-61"/>
       <path d="M 5.46875 16.546875 
L 13.921875 17.328125 
Q 14.984375 11.375 18.015625 8.6875 
Q 21.046875 6 25.78125 6 
Q 29.828125 6 32.875 7.859375 
Q 35.9375 9.71875 37.890625 12.8125 
Q 39.84375 15.921875 41.15625 21.1875 
Q 42.484375 26.46875 42.484375 31.9375 
Q 42.484375 32.515625 42.4375 33.6875 
Q 39.796875 29.5 35.234375 26.875 
Q 30.671875 24.265625 25.34375 24.265625 
Q 16.453125 24.265625 10.296875 30.703125 
Q 4.15625 37.15625 4.15625 47.703125 
Q 4.15625 58.59375 10.578125 65.234375 
Q 17 71.875 26.65625 71.875 
Q 33.640625 71.875 39.421875 68.109375 
Q 45.21875 64.359375 48.21875 57.390625 
Q 51.21875 50.4375 51.21875 37.25 
Q 51.21875 23.53125 48.234375 15.40625 
Q 45.265625 7.28125 39.375 3.03125 
Q 33.5 -1.21875 25.59375 -1.21875 
Q 17.1875 -1.21875 11.859375 3.4375 
Q 6.546875 8.109375 5.46875 16.546875 
z
M 41.453125 48.140625 
Q 41.453125 55.71875 37.421875 60.15625 
Q 33.40625 64.59375 27.734375 64.59375 
Q 21.875 64.59375 17.53125 59.8125 
Q 13.1875 55.03125 13.1875 47.40625 
Q 13.1875 40.578125 17.3125 36.296875 
Q 21.4375 32.03125 27.484375 32.03125 
Q 33.59375 32.03125 37.515625 36.296875 
Q 41.453125 40.578125 41.453125 48.140625 
z
" id="ArialMT-57"/>
       <path d="M 4.203125 18.890625 
L 12.984375 20.0625 
Q 14.5 12.59375 18.140625 9.296875 
Q 21.78125 6 27 6 
Q 33.203125 6 37.46875 10.296875 
Q 41.75 14.59375 41.75 20.953125 
Q 41.75 27 37.796875 30.921875 
Q 33.84375 34.859375 27.734375 34.859375 
Q 25.25 34.859375 21.53125 33.890625 
L 22.515625 41.609375 
Q 23.390625 41.5 23.921875 41.5 
Q 29.546875 41.5 34.03125 44.421875 
Q 38.53125 47.359375 38.53125 53.46875 
Q 38.53125 58.296875 35.25 61.46875 
Q 31.984375 64.65625 26.8125 64.65625 
Q 21.6875 64.65625 18.265625 61.421875 
Q 14.84375 58.203125 13.875 51.765625 
L 5.078125 53.328125 
Q 6.6875 62.15625 12.390625 67.015625 
Q 18.109375 71.875 26.609375 71.875 
Q 32.46875 71.875 37.390625 69.359375 
Q 42.328125 66.84375 44.9375 62.5 
Q 47.5625 58.15625 47.5625 53.265625 
Q 47.5625 48.640625 45.0625 44.828125 
Q 42.578125 41.015625 37.703125 38.765625 
Q 44.046875 37.3125 47.5625 32.6875 
Q 51.078125 28.078125 51.078125 21.140625 
Q 51.078125 11.765625 44.234375 5.25 
Q 37.40625 -1.265625 26.953125 -1.265625 
Q 17.53125 -1.265625 11.296875 4.34375 
Q 5.078125 9.96875 4.203125 18.890625 
z
" id="ArialMT-51"/>
      </defs>
      <use xlink:href="#ArialMT-109"/>
      <use x="83.300781" xlink:href="#ArialMT-97"/>
      <use x="138.916016" xlink:href="#ArialMT-99"/>
      <use x="188.916016" xlink:href="#ArialMT-114"/>
      <use x="222.216797" xlink:href="#ArialMT-111"/>
      <use x="277.832031" xlink:href="#ArialMT-32"/>
      <use x="305.615234" xlink:href="#ArialMT-97"/>
      <use x="361.230469" xlink:href="#ArialMT-118"/>
      <use x="411.230469" xlink:href="#ArialMT-103"/>
      <use x="466.845703" xlink:href="#ArialMT-46"/>
      <use x="494.628906" xlink:href="#ArialMT-44"/>
      <use x="522.412109" xlink:href="#ArialMT-32"/>
      <use x="544.695312" xlink:href="#ArialMT-65"/>
      <use x="611.394531" xlink:href="#ArialMT-85"/>
      <use x="683.611328" xlink:href="#ArialMT-67"/>
      <use x="755.828125" xlink:href="#ArialMT-32"/>
      <use x="783.611328" xlink:href="#ArialMT-61"/>
      <use x="842.009766" xlink:href="#ArialMT-32"/>
      <use x="869.792969" xlink:href="#ArialMT-48"/>
      <use x="925.408203" xlink:href="#ArialMT-46"/>
      <use x="953.191406" xlink:href="#ArialMT-57"/>
      <use x="1008.806641" xlink:href="#ArialMT-48"/>
      <use x="1064.421875" xlink:href="#ArialMT-51"/>
     </g>
    </g>
    <g id="line2d_20">
     <path d="M 531.489141 524.072953 
L 564.489141 524.072953 
" style="fill:none;stroke:#dd8452;stroke-dasharray:9,3.375;stroke-dashoffset:0;stroke-width:2.25;"/>
    </g>
    <g id="line2d_21"/>
    <g id="text_18">
     <!-- micro avg., AUC = 0.962 -->
     <g style="fill:#262626;" transform="translate(577.689141 529.847953)scale(0.165 -0.165)">
      <use xlink:href="#ArialMT-109"/>
      <use x="83.300781" xlink:href="#ArialMT-105"/>
      <use x="105.517578" xlink:href="#ArialMT-99"/>
      <use x="155.517578" xlink:href="#ArialMT-114"/>
      <use x="188.818359" xlink:href="#ArialMT-111"/>
      <use x="244.433594" xlink:href="#ArialMT-32"/>
      <use x="272.216797" xlink:href="#ArialMT-97"/>
      <use x="327.832031" xlink:href="#ArialMT-118"/>
      <use x="377.832031" xlink:href="#ArialMT-103"/>
      <use x="433.447266" xlink:href="#ArialMT-46"/>
      <use x="461.230469" xlink:href="#ArialMT-44"/>
      <use x="489.013672" xlink:href="#ArialMT-32"/>
      <use x="511.296875" xlink:href="#ArialMT-65"/>
      <use x="577.996094" xlink:href="#ArialMT-85"/>
      <use x="650.212891" xlink:href="#ArialMT-67"/>
      <use x="722.429688" xlink:href="#ArialMT-32"/>
      <use x="750.212891" xlink:href="#ArialMT-61"/>
      <use x="808.611328" xlink:href="#ArialMT-32"/>
      <use x="836.394531" xlink:href="#ArialMT-48"/>
      <use x="892.009766" xlink:href="#ArialMT-46"/>
      <use x="919.792969" xlink:href="#ArialMT-57"/>
      <use x="975.408203" xlink:href="#ArialMT-54"/>
      <use x="1031.023438" xlink:href="#ArialMT-50"/>
     </g>
    </g>
   </g>
  </g>
 </g>
 <defs>
  <clipPath id="pcb3d894445">
   <rect height="521.856" width="714.24" x="63.096563" y="26.314687"/>
  </clipPath>
 </defs>
</svg>
