<?xml version="1.0" encoding="utf-8" standalone="no"?>
<!DOCTYPE svg PUBLIC "-//W3C//DTD SVG 1.1//EN"
  "http://www.w3.org/Graphics/SVG/1.1/DTD/svg11.dtd">
<!-- Created with matplotlib (https://matplotlib.org/) -->
<svg height="603.641391pt" version="1.1" viewBox="0 0 784.536562 603.641391" width="784.536562pt" xmlns="http://www.w3.org/2000/svg" xmlns:xlink="http://www.w3.org/1999/xlink">
 <metadata>
  <rdf:RDF xmlns:cc="http://creativecommons.org/ns#" xmlns:dc="http://purl.org/dc/elements/1.1/" xmlns:rdf="http://www.w3.org/1999/02/22-rdf-syntax-ns#">
   <cc:Work>
    <dc:type rdf:resource="http://purl.org/dc/dcmitype/StillImage"/>
    <dc:date>2021-07-16T14:27:21.932696</dc:date>
    <dc:format>image/svg+xml</dc:format>
    <dc:creator>
     <cc:Agent>
      <dc:title>Matplotlib v3.3.3, https://matplotlib.org/</dc:title>
     </cc:Agent>
    </dc:creator>
   </cc:Work>
  </rdf:RDF>
 </metadata>
 <defs>
  <style type="text/css">*{stroke-linecap:butt;stroke-linejoin:round;}</style>
 </defs>
 <g id="figure_1">
  <g id="patch_1">
   <path d="M 0 603.641391 
L 784.536562 603.641391 
L 784.536562 0 
L 0 0 
z
" style="fill:#ffffff;"/>
  </g>
  <g id="axes_1">
   <g id="patch_2">
    <path d="M 63.096563 548.170687 
L 777.336563 548.170687 
L 777.336563 26.314687 
L 63.096563 26.314687 
z
" style="fill:#eaeaf2;"/>
   </g>
   <g id="matplotlib.axis_1">
    <g id="xtick_1">
     <g id="line2d_1">
      <path clip-path="url(#p60943aa19b)" d="M 95.562017 548.170687 
L 95.562017 26.314687 
" style="fill:none;stroke:#ffffff;stroke-linecap:round;stroke-width:1.5;"/>
     </g>
     <g id="text_1">
      <!-- 0.0 -->
      <g style="fill:#262626;" transform="translate(84.094517 572.481078)scale(0.165 -0.165)">
       <defs>
        <path d="M 4.15625 35.296875 
Q 4.15625 48 6.765625 55.734375 
Q 9.375 63.484375 14.515625 67.671875 
Q 19.671875 71.875 27.484375 71.875 
Q 33.25 71.875 37.59375 69.546875 
Q 41.9375 67.234375 44.765625 62.859375 
Q 47.609375 58.5 49.21875 52.21875 
Q 50.828125 45.953125 50.828125 35.296875 
Q 50.828125 22.703125 48.234375 14.96875 
Q 45.65625 7.234375 40.5 3 
Q 35.359375 -1.21875 27.484375 -1.21875 
Q 17.140625 -1.21875 11.234375 6.203125 
Q 4.15625 15.140625 4.15625 35.296875 
z
M 13.1875 35.296875 
Q 13.1875 17.671875 17.3125 11.828125 
Q 21.4375 6 27.484375 6 
Q 33.546875 6 37.671875 11.859375 
Q 41.796875 17.71875 41.796875 35.296875 
Q 41.796875 52.984375 37.671875 58.78125 
Q 33.546875 64.59375 27.390625 64.59375 
Q 21.34375 64.59375 17.71875 59.46875 
Q 13.1875 52.9375 13.1875 35.296875 
z
" id="ArialMT-48"/>
        <path d="M 9.078125 0 
L 9.078125 10.015625 
L 19.09375 10.015625 
L 19.09375 0 
z
" id="ArialMT-46"/>
       </defs>
       <use xlink:href="#ArialMT-48"/>
       <use x="55.615234" xlink:href="#ArialMT-46"/>
       <use x="83.398438" xlink:href="#ArialMT-48"/>
      </g>
     </g>
    </g>
    <g id="xtick_2">
     <g id="line2d_2">
      <path clip-path="url(#p60943aa19b)" d="M 225.423835 548.170687 
L 225.423835 26.314687 
" style="fill:none;stroke:#ffffff;stroke-linecap:round;stroke-width:1.5;"/>
     </g>
     <g id="text_2">
      <!-- 0.2 -->
      <g style="fill:#262626;" transform="translate(213.956335 572.481078)scale(0.165 -0.165)">
       <defs>
        <path d="M 50.34375 8.453125 
L 50.34375 0 
L 3.03125 0 
Q 2.9375 3.171875 4.046875 6.109375 
Q 5.859375 10.9375 9.828125 15.625 
Q 13.8125 20.3125 21.34375 26.46875 
Q 33.015625 36.03125 37.109375 41.625 
Q 41.21875 47.21875 41.21875 52.203125 
Q 41.21875 57.421875 37.46875 61 
Q 33.734375 64.59375 27.734375 64.59375 
Q 21.390625 64.59375 17.578125 60.78125 
Q 13.765625 56.984375 13.71875 50.25 
L 4.6875 51.171875 
Q 5.609375 61.28125 11.65625 66.578125 
Q 17.71875 71.875 27.9375 71.875 
Q 38.234375 71.875 44.234375 66.15625 
Q 50.25 60.453125 50.25 52 
Q 50.25 47.703125 48.484375 43.546875 
Q 46.734375 39.40625 42.65625 34.8125 
Q 38.578125 30.21875 29.109375 22.21875 
Q 21.1875 15.578125 18.9375 13.203125 
Q 16.703125 10.84375 15.234375 8.453125 
z
" id="ArialMT-50"/>
       </defs>
       <use xlink:href="#ArialMT-48"/>
       <use x="55.615234" xlink:href="#ArialMT-46"/>
       <use x="83.398438" xlink:href="#ArialMT-50"/>
      </g>
     </g>
    </g>
    <g id="xtick_3">
     <g id="line2d_3">
      <path clip-path="url(#p60943aa19b)" d="M 355.285653 548.170687 
L 355.285653 26.314687 
" style="fill:none;stroke:#ffffff;stroke-linecap:round;stroke-width:1.5;"/>
     </g>
     <g id="text_3">
      <!-- 0.4 -->
      <g style="fill:#262626;" transform="translate(343.818153 572.481078)scale(0.165 -0.165)">
       <defs>
        <path d="M 32.328125 0 
L 32.328125 17.140625 
L 1.265625 17.140625 
L 1.265625 25.203125 
L 33.9375 71.578125 
L 41.109375 71.578125 
L 41.109375 25.203125 
L 50.78125 25.203125 
L 50.78125 17.140625 
L 41.109375 17.140625 
L 41.109375 0 
z
M 32.328125 25.203125 
L 32.328125 57.46875 
L 9.90625 25.203125 
z
" id="ArialMT-52"/>
       </defs>
       <use xlink:href="#ArialMT-48"/>
       <use x="55.615234" xlink:href="#ArialMT-46"/>
       <use x="83.398438" xlink:href="#ArialMT-52"/>
      </g>
     </g>
    </g>
    <g id="xtick_4">
     <g id="line2d_4">
      <path clip-path="url(#p60943aa19b)" d="M 485.147472 548.170687 
L 485.147472 26.314687 
" style="fill:none;stroke:#ffffff;stroke-linecap:round;stroke-width:1.5;"/>
     </g>
     <g id="text_4">
      <!-- 0.6 -->
      <g style="fill:#262626;" transform="translate(473.679972 572.481078)scale(0.165 -0.165)">
       <defs>
        <path d="M 49.75 54.046875 
L 41.015625 53.375 
Q 39.84375 58.546875 37.703125 60.890625 
Q 34.125 64.65625 28.90625 64.65625 
Q 24.703125 64.65625 21.53125 62.3125 
Q 17.390625 59.28125 14.984375 53.46875 
Q 12.59375 47.65625 12.5 36.921875 
Q 15.671875 41.75 20.265625 44.09375 
Q 24.859375 46.4375 29.890625 46.4375 
Q 38.671875 46.4375 44.84375 39.96875 
Q 51.03125 33.5 51.03125 23.25 
Q 51.03125 16.5 48.125 10.71875 
Q 45.21875 4.9375 40.140625 1.859375 
Q 35.0625 -1.21875 28.609375 -1.21875 
Q 17.625 -1.21875 10.6875 6.859375 
Q 3.765625 14.9375 3.765625 33.5 
Q 3.765625 54.25 11.421875 63.671875 
Q 18.109375 71.875 29.4375 71.875 
Q 37.890625 71.875 43.28125 67.140625 
Q 48.6875 62.40625 49.75 54.046875 
z
M 13.875 23.1875 
Q 13.875 18.65625 15.796875 14.5 
Q 17.71875 10.359375 21.1875 8.171875 
Q 24.65625 6 28.46875 6 
Q 34.03125 6 38.03125 10.484375 
Q 42.046875 14.984375 42.046875 22.703125 
Q 42.046875 30.125 38.078125 34.390625 
Q 34.125 38.671875 28.125 38.671875 
Q 22.171875 38.671875 18.015625 34.390625 
Q 13.875 30.125 13.875 23.1875 
z
" id="ArialMT-54"/>
       </defs>
       <use xlink:href="#ArialMT-48"/>
       <use x="55.615234" xlink:href="#ArialMT-46"/>
       <use x="83.398438" xlink:href="#ArialMT-54"/>
      </g>
     </g>
    </g>
    <g id="xtick_5">
     <g id="line2d_5">
      <path clip-path="url(#p60943aa19b)" d="M 615.00929 548.170687 
L 615.00929 26.314687 
" style="fill:none;stroke:#ffffff;stroke-linecap:round;stroke-width:1.5;"/>
     </g>
     <g id="text_5">
      <!-- 0.8 -->
      <g style="fill:#262626;" transform="translate(603.54179 572.481078)scale(0.165 -0.165)">
       <defs>
        <path d="M 17.671875 38.8125 
Q 12.203125 40.828125 9.5625 44.53125 
Q 6.9375 48.25 6.9375 53.421875 
Q 6.9375 61.234375 12.546875 66.546875 
Q 18.171875 71.875 27.484375 71.875 
Q 36.859375 71.875 42.578125 66.421875 
Q 48.296875 60.984375 48.296875 53.171875 
Q 48.296875 48.1875 45.671875 44.5 
Q 43.0625 40.828125 37.75 38.8125 
Q 44.34375 36.671875 47.78125 31.875 
Q 51.21875 27.09375 51.21875 20.453125 
Q 51.21875 11.28125 44.71875 5.03125 
Q 38.234375 -1.21875 27.640625 -1.21875 
Q 17.046875 -1.21875 10.546875 5.046875 
Q 4.046875 11.328125 4.046875 20.703125 
Q 4.046875 27.6875 7.59375 32.390625 
Q 11.140625 37.109375 17.671875 38.8125 
z
M 15.921875 53.71875 
Q 15.921875 48.640625 19.1875 45.40625 
Q 22.46875 42.1875 27.6875 42.1875 
Q 32.765625 42.1875 36.015625 45.375 
Q 39.265625 48.578125 39.265625 53.21875 
Q 39.265625 58.0625 35.90625 61.359375 
Q 32.5625 64.65625 27.59375 64.65625 
Q 22.5625 64.65625 19.234375 61.421875 
Q 15.921875 58.203125 15.921875 53.71875 
z
M 13.09375 20.65625 
Q 13.09375 16.890625 14.875 13.375 
Q 16.65625 9.859375 20.171875 7.921875 
Q 23.6875 6 27.734375 6 
Q 34.03125 6 38.125 10.046875 
Q 42.234375 14.109375 42.234375 20.359375 
Q 42.234375 26.703125 38.015625 30.859375 
Q 33.796875 35.015625 27.4375 35.015625 
Q 21.234375 35.015625 17.15625 30.90625 
Q 13.09375 26.8125 13.09375 20.65625 
z
" id="ArialMT-56"/>
       </defs>
       <use xlink:href="#ArialMT-48"/>
       <use x="55.615234" xlink:href="#ArialMT-46"/>
       <use x="83.398438" xlink:href="#ArialMT-56"/>
      </g>
     </g>
    </g>
    <g id="xtick_6">
     <g id="line2d_6">
      <path clip-path="url(#p60943aa19b)" d="M 744.871108 548.170687 
L 744.871108 26.314687 
" style="fill:none;stroke:#ffffff;stroke-linecap:round;stroke-width:1.5;"/>
     </g>
     <g id="text_6">
      <!-- 1.0 -->
      <g style="fill:#262626;" transform="translate(733.403608 572.481078)scale(0.165 -0.165)">
       <defs>
        <path d="M 37.25 0 
L 28.46875 0 
L 28.46875 56 
Q 25.296875 52.984375 20.140625 49.953125 
Q 14.984375 46.921875 10.890625 45.40625 
L 10.890625 53.90625 
Q 18.265625 57.375 23.78125 62.296875 
Q 29.296875 67.234375 31.59375 71.875 
L 37.25 71.875 
z
" id="ArialMT-49"/>
       </defs>
       <use xlink:href="#ArialMT-49"/>
       <use x="55.615234" xlink:href="#ArialMT-46"/>
       <use x="83.398438" xlink:href="#ArialMT-48"/>
      </g>
     </g>
    </g>
    <g id="text_7">
     <!-- false positive rate -->
     <g style="fill:#262626;" transform="translate(350.185313 592.863891)scale(0.18 -0.18)">
      <defs>
       <path d="M 8.6875 0 
L 8.6875 45.015625 
L 0.921875 45.015625 
L 0.921875 51.859375 
L 8.6875 51.859375 
L 8.6875 57.375 
Q 8.6875 62.59375 9.625 65.140625 
Q 10.890625 68.5625 14.078125 70.671875 
Q 17.28125 72.796875 23.046875 72.796875 
Q 26.765625 72.796875 31.25 71.921875 
L 29.9375 64.265625 
Q 27.203125 64.75 24.75 64.75 
Q 20.75 64.75 19.09375 63.03125 
Q 17.4375 61.328125 17.4375 56.640625 
L 17.4375 51.859375 
L 27.546875 51.859375 
L 27.546875 45.015625 
L 17.4375 45.015625 
L 17.4375 0 
z
" id="ArialMT-102"/>
       <path d="M 40.4375 6.390625 
Q 35.546875 2.25 31.03125 0.53125 
Q 26.515625 -1.171875 21.34375 -1.171875 
Q 12.796875 -1.171875 8.203125 3 
Q 3.609375 7.171875 3.609375 13.671875 
Q 3.609375 17.484375 5.34375 20.625 
Q 7.078125 23.78125 9.890625 25.6875 
Q 12.703125 27.59375 16.21875 28.5625 
Q 18.796875 29.25 24.03125 29.890625 
Q 34.671875 31.15625 39.703125 32.90625 
Q 39.75 34.71875 39.75 35.203125 
Q 39.75 40.578125 37.25 42.78125 
Q 33.890625 45.75 27.25 45.75 
Q 21.046875 45.75 18.09375 43.578125 
Q 15.140625 41.40625 13.71875 35.890625 
L 5.125 37.0625 
Q 6.296875 42.578125 8.984375 45.96875 
Q 11.671875 49.359375 16.75 51.1875 
Q 21.828125 53.03125 28.515625 53.03125 
Q 35.15625 53.03125 39.296875 51.46875 
Q 43.453125 49.90625 45.40625 47.53125 
Q 47.359375 45.171875 48.140625 41.546875 
Q 48.578125 39.3125 48.578125 33.453125 
L 48.578125 21.734375 
Q 48.578125 9.46875 49.140625 6.21875 
Q 49.703125 2.984375 51.375 0 
L 42.1875 0 
Q 40.828125 2.734375 40.4375 6.390625 
z
M 39.703125 26.03125 
Q 34.90625 24.078125 25.34375 22.703125 
Q 19.921875 21.921875 17.671875 20.9375 
Q 15.4375 19.96875 14.203125 18.09375 
Q 12.984375 16.21875 12.984375 13.921875 
Q 12.984375 10.40625 15.640625 8.0625 
Q 18.3125 5.71875 23.4375 5.71875 
Q 28.515625 5.71875 32.46875 7.9375 
Q 36.421875 10.15625 38.28125 14.015625 
Q 39.703125 17 39.703125 22.796875 
z
" id="ArialMT-97"/>
       <path d="M 6.390625 0 
L 6.390625 71.578125 
L 15.1875 71.578125 
L 15.1875 0 
z
" id="ArialMT-108"/>
       <path d="M 3.078125 15.484375 
L 11.765625 16.84375 
Q 12.5 11.625 15.84375 8.84375 
Q 19.1875 6.0625 25.203125 6.0625 
Q 31.25 6.0625 34.171875 8.515625 
Q 37.109375 10.984375 37.109375 14.3125 
Q 37.109375 17.28125 34.515625 19 
Q 32.71875 20.171875 25.53125 21.96875 
Q 15.875 24.421875 12.140625 26.203125 
Q 8.40625 27.984375 6.46875 31.125 
Q 4.546875 34.28125 4.546875 38.09375 
Q 4.546875 41.546875 6.125 44.5 
Q 7.71875 47.46875 10.453125 49.421875 
Q 12.5 50.921875 16.03125 51.96875 
Q 19.578125 53.03125 23.640625 53.03125 
Q 29.734375 53.03125 34.34375 51.265625 
Q 38.96875 49.515625 41.15625 46.5 
Q 43.359375 43.5 44.1875 38.484375 
L 35.59375 37.3125 
Q 35.015625 41.3125 32.203125 43.546875 
Q 29.390625 45.796875 24.265625 45.796875 
Q 18.21875 45.796875 15.625 43.796875 
Q 13.03125 41.796875 13.03125 39.109375 
Q 13.03125 37.40625 14.109375 36.03125 
Q 15.1875 34.625 17.484375 33.6875 
Q 18.796875 33.203125 25.25 31.453125 
Q 34.578125 28.953125 38.25 27.359375 
Q 41.9375 25.78125 44.03125 22.75 
Q 46.140625 19.734375 46.140625 15.234375 
Q 46.140625 10.84375 43.578125 6.953125 
Q 41.015625 3.078125 36.171875 0.953125 
Q 31.34375 -1.171875 25.25 -1.171875 
Q 15.140625 -1.171875 9.84375 3.03125 
Q 4.546875 7.234375 3.078125 15.484375 
z
" id="ArialMT-115"/>
       <path d="M 42.09375 16.703125 
L 51.171875 15.578125 
Q 49.03125 7.625 43.21875 3.21875 
Q 37.40625 -1.171875 28.375 -1.171875 
Q 17 -1.171875 10.328125 5.828125 
Q 3.65625 12.84375 3.65625 25.484375 
Q 3.65625 38.578125 10.390625 45.796875 
Q 17.140625 53.03125 27.875 53.03125 
Q 38.28125 53.03125 44.875 45.953125 
Q 51.46875 38.875 51.46875 26.03125 
Q 51.46875 25.25 51.421875 23.6875 
L 12.75 23.6875 
Q 13.234375 15.140625 17.578125 10.59375 
Q 21.921875 6.0625 28.421875 6.0625 
Q 33.25 6.0625 36.671875 8.59375 
Q 40.09375 11.140625 42.09375 16.703125 
z
M 13.234375 30.90625 
L 42.1875 30.90625 
Q 41.609375 37.453125 38.875 40.71875 
Q 34.671875 45.796875 27.984375 45.796875 
Q 21.921875 45.796875 17.796875 41.75 
Q 13.671875 37.703125 13.234375 30.90625 
z
" id="ArialMT-101"/>
       <path id="ArialMT-32"/>
       <path d="M 6.59375 -19.875 
L 6.59375 51.859375 
L 14.59375 51.859375 
L 14.59375 45.125 
Q 17.4375 49.078125 21 51.046875 
Q 24.5625 53.03125 29.640625 53.03125 
Q 36.28125 53.03125 41.359375 49.609375 
Q 46.4375 46.1875 49.015625 39.953125 
Q 51.609375 33.734375 51.609375 26.3125 
Q 51.609375 18.359375 48.75 11.984375 
Q 45.90625 5.609375 40.453125 2.21875 
Q 35.015625 -1.171875 29 -1.171875 
Q 24.609375 -1.171875 21.109375 0.6875 
Q 17.625 2.546875 15.375 5.375 
L 15.375 -19.875 
z
M 14.546875 25.640625 
Q 14.546875 15.625 18.59375 10.84375 
Q 22.65625 6.0625 28.421875 6.0625 
Q 34.28125 6.0625 38.453125 11.015625 
Q 42.625 15.96875 42.625 26.375 
Q 42.625 36.28125 38.546875 41.203125 
Q 34.46875 46.140625 28.8125 46.140625 
Q 23.1875 46.140625 18.859375 40.890625 
Q 14.546875 35.640625 14.546875 25.640625 
z
" id="ArialMT-112"/>
       <path d="M 3.328125 25.921875 
Q 3.328125 40.328125 11.328125 47.265625 
Q 18.015625 53.03125 27.640625 53.03125 
Q 38.328125 53.03125 45.109375 46.015625 
Q 51.90625 39.015625 51.90625 26.65625 
Q 51.90625 16.65625 48.90625 10.90625 
Q 45.90625 5.171875 40.15625 2 
Q 34.421875 -1.171875 27.640625 -1.171875 
Q 16.75 -1.171875 10.03125 5.8125 
Q 3.328125 12.796875 3.328125 25.921875 
z
M 12.359375 25.921875 
Q 12.359375 15.96875 16.703125 11.015625 
Q 21.046875 6.0625 27.640625 6.0625 
Q 34.1875 6.0625 38.53125 11.03125 
Q 42.875 16.015625 42.875 26.21875 
Q 42.875 35.84375 38.5 40.796875 
Q 34.125 45.75 27.640625 45.75 
Q 21.046875 45.75 16.703125 40.8125 
Q 12.359375 35.890625 12.359375 25.921875 
z
" id="ArialMT-111"/>
       <path d="M 6.640625 61.46875 
L 6.640625 71.578125 
L 15.4375 71.578125 
L 15.4375 61.46875 
z
M 6.640625 0 
L 6.640625 51.859375 
L 15.4375 51.859375 
L 15.4375 0 
z
" id="ArialMT-105"/>
       <path d="M 25.78125 7.859375 
L 27.046875 0.09375 
Q 23.34375 -0.6875 20.40625 -0.6875 
Q 15.625 -0.6875 12.984375 0.828125 
Q 10.359375 2.34375 9.28125 4.8125 
Q 8.203125 7.28125 8.203125 15.1875 
L 8.203125 45.015625 
L 1.765625 45.015625 
L 1.765625 51.859375 
L 8.203125 51.859375 
L 8.203125 64.703125 
L 16.9375 69.96875 
L 16.9375 51.859375 
L 25.78125 51.859375 
L 25.78125 45.015625 
L 16.9375 45.015625 
L 16.9375 14.703125 
Q 16.9375 10.9375 17.40625 9.859375 
Q 17.875 8.796875 18.921875 8.15625 
Q 19.96875 7.515625 21.921875 7.515625 
Q 23.390625 7.515625 25.78125 7.859375 
z
" id="ArialMT-116"/>
       <path d="M 21 0 
L 1.265625 51.859375 
L 10.546875 51.859375 
L 21.6875 20.796875 
Q 23.484375 15.765625 25 10.359375 
Q 26.171875 14.453125 28.265625 20.21875 
L 39.796875 51.859375 
L 48.828125 51.859375 
L 29.203125 0 
z
" id="ArialMT-118"/>
       <path d="M 6.5 0 
L 6.5 51.859375 
L 14.40625 51.859375 
L 14.40625 44 
Q 17.4375 49.515625 20 51.265625 
Q 22.5625 53.03125 25.640625 53.03125 
Q 30.078125 53.03125 34.671875 50.203125 
L 31.640625 42.046875 
Q 28.421875 43.953125 25.203125 43.953125 
Q 22.3125 43.953125 20.015625 42.21875 
Q 17.71875 40.484375 16.75 37.40625 
Q 15.28125 32.71875 15.28125 27.15625 
L 15.28125 0 
z
" id="ArialMT-114"/>
      </defs>
      <use xlink:href="#ArialMT-102"/>
      <use x="27.783203" xlink:href="#ArialMT-97"/>
      <use x="83.398438" xlink:href="#ArialMT-108"/>
      <use x="105.615234" xlink:href="#ArialMT-115"/>
      <use x="155.615234" xlink:href="#ArialMT-101"/>
      <use x="211.230469" xlink:href="#ArialMT-32"/>
      <use x="239.013672" xlink:href="#ArialMT-112"/>
      <use x="294.628906" xlink:href="#ArialMT-111"/>
      <use x="350.244141" xlink:href="#ArialMT-115"/>
      <use x="400.244141" xlink:href="#ArialMT-105"/>
      <use x="422.460938" xlink:href="#ArialMT-116"/>
      <use x="450.244141" xlink:href="#ArialMT-105"/>
      <use x="472.460938" xlink:href="#ArialMT-118"/>
      <use x="522.460938" xlink:href="#ArialMT-101"/>
      <use x="578.076172" xlink:href="#ArialMT-32"/>
      <use x="605.859375" xlink:href="#ArialMT-114"/>
      <use x="639.160156" xlink:href="#ArialMT-97"/>
      <use x="694.775391" xlink:href="#ArialMT-116"/>
      <use x="722.558594" xlink:href="#ArialMT-101"/>
     </g>
    </g>
   </g>
   <g id="matplotlib.axis_2">
    <g id="ytick_1">
     <g id="line2d_7">
      <path clip-path="url(#p60943aa19b)" d="M 63.096563 524.44996 
L 777.336563 524.44996 
" style="fill:none;stroke:#ffffff;stroke-linecap:round;stroke-width:1.5;"/>
     </g>
     <g id="text_8">
      <!-- 0.0 -->
      <g style="fill:#262626;" transform="translate(27.661563 530.355156)scale(0.165 -0.165)">
       <use xlink:href="#ArialMT-48"/>
       <use x="55.615234" xlink:href="#ArialMT-46"/>
       <use x="83.398438" xlink:href="#ArialMT-48"/>
      </g>
     </g>
    </g>
    <g id="ytick_2">
     <g id="line2d_8">
      <path clip-path="url(#p60943aa19b)" d="M 63.096563 429.567051 
L 777.336563 429.567051 
" style="fill:none;stroke:#ffffff;stroke-linecap:round;stroke-width:1.5;"/>
     </g>
     <g id="text_9">
      <!-- 0.2 -->
      <g style="fill:#262626;" transform="translate(27.661563 435.472246)scale(0.165 -0.165)">
       <use xlink:href="#ArialMT-48"/>
       <use x="55.615234" xlink:href="#ArialMT-46"/>
       <use x="83.398438" xlink:href="#ArialMT-50"/>
      </g>
     </g>
    </g>
    <g id="ytick_3">
     <g id="line2d_9">
      <path clip-path="url(#p60943aa19b)" d="M 63.096563 334.684142 
L 777.336563 334.684142 
" style="fill:none;stroke:#ffffff;stroke-linecap:round;stroke-width:1.5;"/>
     </g>
     <g id="text_10">
      <!-- 0.4 -->
      <g style="fill:#262626;" transform="translate(27.661563 340.589337)scale(0.165 -0.165)">
       <use xlink:href="#ArialMT-48"/>
       <use x="55.615234" xlink:href="#ArialMT-46"/>
       <use x="83.398438" xlink:href="#ArialMT-52"/>
      </g>
     </g>
    </g>
    <g id="ytick_4">
     <g id="line2d_10">
      <path clip-path="url(#p60943aa19b)" d="M 63.096563 239.801233 
L 777.336563 239.801233 
" style="fill:none;stroke:#ffffff;stroke-linecap:round;stroke-width:1.5;"/>
     </g>
     <g id="text_11">
      <!-- 0.6 -->
      <g style="fill:#262626;" transform="translate(27.661563 245.706428)scale(0.165 -0.165)">
       <use xlink:href="#ArialMT-48"/>
       <use x="55.615234" xlink:href="#ArialMT-46"/>
       <use x="83.398438" xlink:href="#ArialMT-54"/>
      </g>
     </g>
    </g>
    <g id="ytick_5">
     <g id="line2d_11">
      <path clip-path="url(#p60943aa19b)" d="M 63.096563 144.918324 
L 777.336563 144.918324 
" style="fill:none;stroke:#ffffff;stroke-linecap:round;stroke-width:1.5;"/>
     </g>
     <g id="text_12">
      <!-- 0.8 -->
      <g style="fill:#262626;" transform="translate(27.661563 150.823519)scale(0.165 -0.165)">
       <use xlink:href="#ArialMT-48"/>
       <use x="55.615234" xlink:href="#ArialMT-46"/>
       <use x="83.398438" xlink:href="#ArialMT-56"/>
      </g>
     </g>
    </g>
    <g id="ytick_6">
     <g id="line2d_12">
      <path clip-path="url(#p60943aa19b)" d="M 63.096563 50.035415 
L 777.336563 50.035415 
" style="fill:none;stroke:#ffffff;stroke-linecap:round;stroke-width:1.5;"/>
     </g>
     <g id="text_13">
      <!-- 1.0 -->
      <g style="fill:#262626;" transform="translate(27.661563 55.94061)scale(0.165 -0.165)">
       <use xlink:href="#ArialMT-49"/>
       <use x="55.615234" xlink:href="#ArialMT-46"/>
       <use x="83.398438" xlink:href="#ArialMT-48"/>
      </g>
     </g>
    </g>
    <g id="text_14">
     <!-- true positive rate -->
     <g style="fill:#262626;" transform="translate(20.084062 353.770969)rotate(-90)scale(0.18 -0.18)">
      <defs>
       <path d="M 40.578125 0 
L 40.578125 7.625 
Q 34.515625 -1.171875 24.125 -1.171875 
Q 19.53125 -1.171875 15.546875 0.578125 
Q 11.578125 2.34375 9.640625 5 
Q 7.71875 7.671875 6.9375 11.53125 
Q 6.390625 14.109375 6.390625 19.734375 
L 6.390625 51.859375 
L 15.1875 51.859375 
L 15.1875 23.09375 
Q 15.1875 16.21875 15.71875 13.8125 
Q 16.546875 10.359375 19.234375 8.375 
Q 21.921875 6.390625 25.875 6.390625 
Q 29.828125 6.390625 33.296875 8.421875 
Q 36.765625 10.453125 38.203125 13.9375 
Q 39.65625 17.4375 39.65625 24.078125 
L 39.65625 51.859375 
L 48.4375 51.859375 
L 48.4375 0 
z
" id="ArialMT-117"/>
      </defs>
      <use xlink:href="#ArialMT-116"/>
      <use x="27.783203" xlink:href="#ArialMT-114"/>
      <use x="61.083984" xlink:href="#ArialMT-117"/>
      <use x="116.699219" xlink:href="#ArialMT-101"/>
      <use x="172.314453" xlink:href="#ArialMT-32"/>
      <use x="200.097656" xlink:href="#ArialMT-112"/>
      <use x="255.712891" xlink:href="#ArialMT-111"/>
      <use x="311.328125" xlink:href="#ArialMT-115"/>
      <use x="361.328125" xlink:href="#ArialMT-105"/>
      <use x="383.544922" xlink:href="#ArialMT-116"/>
      <use x="411.328125" xlink:href="#ArialMT-105"/>
      <use x="433.544922" xlink:href="#ArialMT-118"/>
      <use x="483.544922" xlink:href="#ArialMT-101"/>
      <use x="539.160156" xlink:href="#ArialMT-32"/>
      <use x="566.943359" xlink:href="#ArialMT-114"/>
      <use x="600.244141" xlink:href="#ArialMT-97"/>
      <use x="655.859375" xlink:href="#ArialMT-116"/>
      <use x="683.642578" xlink:href="#ArialMT-101"/>
     </g>
    </g>
   </g>
   <g id="line2d_13">
    <path clip-path="url(#p60943aa19b)" d="M 95.562017 524.44996 
L 744.871108 50.035415 
" style="fill:none;stroke:#000000;stroke-dasharray:14.4,3.6,2.25,3.6;stroke-dashoffset:0;stroke-width:2.25;"/>
   </g>
   <g id="line2d_14">
    <path clip-path="url(#p60943aa19b)" d="M 95.562017 524.44996 
L 95.692979 524.44996 
L 96.47875 518.802168 
L 96.740674 513.154376 
L 96.871636 507.506584 
L 97.657407 501.858791 
L 97.919331 501.858791 
L 98.705103 496.210999 
L 99.097988 490.563207 
L 99.359912 490.563207 
L 100.276645 475.502428 
L 101.062417 451.028662 
L 101.586264 439.733077 
L 102.241074 434.085285 
L 106.300893 434.085285 
L 106.431855 422.7897 
L 107.741474 405.846324 
L 109.57494 388.902947 
L 112.063216 371.959571 
L 114.42053 366.311778 
L 123.587863 366.311778 
L 126.730949 355.016194 
L 127.385758 343.72061 
L 133.410006 343.72061 
L 140.743872 332.425025 
L 153.7091 332.425025 
L 154.232947 326.777233 
L 155.280643 321.129441 
L 161.959699 321.129441 
L 163.662204 315.481649 
L 163.793166 309.833856 
L 164.05509 309.833856 
L 167.198175 304.186064 
L 169.031642 298.538272 
L 169.817413 298.538272 
L 170.079337 287.242687 
L 171.127032 275.947103 
L 181.080137 275.947103 
L 181.603984 259.003726 
L 181.865908 242.06035 
L 210.939449 242.06035 
L 211.201373 230.764765 
L 219.713896 230.764765 
L 219.97582 219.469181 
L 220.63063 208.173597 
L 230.714696 208.173597 
L 231.107582 202.525804 
L 231.893353 196.878012 
L 268.95557 196.878012 
L 269.872303 191.23022 
L 270.003265 185.582428 
L 272.753465 185.582428 
L 273.277313 179.934636 
L 274.063084 174.286843 
L 290.30236 174.286843 
L 290.695245 168.639051 
L 290.957169 162.991259 
L 298.291035 162.991259 
L 298.945845 157.343467 
L 300.779311 151.695675 
L 344.258662 151.695675 
L 344.520585 146.047882 
L 345.044433 140.40009 
L 409.870573 140.40009 
L 410.656344 106.513337 
L 412.358849 106.513337 
L 412.751734 100.865545 
L 414.847125 95.217752 
L 609.194581 95.217752 
L 609.587467 89.56996 
L 610.111315 83.922168 
L 688.164606 83.922168 
L 688.950377 78.274376 
L 689.212301 61.330999 
L 691.307692 50.035415 
L 744.871108 50.035415 
L 744.871108 50.035415 
" style="fill:none;stroke:#f77189;stroke-linecap:round;stroke-width:2.25;"/>
   </g>
   <g id="line2d_15">
    <path clip-path="url(#p60943aa19b)" d="M 95.562017 521.358396 
L 95.70385 516.018422 
L 95.845682 478.751024 
L 95.987514 402.018673 
L 96.696677 266.257526 
L 96.838509 258.950193 
L 97.264007 120.860335 
L 97.547672 115.23931 
L 97.831337 103.997259 
L 97.973169 83.761567 
L 98.256834 81.513157 
L 98.965997 79.264747 
L 99.107829 71.676363 
L 99.675159 58.466953 
L 99.816991 52.845927 
L 107.334113 50.035415 
L 744.871108 50.035415 
L 744.871108 50.035415 
" style="fill:none;stroke:#e68332;stroke-dasharray:9,3.375;stroke-dashoffset:0;stroke-width:2.25;"/>
   </g>
   <g id="line2d_16">
    <path clip-path="url(#p60943aa19b)" d="M 95.562017 524.44996 
L 95.693005 513.417064 
L 96.347947 496.867719 
L 96.609924 485.834823 
L 97.264865 480.318375 
L 97.526842 480.318375 
L 97.65783 474.801926 
L 99.622655 458.252582 
L 105.648118 419.637444 
L 105.779106 408.604548 
L 106.041082 397.571652 
L 106.958001 381.022307 
L 107.350966 369.989411 
L 107.612942 369.989411 
L 107.743931 358.956514 
L 108.398872 342.40717 
L 108.791837 336.890721 
L 109.053814 336.890721 
L 109.577767 331.374273 
L 112.197533 298.275584 
L 112.983463 292.759136 
L 113.24544 292.759136 
L 113.376428 287.242687 
L 114.555323 270.693343 
L 116.520148 254.143998 
L 119.794856 243.111102 
L 120.187821 232.078205 
L 121.890669 226.561757 
L 122.152646 226.561757 
L 123.593517 221.045309 
L 124.641424 204.495964 
L 125.951307 193.463068 
L 126.213283 193.463068 
L 129.880956 187.94662 
L 131.583804 182.430172 
L 137.085314 182.430172 
L 138.13322 176.913723 
L 138.788162 171.397275 
L 139.050139 171.397275 
L 139.443103 165.880827 
L 140.621998 154.847931 
L 142.06287 149.331482 
L 150.446122 149.331482 
L 169.046463 143.815034 
L 169.832393 138.298586 
L 185.158026 138.298586 
L 185.943956 127.26569 
L 186.729886 110.716345 
L 189.611629 105.199897 
L 194.720174 105.199897 
L 196.292033 99.683449 
L 196.946975 94.167 
L 198.518835 94.167 
L 203.496391 83.134104 
L 209.128889 61.068311 
L 213.058538 50.035415 
L 744.871108 50.035415 
L 744.871108 50.035415 
" style="fill:none;stroke:#bb9832;stroke-dasharray:2.25,2.25;stroke-dashoffset:0;stroke-width:2.25;"/>
   </g>
   <g id="line2d_17">
    <path clip-path="url(#p60943aa19b)" d="M 95.562017 487.240976 
L 95.822627 370.962901 
L 96.343846 329.102794 
L 96.604456 329.102794 
L 97.386285 315.149425 
L 98.298419 301.196056 
L 98.559029 301.196056 
L 98.949943 287.242687 
L 100.383297 273.289319 
L 101.295431 273.289319 
L 105.334881 259.33595 
L 110.41677 231.429212 
L 114.325916 217.475843 
L 114.586526 217.475843 
L 115.23805 203.522474 
L 115.49866 189.569105 
L 117.453233 189.569105 
L 117.844147 175.615736 
L 117.974452 161.662367 
L 118.235062 161.662367 
L 121.622988 147.708998 
L 123.316951 133.755629 
L 123.577561 133.755629 
L 123.707866 119.80226 
L 125.792743 105.848891 
L 126.053353 105.848891 
L 131.917072 91.895522 
L 135.435303 77.942153 
L 261.179487 77.942153 
L 261.831012 63.988784 
L 267.95534 50.035415 
L 744.871108 50.035415 
L 744.871108 50.035415 
" style="fill:none;stroke:#97a431;stroke-dasharray:6.75,2.8125,3.375,2.8125;stroke-dashoffset:0;stroke-width:2.25;"/>
   </g>
   <g id="line2d_18">
    <path clip-path="url(#p60943aa19b)" d="M 95.562017 524.44996 
L 95.692322 524.44996 
L 95.952932 510.496591 
L 97.125675 482.589853 
L 97.7772 426.776377 
L 99.340858 343.056163 
L 100.252992 301.196056 
L 100.513602 301.196056 
L 108.983417 287.242687 
L 109.634941 231.429212 
L 111.719819 189.569105 
L 113.413782 189.569105 
L 116.150184 175.615736 
L 116.541099 147.708998 
L 119.147196 119.80226 
L 120.841159 105.848891 
L 165.014505 105.848891 
L 165.144809 91.895522 
L 166.708468 77.942153 
L 191.20578 77.942153 
L 202.021083 63.988784 
L 206.451448 50.035415 
L 744.871108 50.035415 
L 744.871108 50.035415 
" style="fill:none;stroke:#50b131;stroke-dasharray:11.25,2.25,2.25,2.25;stroke-dashoffset:0;stroke-width:2.25;"/>
   </g>
   <g id="line2d_19">
    <path clip-path="url(#p60943aa19b)" d="M 95.562017 460.521759 
L 95.693111 327.618393 
L 95.955299 297.336614 
L 96.348582 282.195724 
L 97.397334 267.054835 
L 98.183899 262.007871 
L 101.067969 262.007871 
L 101.199063 256.960908 
L 103.689851 246.866982 
L 107.229392 241.820018 
L 107.49158 241.820018 
L 109.72018 236.773055 
L 111.031121 231.726092 
L 111.293309 231.726092 
L 116.405979 226.679129 
L 117.848015 221.632165 
L 118.241297 221.632165 
L 118.765673 216.585202 
L 119.814426 211.538239 
L 156.520775 211.538239 
L 159.273751 206.491276 
L 159.535939 201.444312 
L 216.692968 201.444312 
L 218.135003 186.303423 
L 218.397191 171.162533 
L 243.829447 171.162533 
L 247.368988 166.11557 
L 247.893364 161.068606 
L 278.43829 161.068606 
L 278.700479 156.021643 
L 278.831573 150.97468 
L 324.190132 150.97468 
L 324.714509 120.6929 
L 355.914905 120.6929 
L 356.439282 115.645937 
L 357.35694 110.598974 
L 378.594185 110.598974 
L 380.560596 105.552011 
L 381.216067 100.505047 
L 582.576609 100.505047 
L 583.100985 90.411121 
L 583.494267 80.317194 
L 601.716348 80.317194 
L 602.240724 70.223268 
L 603.813853 60.129341 
L 674.735763 60.129341 
L 676.833269 55.082378 
L 678.14421 50.035415 
L 744.871108 50.035415 
L 744.871108 50.035415 
" style="fill:none;stroke:#34af84;stroke-dasharray:6.75,2.8125,2.8125,2.8125,2.8125,2.8125;stroke-dashoffset:0;stroke-width:2.25;"/>
   </g>
   <g id="line2d_20">
    <path clip-path="url(#p60943aa19b)" d="M 95.562017 519.178687 
L 95.824099 508.636142 
L 96.479305 498.093597 
L 96.872429 487.551051 
L 97.134511 477.008506 
L 97.265553 466.46596 
L 98.838047 455.923415 
L 101.458871 440.109597 
L 101.720953 419.024506 
L 102.114076 403.210687 
L 103.031365 392.668142 
L 104.865941 382.125597 
L 106.438436 376.854324 
L 106.700518 376.854324 
L 107.748848 371.583051 
L 108.141971 361.040506 
L 108.535095 355.769233 
L 108.797177 355.769233 
L 109.190301 350.49796 
L 109.321342 329.412869 
L 114.562989 303.056506 
L 115.611319 287.242687 
L 119.542555 281.971415 
L 127.929191 281.971415 
L 128.060232 271.428869 
L 128.715438 260.886324 
L 128.97752 260.886324 
L 132.646673 250.343778 
L 133.563962 234.52996 
L 134.874374 223.987415 
L 135.005415 218.716142 
L 135.52958 218.716142 
L 135.791662 208.173597 
L 136.184786 208.173597 
L 137.233115 202.902324 
L 137.364156 192.359778 
L 138.674568 187.088506 
L 140.902268 187.088506 
L 142.736845 181.817233 
L 146.53704 171.274687 
L 147.978493 166.003415 
L 149.157863 166.003415 
L 149.682028 160.732142 
L 150.468275 155.460869 
L 164.096559 155.460869 
L 164.489682 150.189597 
L 165.406971 139.647051 
L 174.055689 134.375778 
L 174.317772 134.375778 
L 175.23506 129.104506 
L 175.497142 123.833233 
L 222.147806 123.833233 
L 226.603206 118.56196 
L 227.651535 113.290687 
L 242.852313 113.290687 
L 242.983355 108.019415 
L 245.866261 102.748142 
L 285.178617 102.748142 
L 285.4407 92.205597 
L 285.571741 81.663051 
L 299.855231 81.663051 
L 299.986272 71.120506 
L 300.248354 60.57796 
L 350.568171 60.57796 
L 351.878582 55.306687 
L 356.727106 50.035415 
L 744.871108 50.035415 
L 744.871108 50.035415 
" style="fill:none;stroke:#36ada4;stroke-dasharray:9,2.25,9,2.25,2.25,2.25;stroke-dashoffset:0;stroke-width:2.25;"/>
   </g>
   <g id="line2d_21">
    <path clip-path="url(#p60943aa19b)" d="M 95.562017 524.44996 
L 95.692243 524.44996 
L 96.343376 490.563207 
L 96.864282 422.7897 
L 98.426999 388.902947 
L 99.599037 388.902947 
L 101.812887 371.959571 
L 108.324209 355.016194 
L 130.853386 355.016194 
L 131.374291 338.072817 
L 131.634744 321.129441 
L 177.734908 321.129441 
L 178.125588 304.186064 
L 179.037173 287.242687 
L 180.078985 287.242687 
L 181.381249 253.355934 
L 185.418269 219.469181 
L 238.029756 219.469181 
L 241.155191 202.525804 
L 243.238814 185.582428 
L 261.73097 185.582428 
L 263.684367 151.695675 
L 266.158669 117.808921 
L 344.815447 117.808921 
L 346.378164 100.865545 
L 348.461787 83.922168 
L 544.322371 83.922168 
L 544.713051 66.978791 
L 544.843277 50.035415 
L 744.871108 50.035415 
L 744.871108 50.035415 
" style="fill:none;stroke:#38aabf;stroke-dasharray:6.75,2.8125,6.75,2.8125,2.8125,2.8125;stroke-dashoffset:0;stroke-width:2.25;"/>
   </g>
   <g id="line2d_22">
    <path clip-path="url(#p60943aa19b)" d="M 95.562017 518.664417 
L 95.823888 507.093331 
L 95.954824 495.522244 
L 96.740436 449.237898 
L 97.133243 402.953552 
L 97.526049 391.382466 
L 98.704469 374.025836 
L 99.882888 345.09812 
L 100.537566 339.312577 
L 100.799437 339.312577 
L 101.061308 333.527033 
L 101.977856 321.955947 
L 102.632533 316.170404 
L 102.894404 316.170404 
L 105.64405 310.38486 
L 106.298727 298.813774 
L 107.608082 293.028231 
L 107.869953 293.028231 
L 108.131824 287.242687 
L 108.917437 281.457144 
L 109.179308 281.457144 
L 109.964921 275.671601 
L 111.274276 269.886058 
L 111.536147 269.886058 
L 112.714566 264.100515 
L 116.773566 252.529428 
L 117.559179 240.958342 
L 119.392276 223.601712 
L 119.654147 223.601712 
L 119.916018 217.816169 
L 122.534728 212.030625 
L 122.796599 212.030625 
L 124.891567 200.459539 
L 125.022502 183.102909 
L 126.069986 177.317366 
L 128.426825 177.317366 
L 129.605244 171.531823 
L 129.73618 159.960736 
L 131.831148 148.38965 
L 132.093019 142.604107 
L 132.747696 136.818563 
L 138.901664 131.03302 
L 139.163535 131.03302 
L 140.211019 125.247477 
L 142.829729 119.461934 
L 144.400955 119.461934 
L 146.103116 113.67639 
L 150.423987 102.105304 
L 151.602406 96.319761 
L 151.864277 96.319761 
L 153.304568 84.748674 
L 156.316084 67.392044 
L 156.577955 61.606501 
L 198.477312 61.606501 
L 201.619763 55.820958 
L 214.844248 50.035415 
L 744.871108 50.035415 
L 744.871108 50.035415 
" style="fill:none;stroke:#3ba3ec;stroke-dasharray:9,2.25,2.25,2.25,2.25,2.25;stroke-dashoffset:0;stroke-width:2.25;"/>
   </g>
   <g id="line2d_23">
    <path clip-path="url(#p60943aa19b)" d="M 95.562017 517.860869 
L 97.274886 507.977233 
L 97.538404 504.682687 
L 98.328959 504.682687 
L 98.592477 501.388142 
L 100.700624 494.799051 
L 100.964142 491.504506 
L 101.22766 491.504506 
L 102.940529 488.20996 
L 103.731084 481.620869 
L 106.498026 465.148142 
L 107.025063 465.148142 
L 107.288581 461.853597 
L 108.079136 455.264506 
L 108.474414 445.380869 
L 108.606173 435.497233 
L 109.923764 432.202687 
L 112.16367 432.202687 
L 112.954225 425.613597 
L 113.217743 425.613597 
L 114.008298 415.72996 
L 114.403575 412.435415 
L 114.667094 409.140869 
L 115.19413 405.846324 
L 115.457649 402.551778 
L 116.379963 399.257233 
L 116.906999 399.257233 
L 117.565795 389.373597 
L 117.829313 379.48996 
L 118.092832 379.48996 
L 118.619868 376.195415 
L 119.93746 372.900869 
L 120.991533 372.900869 
L 121.255051 369.606324 
L 121.782088 366.311778 
L 122.045606 363.017233 
L 122.96792 359.722687 
L 123.231439 359.722687 
L 123.363198 356.428142 
L 123.758475 353.133597 
L 124.417271 353.133597 
L 124.812548 343.24996 
L 124.944307 333.366324 
L 125.207826 333.366324 
L 125.471344 330.071778 
L 128.633564 320.188142 
L 128.897082 320.188142 
L 129.424119 300.420869 
L 131.927542 300.420869 
L 132.059302 297.126324 
L 132.32282 293.831778 
L 132.849856 293.831778 
L 133.113375 290.537233 
L 133.245134 287.242687 
L 133.508652 287.242687 
L 134.430966 283.948142 
L 134.694485 280.653597 
L 135.616799 277.359051 
L 136.670872 274.064506 
L 136.93439 274.064506 
L 137.329668 270.76996 
L 138.383741 264.180869 
L 139.042537 260.886324 
L 139.437814 260.886324 
L 141.150683 257.591778 
L 141.414201 247.708142 
L 142.336515 241.119051 
L 144.049384 241.119051 
L 145.103457 237.824506 
L 146.28929 234.52996 
L 146.684567 234.52996 
L 147.079845 211.468142 
L 147.475122 204.879051 
L 150.637342 201.584506 
L 150.90086 201.584506 
L 152.086692 194.995415 
L 152.877247 185.111778 
L 153.667802 181.817233 
L 157.225299 181.817233 
L 158.411132 178.522687 
L 159.465205 175.228142 
L 159.728723 175.228142 
L 162.495665 168.639051 
L 166.053162 162.04996 
L 180.41491 162.04996 
L 182.523056 158.755415 
L 182.786574 155.460869 
L 183.313611 155.460869 
L 183.577129 146.675415 
L 184.631202 135.693597 
L 193.063788 135.693597 
L 193.722584 132.399051 
L 195.435453 129.104506 
L 239.31125 129.104506 
L 239.706527 125.80996 
L 239.970045 122.515415 
L 273.30511 122.515415 
L 273.568629 119.220869 
L 274.490943 115.926324 
L 315.731557 115.926324 
L 315.995075 109.337233 
L 320.211368 102.748142 
L 425.355169 102.748142 
L 425.618688 99.453597 
L 426.013965 96.159051 
L 470.285039 96.159051 
L 470.416799 92.864506 
L 470.680317 89.56996 
L 511.789172 89.56996 
L 513.502041 86.275415 
L 513.6338 82.980869 
L 531.684803 82.980869 
L 533.265913 76.391778 
L 533.79295 69.802687 
L 541.43498 69.802687 
L 541.698499 66.508142 
L 542.357294 63.213597 
L 566.600978 63.213597 
L 566.996256 56.624506 
L 570.685512 50.035415 
L 744.871108 50.035415 
L 744.871108 50.035415 
" style="fill:none;stroke:#a48cf4;stroke-dasharray:6.75,2.8125,2.8125,2.8125,2.8125,2.8125,2.8125,2.8125;stroke-dashoffset:0;stroke-width:2.25;"/>
   </g>
   <g id="line2d_24">
    <path clip-path="url(#p60943aa19b)" d="M 95.562017 524.44996 
L 95.692035 524.44996 
L 96.472142 484.915415 
L 99.202517 405.846324 
L 99.59257 366.311778 
L 103.623123 366.311778 
L 105.833426 287.242687 
L 107.133605 168.639051 
L 107.39364 129.104506 
L 116.234854 129.104506 
L 122.865763 89.56996 
L 126.896316 50.035415 
L 744.871108 50.035415 
L 744.871108 50.035415 
" style="fill:none;stroke:#e866f4;stroke-dasharray:9,2.25,9,2.25,9,2.25,2.25,2.25;stroke-dashoffset:0;stroke-width:2.25;"/>
   </g>
   <g id="line2d_25">
    <path clip-path="url(#p60943aa19b)" d="M 95.562017 414.969681 
L 95.6929 287.242687 
L 96.347313 256.831499 
L 121.215027 256.831499 
L 121.738558 250.749261 
L 122.392971 244.667023 
L 192.938748 244.667023 
L 193.854927 238.584785 
L 194.378458 232.502548 
L 297.383145 232.502548 
L 300.52433 226.42031 
L 300.786096 220.338072 
L 394.367229 220.338072 
L 396.984883 214.255834 
L 398.948123 208.173597 
L 405.230493 208.173597 
L 405.754024 196.009121 
L 460.986525 196.009121 
L 461.379173 189.926883 
L 462.033586 183.844646 
L 500.774866 183.844646 
L 502.476342 147.351219 
L 537.552906 147.351219 
L 539.908795 129.104506 
L 541.348504 110.857792 
L 628.647267 110.857792 
L 628.77815 104.775555 
L 631.919335 98.693317 
L 663.200301 98.693317 
L 663.331184 86.528841 
L 663.854715 74.364366 
L 668.173844 74.364366 
L 673.016504 62.19989 
L 673.932683 50.035415 
L 744.871108 50.035415 
L 744.871108 50.035415 
" style="fill:none;stroke:#f668c2;stroke-dasharray:6.75,2.8125,6.75,2.8125,2.8125,2.8125,2.8125,2.8125;stroke-dashoffset:0;stroke-width:2.25;"/>
   </g>
   <g id="line2d_26"/>
   <g id="line2d_27"/>
   <g id="line2d_28"/>
   <g id="line2d_29"/>
   <g id="line2d_30"/>
   <g id="line2d_31"/>
   <g id="line2d_32"/>
   <g id="line2d_33"/>
   <g id="line2d_34"/>
   <g id="line2d_35"/>
   <g id="line2d_36"/>
   <g id="line2d_37"/>
   <g id="patch_3">
    <path d="M 63.096563 548.170687 
L 63.096563 26.314687 
" style="fill:none;stroke:#ffffff;stroke-linecap:square;stroke-linejoin:miter;stroke-width:1.875;"/>
   </g>
   <g id="patch_4">
    <path d="M 777.336563 548.170687 
L 777.336563 26.314687 
" style="fill:none;stroke:#ffffff;stroke-linecap:square;stroke-linejoin:miter;stroke-width:1.875;"/>
   </g>
   <g id="patch_5">
    <path d="M 63.096563 548.170687 
L 777.336563 548.170687 
" style="fill:none;stroke:#ffffff;stroke-linecap:square;stroke-linejoin:miter;stroke-width:1.875;"/>
   </g>
   <g id="patch_6">
    <path d="M 63.096563 26.314687 
L 777.336563 26.314687 
" style="fill:none;stroke:#ffffff;stroke-linecap:square;stroke-linejoin:miter;stroke-width:1.875;"/>
   </g>
   <g id="text_15">
    <!-- DCGAN_ESQ -->
    <g style="fill:#262626;" transform="translate(363.702188 20.314687)scale(0.18 -0.18)">
     <defs>
      <path d="M 7.71875 0 
L 7.71875 71.578125 
L 32.375 71.578125 
Q 40.71875 71.578125 45.125 70.5625 
Q 51.265625 69.140625 55.609375 65.4375 
Q 61.28125 60.640625 64.078125 53.1875 
Q 66.890625 45.75 66.890625 36.1875 
Q 66.890625 28.03125 64.984375 21.734375 
Q 63.09375 15.4375 60.109375 11.296875 
Q 57.125 7.171875 53.578125 4.796875 
Q 50.046875 2.4375 45.046875 1.21875 
Q 40.046875 0 33.546875 0 
z
M 17.1875 8.453125 
L 32.46875 8.453125 
Q 39.546875 8.453125 43.578125 9.765625 
Q 47.609375 11.078125 50 13.484375 
Q 53.375 16.84375 55.25 22.53125 
Q 57.125 28.21875 57.125 36.328125 
Q 57.125 47.5625 53.4375 53.59375 
Q 49.75 59.625 44.484375 61.671875 
Q 40.671875 63.140625 32.234375 63.140625 
L 17.1875 63.140625 
z
" id="ArialMT-68"/>
      <path d="M 58.796875 25.09375 
L 68.265625 22.703125 
Q 65.28125 11.03125 57.546875 4.90625 
Q 49.8125 -1.21875 38.625 -1.21875 
Q 27.046875 -1.21875 19.796875 3.484375 
Q 12.546875 8.203125 8.765625 17.140625 
Q 4.984375 26.078125 4.984375 36.328125 
Q 4.984375 47.515625 9.25 55.828125 
Q 13.53125 64.15625 21.40625 68.46875 
Q 29.296875 72.796875 38.765625 72.796875 
Q 49.515625 72.796875 56.828125 67.328125 
Q 64.15625 61.859375 67.046875 51.953125 
L 57.71875 49.75 
Q 55.21875 57.5625 50.484375 61.125 
Q 45.75 64.703125 38.578125 64.703125 
Q 30.328125 64.703125 24.78125 60.734375 
Q 19.234375 56.78125 16.984375 50.109375 
Q 14.75 43.453125 14.75 36.375 
Q 14.75 27.25 17.40625 20.4375 
Q 20.0625 13.625 25.671875 10.25 
Q 31.296875 6.890625 37.84375 6.890625 
Q 45.796875 6.890625 51.3125 11.46875 
Q 56.84375 16.0625 58.796875 25.09375 
z
" id="ArialMT-67"/>
      <path d="M 41.21875 28.078125 
L 41.21875 36.46875 
L 71.53125 36.53125 
L 71.53125 9.96875 
Q 64.546875 4.390625 57.125 1.578125 
Q 49.703125 -1.21875 41.890625 -1.21875 
Q 31.34375 -1.21875 22.71875 3.296875 
Q 14.109375 7.8125 9.71875 16.359375 
Q 5.328125 24.90625 5.328125 35.453125 
Q 5.328125 45.90625 9.6875 54.953125 
Q 14.0625 64.015625 22.265625 68.40625 
Q 30.46875 72.796875 41.15625 72.796875 
Q 48.921875 72.796875 55.1875 70.28125 
Q 61.46875 67.78125 65.03125 63.28125 
Q 68.609375 58.796875 70.453125 51.5625 
L 61.921875 49.21875 
Q 60.296875 54.6875 57.90625 57.8125 
Q 55.515625 60.9375 51.0625 62.8125 
Q 46.625 64.703125 41.21875 64.703125 
Q 34.71875 64.703125 29.984375 62.71875 
Q 25.25 60.75 22.34375 57.515625 
Q 19.4375 54.296875 17.828125 50.4375 
Q 15.09375 43.796875 15.09375 36.03125 
Q 15.09375 26.46875 18.390625 20.015625 
Q 21.6875 13.578125 27.984375 10.453125 
Q 34.28125 7.328125 41.359375 7.328125 
Q 47.515625 7.328125 53.375 9.6875 
Q 59.234375 12.0625 62.25 14.75 
L 62.25 28.078125 
z
" id="ArialMT-71"/>
      <path d="M -0.140625 0 
L 27.34375 71.578125 
L 37.546875 71.578125 
L 66.84375 0 
L 56.0625 0 
L 47.703125 21.6875 
L 17.78125 21.6875 
L 9.90625 0 
z
M 20.515625 29.390625 
L 44.78125 29.390625 
L 37.3125 49.21875 
Q 33.890625 58.25 32.234375 64.0625 
Q 30.859375 57.171875 28.375 50.390625 
z
" id="ArialMT-65"/>
      <path d="M 7.625 0 
L 7.625 71.578125 
L 17.328125 71.578125 
L 54.9375 15.375 
L 54.9375 71.578125 
L 64.015625 71.578125 
L 64.015625 0 
L 54.296875 0 
L 16.703125 56.25 
L 16.703125 0 
z
" id="ArialMT-78"/>
      <path d="M -1.515625 -19.875 
L -1.515625 -13.53125 
L 56.734375 -13.53125 
L 56.734375 -19.875 
z
" id="ArialMT-95"/>
      <path d="M 7.90625 0 
L 7.90625 71.578125 
L 59.671875 71.578125 
L 59.671875 63.140625 
L 17.390625 63.140625 
L 17.390625 41.21875 
L 56.984375 41.21875 
L 56.984375 32.8125 
L 17.390625 32.8125 
L 17.390625 8.453125 
L 61.328125 8.453125 
L 61.328125 0 
z
" id="ArialMT-69"/>
      <path d="M 4.5 23 
L 13.421875 23.78125 
Q 14.0625 18.40625 16.375 14.96875 
Q 18.703125 11.53125 23.578125 9.40625 
Q 28.46875 7.28125 34.578125 7.28125 
Q 39.984375 7.28125 44.140625 8.890625 
Q 48.296875 10.5 50.3125 13.296875 
Q 52.34375 16.109375 52.34375 19.4375 
Q 52.34375 22.796875 50.390625 25.3125 
Q 48.4375 27.828125 43.953125 29.546875 
Q 41.0625 30.671875 31.203125 33.03125 
Q 21.34375 35.40625 17.390625 37.5 
Q 12.25 40.1875 9.734375 44.15625 
Q 7.234375 48.140625 7.234375 53.078125 
Q 7.234375 58.5 10.296875 63.203125 
Q 13.375 67.921875 19.28125 70.359375 
Q 25.203125 72.796875 32.421875 72.796875 
Q 40.375 72.796875 46.453125 70.234375 
Q 52.546875 67.671875 55.8125 62.6875 
Q 59.078125 57.71875 59.328125 51.421875 
L 50.25 50.734375 
Q 49.515625 57.515625 45.28125 60.984375 
Q 41.0625 64.453125 32.8125 64.453125 
Q 24.21875 64.453125 20.28125 61.296875 
Q 16.359375 58.15625 16.359375 53.71875 
Q 16.359375 49.859375 19.140625 47.359375 
Q 21.875 44.875 33.421875 42.265625 
Q 44.96875 39.65625 49.265625 37.703125 
Q 55.515625 34.8125 58.484375 30.390625 
Q 61.46875 25.984375 61.46875 20.21875 
Q 61.46875 14.5 58.203125 9.4375 
Q 54.9375 4.390625 48.796875 1.578125 
Q 42.671875 -1.21875 35.015625 -1.21875 
Q 25.296875 -1.21875 18.71875 1.609375 
Q 12.15625 4.4375 8.421875 10.125 
Q 4.6875 15.828125 4.5 23 
z
" id="ArialMT-83"/>
      <path d="M 61.96875 7.671875 
Q 68.5625 3.125 74.125 1.03125 
L 71.34375 -5.5625 
Q 63.625 -2.78125 55.953125 3.21875 
Q 48 -1.21875 38.375 -1.21875 
Q 28.65625 -1.21875 20.75 3.46875 
Q 12.84375 8.15625 8.5625 16.640625 
Q 4.296875 25.140625 4.296875 35.796875 
Q 4.296875 46.390625 8.59375 55.078125 
Q 12.890625 63.765625 20.828125 68.3125 
Q 28.765625 72.859375 38.578125 72.859375 
Q 48.484375 72.859375 56.4375 68.140625 
Q 64.40625 63.421875 68.578125 54.953125 
Q 72.75 46.484375 72.75 35.84375 
Q 72.75 27 70.0625 19.9375 
Q 67.390625 12.890625 61.96875 7.671875 
z
M 41.109375 19.78125 
Q 49.3125 17.484375 54.640625 12.9375 
Q 62.984375 20.5625 62.984375 35.84375 
Q 62.984375 44.53125 60.03125 51.015625 
Q 57.078125 57.515625 51.390625 61.109375 
Q 45.703125 64.703125 38.625 64.703125 
Q 28.03125 64.703125 21.046875 57.453125 
Q 14.0625 50.203125 14.0625 35.796875 
Q 14.0625 21.828125 20.96875 14.359375 
Q 27.875 6.890625 38.625 6.890625 
Q 43.703125 6.890625 48.1875 8.796875 
Q 43.75 11.671875 38.8125 12.890625 
z
" id="ArialMT-81"/>
     </defs>
     <use xlink:href="#ArialMT-68"/>
     <use x="72.216797" xlink:href="#ArialMT-67"/>
     <use x="144.433594" xlink:href="#ArialMT-71"/>
     <use x="222.216797" xlink:href="#ArialMT-65"/>
     <use x="288.916016" xlink:href="#ArialMT-78"/>
     <use x="361.132812" xlink:href="#ArialMT-95"/>
     <use x="416.748047" xlink:href="#ArialMT-69"/>
     <use x="483.447266" xlink:href="#ArialMT-83"/>
     <use x="550.146484" xlink:href="#ArialMT-81"/>
    </g>
   </g>
   <g id="legend_1">
    <g id="patch_7">
     <path d="M 477.717188 539.920687 
L 765.786563 539.920687 
Q 769.086563 539.920687 769.086563 536.620687 
L 769.086563 231.081703 
Q 769.086563 227.781703 765.786563 227.781703 
L 477.717188 227.781703 
Q 474.417188 227.781703 474.417188 231.081703 
L 474.417188 536.620687 
Q 474.417188 539.920687 477.717188 539.920687 
z
" style="fill:#eaeaf2;opacity:0.8;stroke:#cccccc;stroke-linejoin:miter;stroke-width:1.5;"/>
    </g>
    <g id="text_16">
     <!-- Model -->
     <g style="fill:#262626;" transform="translate(597.240938 247.265766)scale(0.18 -0.18)">
      <defs>
       <path d="M 7.421875 0 
L 7.421875 71.578125 
L 21.6875 71.578125 
L 38.625 20.90625 
Q 40.96875 13.8125 42.046875 10.296875 
Q 43.265625 14.203125 45.84375 21.78125 
L 62.984375 71.578125 
L 75.734375 71.578125 
L 75.734375 0 
L 66.609375 0 
L 66.609375 59.90625 
L 45.796875 0 
L 37.25 0 
L 16.546875 60.9375 
L 16.546875 0 
z
" id="ArialMT-77"/>
       <path d="M 40.234375 0 
L 40.234375 6.546875 
Q 35.296875 -1.171875 25.734375 -1.171875 
Q 19.53125 -1.171875 14.328125 2.25 
Q 9.125 5.671875 6.265625 11.796875 
Q 3.421875 17.921875 3.421875 25.875 
Q 3.421875 33.640625 6 39.96875 
Q 8.59375 46.296875 13.765625 49.65625 
Q 18.953125 53.03125 25.34375 53.03125 
Q 30.03125 53.03125 33.6875 51.046875 
Q 37.359375 49.078125 39.65625 45.90625 
L 39.65625 71.578125 
L 48.390625 71.578125 
L 48.390625 0 
z
M 12.453125 25.875 
Q 12.453125 15.921875 16.640625 10.984375 
Q 20.84375 6.0625 26.5625 6.0625 
Q 32.328125 6.0625 36.34375 10.765625 
Q 40.375 15.484375 40.375 25.140625 
Q 40.375 35.796875 36.265625 40.765625 
Q 32.171875 45.75 26.171875 45.75 
Q 20.3125 45.75 16.375 40.96875 
Q 12.453125 36.1875 12.453125 25.875 
z
" id="ArialMT-100"/>
      </defs>
      <use xlink:href="#ArialMT-77"/>
      <use x="83.300781" xlink:href="#ArialMT-111"/>
      <use x="138.916016" xlink:href="#ArialMT-100"/>
      <use x="194.53125" xlink:href="#ArialMT-101"/>
      <use x="250.146484" xlink:href="#ArialMT-108"/>
     </g>
    </g>
    <g id="line2d_38">
     <path d="M 481.017188 265.128656 
L 514.017188 265.128656 
" style="fill:none;stroke:#f77189;stroke-linecap:round;stroke-width:2.25;"/>
    </g>
    <g id="line2d_39"/>
    <g id="text_17">
     <!-- Artifacts, AUC = 0.785 -->
     <g style="fill:#262626;" transform="translate(527.217188 270.903656)scale(0.165 -0.165)">
      <defs>
       <path d="M 40.4375 19 
L 49.078125 17.875 
Q 47.65625 8.9375 41.8125 3.875 
Q 35.984375 -1.171875 27.484375 -1.171875 
Q 16.84375 -1.171875 10.375 5.78125 
Q 3.90625 12.75 3.90625 25.734375 
Q 3.90625 34.125 6.6875 40.421875 
Q 9.46875 46.734375 15.15625 49.875 
Q 20.84375 53.03125 27.546875 53.03125 
Q 35.984375 53.03125 41.359375 48.75 
Q 46.734375 44.484375 48.25 36.625 
L 39.703125 35.296875 
Q 38.484375 40.53125 35.375 43.15625 
Q 32.28125 45.796875 27.875 45.796875 
Q 21.234375 45.796875 17.078125 41.03125 
Q 12.9375 36.28125 12.9375 25.984375 
Q 12.9375 15.53125 16.9375 10.796875 
Q 20.953125 6.0625 27.390625 6.0625 
Q 32.5625 6.0625 36.03125 9.234375 
Q 39.5 12.40625 40.4375 19 
z
" id="ArialMT-99"/>
       <path d="M 8.890625 0 
L 8.890625 10.015625 
L 18.890625 10.015625 
L 18.890625 0 
Q 18.890625 -5.515625 16.9375 -8.90625 
Q 14.984375 -12.3125 10.75 -14.15625 
L 8.296875 -10.40625 
Q 11.078125 -9.1875 12.390625 -6.8125 
Q 13.71875 -4.4375 13.875 0 
z
" id="ArialMT-44"/>
       <path d="M 54.6875 71.578125 
L 64.15625 71.578125 
L 64.15625 30.21875 
Q 64.15625 19.4375 61.71875 13.078125 
Q 59.28125 6.734375 52.90625 2.75 
Q 46.53125 -1.21875 36.1875 -1.21875 
Q 26.125 -1.21875 19.71875 2.25 
Q 13.328125 5.71875 10.59375 12.28125 
Q 7.859375 18.84375 7.859375 30.21875 
L 7.859375 71.578125 
L 17.328125 71.578125 
L 17.328125 30.28125 
Q 17.328125 20.953125 19.0625 16.53125 
Q 20.796875 12.109375 25.015625 9.71875 
Q 29.25 7.328125 35.359375 7.328125 
Q 45.796875 7.328125 50.234375 12.0625 
Q 54.6875 16.796875 54.6875 30.28125 
z
" id="ArialMT-85"/>
       <path d="M 52.828125 42.09375 
L 5.5625 42.09375 
L 5.5625 50.296875 
L 52.828125 50.296875 
z
M 52.828125 20.359375 
L 5.5625 20.359375 
L 5.5625 28.5625 
L 52.828125 28.5625 
z
" id="ArialMT-61"/>
       <path d="M 4.734375 62.203125 
L 4.734375 70.65625 
L 51.078125 70.65625 
L 51.078125 63.8125 
Q 44.234375 56.546875 37.515625 44.484375 
Q 30.8125 32.421875 27.15625 19.671875 
Q 24.515625 10.6875 23.78125 0 
L 14.75 0 
Q 14.890625 8.453125 18.0625 20.40625 
Q 21.234375 32.375 27.171875 43.484375 
Q 33.109375 54.59375 39.796875 62.203125 
z
" id="ArialMT-55"/>
       <path d="M 4.15625 18.75 
L 13.375 19.53125 
Q 14.40625 12.796875 18.140625 9.390625 
Q 21.875 6 27.15625 6 
Q 33.5 6 37.890625 10.78125 
Q 42.28125 15.578125 42.28125 23.484375 
Q 42.28125 31 38.0625 35.34375 
Q 33.84375 39.703125 27 39.703125 
Q 22.75 39.703125 19.328125 37.765625 
Q 15.921875 35.84375 13.96875 32.765625 
L 5.71875 33.84375 
L 12.640625 70.609375 
L 48.25 70.609375 
L 48.25 62.203125 
L 19.671875 62.203125 
L 15.828125 42.96875 
Q 22.265625 47.46875 29.34375 47.46875 
Q 38.71875 47.46875 45.15625 40.96875 
Q 51.609375 34.46875 51.609375 24.265625 
Q 51.609375 14.546875 45.953125 7.46875 
Q 39.0625 -1.21875 27.15625 -1.21875 
Q 17.390625 -1.21875 11.203125 4.25 
Q 5.03125 9.71875 4.15625 18.75 
z
" id="ArialMT-53"/>
      </defs>
      <use xlink:href="#ArialMT-65"/>
      <use x="66.699219" xlink:href="#ArialMT-114"/>
      <use x="100" xlink:href="#ArialMT-116"/>
      <use x="127.783203" xlink:href="#ArialMT-105"/>
      <use x="150" xlink:href="#ArialMT-102"/>
      <use x="177.783203" xlink:href="#ArialMT-97"/>
      <use x="233.398438" xlink:href="#ArialMT-99"/>
      <use x="283.398438" xlink:href="#ArialMT-116"/>
      <use x="311.181641" xlink:href="#ArialMT-115"/>
      <use x="361.181641" xlink:href="#ArialMT-44"/>
      <use x="388.964844" xlink:href="#ArialMT-32"/>
      <use x="411.248047" xlink:href="#ArialMT-65"/>
      <use x="477.947266" xlink:href="#ArialMT-85"/>
      <use x="550.164062" xlink:href="#ArialMT-67"/>
      <use x="622.380859" xlink:href="#ArialMT-32"/>
      <use x="650.164062" xlink:href="#ArialMT-61"/>
      <use x="708.5625" xlink:href="#ArialMT-32"/>
      <use x="736.345703" xlink:href="#ArialMT-48"/>
      <use x="791.960938" xlink:href="#ArialMT-46"/>
      <use x="819.744141" xlink:href="#ArialMT-55"/>
      <use x="875.359375" xlink:href="#ArialMT-56"/>
      <use x="930.974609" xlink:href="#ArialMT-53"/>
     </g>
    </g>
    <g id="line2d_40">
     <path d="M 481.017188 288.669516 
L 514.017188 288.669516 
" style="fill:none;stroke:#e68332;stroke-dasharray:9,3.375;stroke-dashoffset:0;stroke-width:2.25;"/>
    </g>
    <g id="line2d_41"/>
    <g id="text_18">
     <!-- badsequence, AUC = 0.998 -->
     <g style="fill:#262626;" transform="translate(527.217188 294.444516)scale(0.165 -0.165)">
      <defs>
       <path d="M 14.703125 0 
L 6.546875 0 
L 6.546875 71.578125 
L 15.328125 71.578125 
L 15.328125 46.046875 
Q 20.90625 53.03125 29.546875 53.03125 
Q 34.328125 53.03125 38.59375 51.09375 
Q 42.875 49.171875 45.625 45.671875 
Q 48.390625 42.1875 49.953125 37.25 
Q 51.515625 32.328125 51.515625 26.703125 
Q 51.515625 13.375 44.921875 6.09375 
Q 38.328125 -1.171875 29.109375 -1.171875 
Q 19.921875 -1.171875 14.703125 6.5 
z
M 14.59375 26.3125 
Q 14.59375 17 17.140625 12.84375 
Q 21.296875 6.0625 28.375 6.0625 
Q 34.125 6.0625 38.328125 11.0625 
Q 42.53125 16.0625 42.53125 25.984375 
Q 42.53125 36.140625 38.5 40.96875 
Q 34.46875 45.796875 28.765625 45.796875 
Q 23 45.796875 18.796875 40.796875 
Q 14.59375 35.796875 14.59375 26.3125 
z
" id="ArialMT-98"/>
       <path d="M 39.65625 -19.875 
L 39.65625 5.515625 
Q 37.59375 2.640625 33.90625 0.734375 
Q 30.21875 -1.171875 26.078125 -1.171875 
Q 16.84375 -1.171875 10.171875 6.203125 
Q 3.515625 13.578125 3.515625 26.421875 
Q 3.515625 34.234375 6.21875 40.421875 
Q 8.9375 46.625 14.078125 49.828125 
Q 19.234375 53.03125 25.390625 53.03125 
Q 35.015625 53.03125 40.53125 44.921875 
L 40.53125 51.859375 
L 48.4375 51.859375 
L 48.4375 -19.875 
z
M 12.546875 26.078125 
Q 12.546875 16.0625 16.75 11.0625 
Q 20.953125 6.0625 26.8125 6.0625 
Q 32.421875 6.0625 36.46875 10.8125 
Q 40.53125 15.578125 40.53125 25.296875 
Q 40.53125 35.640625 36.25 40.859375 
Q 31.984375 46.09375 26.21875 46.09375 
Q 20.515625 46.09375 16.53125 41.234375 
Q 12.546875 36.375 12.546875 26.078125 
z
" id="ArialMT-113"/>
       <path d="M 6.59375 0 
L 6.59375 51.859375 
L 14.5 51.859375 
L 14.5 44.484375 
Q 20.21875 53.03125 31 53.03125 
Q 35.6875 53.03125 39.625 51.34375 
Q 43.5625 49.65625 45.515625 46.921875 
Q 47.46875 44.1875 48.25 40.4375 
Q 48.734375 37.984375 48.734375 31.890625 
L 48.734375 0 
L 39.9375 0 
L 39.9375 31.546875 
Q 39.9375 36.921875 38.90625 39.578125 
Q 37.890625 42.234375 35.28125 43.8125 
Q 32.671875 45.40625 29.15625 45.40625 
Q 23.53125 45.40625 19.453125 41.84375 
Q 15.375 38.28125 15.375 28.328125 
L 15.375 0 
z
" id="ArialMT-110"/>
       <path d="M 5.46875 16.546875 
L 13.921875 17.328125 
Q 14.984375 11.375 18.015625 8.6875 
Q 21.046875 6 25.78125 6 
Q 29.828125 6 32.875 7.859375 
Q 35.9375 9.71875 37.890625 12.8125 
Q 39.84375 15.921875 41.15625 21.1875 
Q 42.484375 26.46875 42.484375 31.9375 
Q 42.484375 32.515625 42.4375 33.6875 
Q 39.796875 29.5 35.234375 26.875 
Q 30.671875 24.265625 25.34375 24.265625 
Q 16.453125 24.265625 10.296875 30.703125 
Q 4.15625 37.15625 4.15625 47.703125 
Q 4.15625 58.59375 10.578125 65.234375 
Q 17 71.875 26.65625 71.875 
Q 33.640625 71.875 39.421875 68.109375 
Q 45.21875 64.359375 48.21875 57.390625 
Q 51.21875 50.4375 51.21875 37.25 
Q 51.21875 23.53125 48.234375 15.40625 
Q 45.265625 7.28125 39.375 3.03125 
Q 33.5 -1.21875 25.59375 -1.21875 
Q 17.1875 -1.21875 11.859375 3.4375 
Q 6.546875 8.109375 5.46875 16.546875 
z
M 41.453125 48.140625 
Q 41.453125 55.71875 37.421875 60.15625 
Q 33.40625 64.59375 27.734375 64.59375 
Q 21.875 64.59375 17.53125 59.8125 
Q 13.1875 55.03125 13.1875 47.40625 
Q 13.1875 40.578125 17.3125 36.296875 
Q 21.4375 32.03125 27.484375 32.03125 
Q 33.59375 32.03125 37.515625 36.296875 
Q 41.453125 40.578125 41.453125 48.140625 
z
" id="ArialMT-57"/>
      </defs>
      <use xlink:href="#ArialMT-98"/>
      <use x="55.615234" xlink:href="#ArialMT-97"/>
      <use x="111.230469" xlink:href="#ArialMT-100"/>
      <use x="166.845703" xlink:href="#ArialMT-115"/>
      <use x="216.845703" xlink:href="#ArialMT-101"/>
      <use x="272.460938" xlink:href="#ArialMT-113"/>
      <use x="328.076172" xlink:href="#ArialMT-117"/>
      <use x="383.691406" xlink:href="#ArialMT-101"/>
      <use x="439.306641" xlink:href="#ArialMT-110"/>
      <use x="494.921875" xlink:href="#ArialMT-99"/>
      <use x="544.921875" xlink:href="#ArialMT-101"/>
      <use x="600.537109" xlink:href="#ArialMT-44"/>
      <use x="628.320312" xlink:href="#ArialMT-32"/>
      <use x="650.603516" xlink:href="#ArialMT-65"/>
      <use x="717.302734" xlink:href="#ArialMT-85"/>
      <use x="789.519531" xlink:href="#ArialMT-67"/>
      <use x="861.736328" xlink:href="#ArialMT-32"/>
      <use x="889.519531" xlink:href="#ArialMT-61"/>
      <use x="947.917969" xlink:href="#ArialMT-32"/>
      <use x="975.701172" xlink:href="#ArialMT-48"/>
      <use x="1031.316406" xlink:href="#ArialMT-46"/>
      <use x="1059.099609" xlink:href="#ArialMT-57"/>
      <use x="1114.714844" xlink:href="#ArialMT-57"/>
      <use x="1170.330078" xlink:href="#ArialMT-56"/>
     </g>
    </g>
    <g id="line2d_42">
     <path d="M 481.017188 312.210375 
L 514.017188 312.210375 
" style="fill:none;stroke:#bb9832;stroke-dasharray:2.25,2.25;stroke-dashoffset:0;stroke-width:2.25;"/>
    </g>
    <g id="line2d_43"/>
    <g id="text_19">
     <!-- Field_artefacts, AUC = 0.948 -->
     <g style="fill:#262626;" transform="translate(527.217188 317.985375)scale(0.165 -0.165)">
      <defs>
       <path d="M 8.203125 0 
L 8.203125 71.578125 
L 56.5 71.578125 
L 56.5 63.140625 
L 17.671875 63.140625 
L 17.671875 40.96875 
L 51.265625 40.96875 
L 51.265625 32.515625 
L 17.671875 32.515625 
L 17.671875 0 
z
" id="ArialMT-70"/>
      </defs>
      <use xlink:href="#ArialMT-70"/>
      <use x="61.083984" xlink:href="#ArialMT-105"/>
      <use x="83.300781" xlink:href="#ArialMT-101"/>
      <use x="138.916016" xlink:href="#ArialMT-108"/>
      <use x="161.132812" xlink:href="#ArialMT-100"/>
      <use x="216.748047" xlink:href="#ArialMT-95"/>
      <use x="272.363281" xlink:href="#ArialMT-97"/>
      <use x="327.978516" xlink:href="#ArialMT-114"/>
      <use x="361.279297" xlink:href="#ArialMT-116"/>
      <use x="389.0625" xlink:href="#ArialMT-101"/>
      <use x="444.677734" xlink:href="#ArialMT-102"/>
      <use x="472.460938" xlink:href="#ArialMT-97"/>
      <use x="528.076172" xlink:href="#ArialMT-99"/>
      <use x="578.076172" xlink:href="#ArialMT-116"/>
      <use x="605.859375" xlink:href="#ArialMT-115"/>
      <use x="655.859375" xlink:href="#ArialMT-44"/>
      <use x="683.642578" xlink:href="#ArialMT-32"/>
      <use x="705.925781" xlink:href="#ArialMT-65"/>
      <use x="772.625" xlink:href="#ArialMT-85"/>
      <use x="844.841797" xlink:href="#ArialMT-67"/>
      <use x="917.058594" xlink:href="#ArialMT-32"/>
      <use x="944.841797" xlink:href="#ArialMT-61"/>
      <use x="1003.240234" xlink:href="#ArialMT-32"/>
      <use x="1031.023438" xlink:href="#ArialMT-48"/>
      <use x="1086.638672" xlink:href="#ArialMT-46"/>
      <use x="1114.421875" xlink:href="#ArialMT-57"/>
      <use x="1170.037109" xlink:href="#ArialMT-52"/>
      <use x="1225.652344" xlink:href="#ArialMT-56"/>
     </g>
    </g>
    <g id="line2d_44">
     <path d="M 481.017188 335.751234 
L 514.017188 335.751234 
" style="fill:none;stroke:#97a431;stroke-dasharray:6.75,2.8125,3.375,2.8125;stroke-dashoffset:0;stroke-width:2.25;"/>
    </g>
    <g id="line2d_45"/>
    <g id="text_20">
     <!-- highiron-lowt1, AUC = 0.970 -->
     <g style="fill:#262626;" transform="translate(527.217188 341.526234)scale(0.165 -0.165)">
      <defs>
       <path d="M 6.59375 0 
L 6.59375 71.578125 
L 15.375 71.578125 
L 15.375 45.90625 
Q 21.53125 53.03125 30.90625 53.03125 
Q 36.671875 53.03125 40.921875 50.75 
Q 45.171875 48.484375 47 44.484375 
Q 48.828125 40.484375 48.828125 32.859375 
L 48.828125 0 
L 40.046875 0 
L 40.046875 32.859375 
Q 40.046875 39.453125 37.1875 42.453125 
Q 34.328125 45.453125 29.109375 45.453125 
Q 25.203125 45.453125 21.75 43.421875 
Q 18.3125 41.40625 16.84375 37.9375 
Q 15.375 34.46875 15.375 28.375 
L 15.375 0 
z
" id="ArialMT-104"/>
       <path d="M 4.984375 -4.296875 
L 13.53125 -5.5625 
Q 14.0625 -9.515625 16.5 -11.328125 
Q 19.78125 -13.765625 25.4375 -13.765625 
Q 31.546875 -13.765625 34.859375 -11.328125 
Q 38.1875 -8.890625 39.359375 -4.5 
Q 40.046875 -1.8125 39.984375 6.78125 
Q 34.234375 0 25.640625 0 
Q 14.9375 0 9.078125 7.71875 
Q 3.21875 15.4375 3.21875 26.21875 
Q 3.21875 33.640625 5.90625 39.90625 
Q 8.59375 46.1875 13.6875 49.609375 
Q 18.796875 53.03125 25.6875 53.03125 
Q 34.859375 53.03125 40.828125 45.609375 
L 40.828125 51.859375 
L 48.921875 51.859375 
L 48.921875 7.03125 
Q 48.921875 -5.078125 46.453125 -10.125 
Q 44 -15.1875 38.640625 -18.109375 
Q 33.296875 -21.046875 25.484375 -21.046875 
Q 16.21875 -21.046875 10.5 -16.875 
Q 4.78125 -12.703125 4.984375 -4.296875 
z
M 12.25 26.859375 
Q 12.25 16.65625 16.296875 11.96875 
Q 20.359375 7.28125 26.46875 7.28125 
Q 32.515625 7.28125 36.609375 11.9375 
Q 40.71875 16.609375 40.71875 26.5625 
Q 40.71875 36.078125 36.5 40.90625 
Q 32.28125 45.75 26.3125 45.75 
Q 20.453125 45.75 16.34375 40.984375 
Q 12.25 36.234375 12.25 26.859375 
z
" id="ArialMT-103"/>
       <path d="M 3.171875 21.484375 
L 3.171875 30.328125 
L 30.171875 30.328125 
L 30.171875 21.484375 
z
" id="ArialMT-45"/>
       <path d="M 16.15625 0 
L 0.296875 51.859375 
L 9.375 51.859375 
L 17.625 21.921875 
L 20.703125 10.796875 
Q 20.90625 11.625 23.390625 21.484375 
L 31.640625 51.859375 
L 40.671875 51.859375 
L 48.4375 21.78125 
L 51.03125 11.859375 
L 54 21.875 
L 62.890625 51.859375 
L 71.4375 51.859375 
L 55.21875 0 
L 46.09375 0 
L 37.84375 31.0625 
L 35.84375 39.890625 
L 25.34375 0 
z
" id="ArialMT-119"/>
      </defs>
      <use xlink:href="#ArialMT-104"/>
      <use x="55.615234" xlink:href="#ArialMT-105"/>
      <use x="77.832031" xlink:href="#ArialMT-103"/>
      <use x="133.447266" xlink:href="#ArialMT-104"/>
      <use x="189.0625" xlink:href="#ArialMT-105"/>
      <use x="211.279297" xlink:href="#ArialMT-114"/>
      <use x="244.580078" xlink:href="#ArialMT-111"/>
      <use x="300.195312" xlink:href="#ArialMT-110"/>
      <use x="355.810547" xlink:href="#ArialMT-45"/>
      <use x="389.111328" xlink:href="#ArialMT-108"/>
      <use x="411.328125" xlink:href="#ArialMT-111"/>
      <use x="466.943359" xlink:href="#ArialMT-119"/>
      <use x="539.160156" xlink:href="#ArialMT-116"/>
      <use x="566.943359" xlink:href="#ArialMT-49"/>
      <use x="622.558594" xlink:href="#ArialMT-44"/>
      <use x="650.341797" xlink:href="#ArialMT-32"/>
      <use x="672.625" xlink:href="#ArialMT-65"/>
      <use x="739.324219" xlink:href="#ArialMT-85"/>
      <use x="811.541016" xlink:href="#ArialMT-67"/>
      <use x="883.757812" xlink:href="#ArialMT-32"/>
      <use x="911.541016" xlink:href="#ArialMT-61"/>
      <use x="969.939453" xlink:href="#ArialMT-32"/>
      <use x="997.722656" xlink:href="#ArialMT-48"/>
      <use x="1053.337891" xlink:href="#ArialMT-46"/>
      <use x="1081.121094" xlink:href="#ArialMT-57"/>
      <use x="1136.736328" xlink:href="#ArialMT-55"/>
      <use x="1192.351562" xlink:href="#ArialMT-48"/>
     </g>
    </g>
    <g id="line2d_46">
     <path d="M 481.017188 359.485453 
L 514.017188 359.485453 
" style="fill:none;stroke:#50b131;stroke-dasharray:11.25,2.25,2.25,2.25;stroke-dashoffset:0;stroke-width:2.25;"/>
    </g>
    <g id="line2d_47"/>
    <g id="text_21">
     <!-- lookuptable-rip, AUC = 0.971 -->
     <g style="fill:#262626;" transform="translate(527.217188 365.260453)scale(0.165 -0.165)">
      <defs>
       <path d="M 6.640625 0 
L 6.640625 71.578125 
L 15.4375 71.578125 
L 15.4375 30.765625 
L 36.234375 51.859375 
L 47.609375 51.859375 
L 27.78125 32.625 
L 49.609375 0 
L 38.765625 0 
L 21.625 26.515625 
L 15.4375 20.5625 
L 15.4375 0 
z
" id="ArialMT-107"/>
      </defs>
      <use xlink:href="#ArialMT-108"/>
      <use x="22.216797" xlink:href="#ArialMT-111"/>
      <use x="77.832031" xlink:href="#ArialMT-111"/>
      <use x="133.447266" xlink:href="#ArialMT-107"/>
      <use x="183.447266" xlink:href="#ArialMT-117"/>
      <use x="239.0625" xlink:href="#ArialMT-112"/>
      <use x="294.677734" xlink:href="#ArialMT-116"/>
      <use x="322.460938" xlink:href="#ArialMT-97"/>
      <use x="378.076172" xlink:href="#ArialMT-98"/>
      <use x="433.691406" xlink:href="#ArialMT-108"/>
      <use x="455.908203" xlink:href="#ArialMT-101"/>
      <use x="511.523438" xlink:href="#ArialMT-45"/>
      <use x="544.824219" xlink:href="#ArialMT-114"/>
      <use x="578.125" xlink:href="#ArialMT-105"/>
      <use x="600.341797" xlink:href="#ArialMT-112"/>
      <use x="655.957031" xlink:href="#ArialMT-44"/>
      <use x="683.740234" xlink:href="#ArialMT-32"/>
      <use x="706.023438" xlink:href="#ArialMT-65"/>
      <use x="772.722656" xlink:href="#ArialMT-85"/>
      <use x="844.939453" xlink:href="#ArialMT-67"/>
      <use x="917.15625" xlink:href="#ArialMT-32"/>
      <use x="944.939453" xlink:href="#ArialMT-61"/>
      <use x="1003.337891" xlink:href="#ArialMT-32"/>
      <use x="1031.121094" xlink:href="#ArialMT-48"/>
      <use x="1086.736328" xlink:href="#ArialMT-46"/>
      <use x="1114.519531" xlink:href="#ArialMT-57"/>
      <use x="1170.134766" xlink:href="#ArialMT-55"/>
      <use x="1225.75" xlink:href="#ArialMT-49"/>
     </g>
    </g>
    <g id="line2d_48">
     <path d="M 481.017188 383.026312 
L 514.017188 383.026312 
" style="fill:none;stroke:#34af84;stroke-dasharray:6.75,2.8125,2.8125,2.8125,2.8125,2.8125;stroke-dashoffset:0;stroke-width:2.25;"/>
    </g>
    <g id="line2d_49"/>
    <g id="text_22">
     <!-- m50pcfail, AUC = 0.848 -->
     <g style="fill:#262626;" transform="translate(527.217188 388.801312)scale(0.165 -0.165)">
      <defs>
       <path d="M 6.59375 0 
L 6.59375 51.859375 
L 14.453125 51.859375 
L 14.453125 44.578125 
Q 16.890625 48.390625 20.9375 50.703125 
Q 25 53.03125 30.171875 53.03125 
Q 35.9375 53.03125 39.625 50.640625 
Q 43.3125 48.25 44.828125 43.953125 
Q 50.984375 53.03125 60.84375 53.03125 
Q 68.5625 53.03125 72.703125 48.75 
Q 76.859375 44.484375 76.859375 35.59375 
L 76.859375 0 
L 68.109375 0 
L 68.109375 32.671875 
Q 68.109375 37.9375 67.25 40.25 
Q 66.40625 42.578125 64.15625 43.984375 
Q 61.921875 45.40625 58.890625 45.40625 
Q 53.421875 45.40625 49.796875 41.765625 
Q 46.1875 38.140625 46.1875 30.125 
L 46.1875 0 
L 37.40625 0 
L 37.40625 33.6875 
Q 37.40625 39.546875 35.25 42.46875 
Q 33.109375 45.40625 28.21875 45.40625 
Q 24.515625 45.40625 21.359375 43.453125 
Q 18.21875 41.5 16.796875 37.734375 
Q 15.375 33.984375 15.375 26.90625 
L 15.375 0 
z
" id="ArialMT-109"/>
      </defs>
      <use xlink:href="#ArialMT-109"/>
      <use x="83.300781" xlink:href="#ArialMT-53"/>
      <use x="138.916016" xlink:href="#ArialMT-48"/>
      <use x="194.53125" xlink:href="#ArialMT-112"/>
      <use x="250.146484" xlink:href="#ArialMT-99"/>
      <use x="300.146484" xlink:href="#ArialMT-102"/>
      <use x="327.929688" xlink:href="#ArialMT-97"/>
      <use x="383.544922" xlink:href="#ArialMT-105"/>
      <use x="405.761719" xlink:href="#ArialMT-108"/>
      <use x="427.978516" xlink:href="#ArialMT-44"/>
      <use x="455.761719" xlink:href="#ArialMT-32"/>
      <use x="478.044922" xlink:href="#ArialMT-65"/>
      <use x="544.744141" xlink:href="#ArialMT-85"/>
      <use x="616.960938" xlink:href="#ArialMT-67"/>
      <use x="689.177734" xlink:href="#ArialMT-32"/>
      <use x="716.960938" xlink:href="#ArialMT-61"/>
      <use x="775.359375" xlink:href="#ArialMT-32"/>
      <use x="803.142578" xlink:href="#ArialMT-48"/>
      <use x="858.757812" xlink:href="#ArialMT-46"/>
      <use x="886.541016" xlink:href="#ArialMT-56"/>
      <use x="942.15625" xlink:href="#ArialMT-52"/>
      <use x="997.771484" xlink:href="#ArialMT-56"/>
     </g>
    </g>
    <g id="line2d_50">
     <path d="M 481.017188 406.577484 
L 514.017188 406.577484 
" style="fill:none;stroke:#36ada4;stroke-dasharray:9,2.25,9,2.25,2.25,2.25;stroke-dashoffset:0;stroke-width:2.25;"/>
    </g>
    <g id="line2d_51"/>
    <g id="text_23">
     <!-- Other_Unlisted, AUC = 0.924 -->
     <g style="fill:#262626;" transform="translate(527.217188 412.352484)scale(0.165 -0.165)">
      <defs>
       <path d="M 4.828125 34.859375 
Q 4.828125 52.6875 14.390625 62.765625 
Q 23.96875 72.859375 39.109375 72.859375 
Q 49.03125 72.859375 56.984375 68.109375 
Q 64.9375 63.375 69.109375 54.90625 
Q 73.296875 46.4375 73.296875 35.6875 
Q 73.296875 24.8125 68.890625 16.21875 
Q 64.5 7.625 56.4375 3.203125 
Q 48.390625 -1.21875 39.0625 -1.21875 
Q 28.953125 -1.21875 20.984375 3.65625 
Q 13.03125 8.546875 8.921875 16.984375 
Q 4.828125 25.4375 4.828125 34.859375 
z
M 14.59375 34.71875 
Q 14.59375 21.78125 21.546875 14.328125 
Q 28.515625 6.890625 39.015625 6.890625 
Q 49.703125 6.890625 56.609375 14.40625 
Q 63.53125 21.921875 63.53125 35.75 
Q 63.53125 44.484375 60.578125 51 
Q 57.625 57.515625 51.921875 61.109375 
Q 46.234375 64.703125 39.15625 64.703125 
Q 29.109375 64.703125 21.84375 57.78125 
Q 14.59375 50.875 14.59375 34.71875 
z
" id="ArialMT-79"/>
      </defs>
      <use xlink:href="#ArialMT-79"/>
      <use x="77.783203" xlink:href="#ArialMT-116"/>
      <use x="105.566406" xlink:href="#ArialMT-104"/>
      <use x="161.181641" xlink:href="#ArialMT-101"/>
      <use x="216.796875" xlink:href="#ArialMT-114"/>
      <use x="250.097656" xlink:href="#ArialMT-95"/>
      <use x="305.712891" xlink:href="#ArialMT-85"/>
      <use x="377.929688" xlink:href="#ArialMT-110"/>
      <use x="433.544922" xlink:href="#ArialMT-108"/>
      <use x="455.761719" xlink:href="#ArialMT-105"/>
      <use x="477.978516" xlink:href="#ArialMT-115"/>
      <use x="527.978516" xlink:href="#ArialMT-116"/>
      <use x="555.761719" xlink:href="#ArialMT-101"/>
      <use x="611.376953" xlink:href="#ArialMT-100"/>
      <use x="666.992188" xlink:href="#ArialMT-44"/>
      <use x="694.775391" xlink:href="#ArialMT-32"/>
      <use x="717.058594" xlink:href="#ArialMT-65"/>
      <use x="783.757812" xlink:href="#ArialMT-85"/>
      <use x="855.974609" xlink:href="#ArialMT-67"/>
      <use x="928.191406" xlink:href="#ArialMT-32"/>
      <use x="955.974609" xlink:href="#ArialMT-61"/>
      <use x="1014.373047" xlink:href="#ArialMT-32"/>
      <use x="1042.15625" xlink:href="#ArialMT-48"/>
      <use x="1097.771484" xlink:href="#ArialMT-46"/>
      <use x="1125.554688" xlink:href="#ArialMT-57"/>
      <use x="1181.169922" xlink:href="#ArialMT-50"/>
      <use x="1236.785156" xlink:href="#ArialMT-52"/>
     </g>
    </g>
    <g id="line2d_52">
     <path d="M 481.017188 430.118344 
L 514.017188 430.118344 
" style="fill:none;stroke:#38aabf;stroke-dasharray:6.75,2.8125,6.75,2.8125,2.8125,2.8125;stroke-dashoffset:0;stroke-width:2.25;"/>
    </g>
    <g id="line2d_53"/>
    <g id="text_24">
     <!-- pdff35, AUC = 0.837 -->
     <g style="fill:#262626;" transform="translate(527.217188 435.893344)scale(0.165 -0.165)">
      <defs>
       <path d="M 4.203125 18.890625 
L 12.984375 20.0625 
Q 14.5 12.59375 18.140625 9.296875 
Q 21.78125 6 27 6 
Q 33.203125 6 37.46875 10.296875 
Q 41.75 14.59375 41.75 20.953125 
Q 41.75 27 37.796875 30.921875 
Q 33.84375 34.859375 27.734375 34.859375 
Q 25.25 34.859375 21.53125 33.890625 
L 22.515625 41.609375 
Q 23.390625 41.5 23.921875 41.5 
Q 29.546875 41.5 34.03125 44.421875 
Q 38.53125 47.359375 38.53125 53.46875 
Q 38.53125 58.296875 35.25 61.46875 
Q 31.984375 64.65625 26.8125 64.65625 
Q 21.6875 64.65625 18.265625 61.421875 
Q 14.84375 58.203125 13.875 51.765625 
L 5.078125 53.328125 
Q 6.6875 62.15625 12.390625 67.015625 
Q 18.109375 71.875 26.609375 71.875 
Q 32.46875 71.875 37.390625 69.359375 
Q 42.328125 66.84375 44.9375 62.5 
Q 47.5625 58.15625 47.5625 53.265625 
Q 47.5625 48.640625 45.0625 44.828125 
Q 42.578125 41.015625 37.703125 38.765625 
Q 44.046875 37.3125 47.5625 32.6875 
Q 51.078125 28.078125 51.078125 21.140625 
Q 51.078125 11.765625 44.234375 5.25 
Q 37.40625 -1.265625 26.953125 -1.265625 
Q 17.53125 -1.265625 11.296875 4.34375 
Q 5.078125 9.96875 4.203125 18.890625 
z
" id="ArialMT-51"/>
      </defs>
      <use xlink:href="#ArialMT-112"/>
      <use x="55.615234" xlink:href="#ArialMT-100"/>
      <use x="111.230469" xlink:href="#ArialMT-102"/>
      <use x="137.263672" xlink:href="#ArialMT-102"/>
      <use x="165.046875" xlink:href="#ArialMT-51"/>
      <use x="220.662109" xlink:href="#ArialMT-53"/>
      <use x="276.277344" xlink:href="#ArialMT-44"/>
      <use x="304.060547" xlink:href="#ArialMT-32"/>
      <use x="326.34375" xlink:href="#ArialMT-65"/>
      <use x="393.042969" xlink:href="#ArialMT-85"/>
      <use x="465.259766" xlink:href="#ArialMT-67"/>
      <use x="537.476562" xlink:href="#ArialMT-32"/>
      <use x="565.259766" xlink:href="#ArialMT-61"/>
      <use x="623.658203" xlink:href="#ArialMT-32"/>
      <use x="651.441406" xlink:href="#ArialMT-48"/>
      <use x="707.056641" xlink:href="#ArialMT-46"/>
      <use x="734.839844" xlink:href="#ArialMT-56"/>
      <use x="790.455078" xlink:href="#ArialMT-51"/>
      <use x="846.070312" xlink:href="#ArialMT-55"/>
     </g>
    </g>
    <g id="line2d_54">
     <path d="M 481.017188 453.458109 
L 514.017188 453.458109 
" style="fill:none;stroke:#3ba3ec;stroke-dasharray:9,2.25,2.25,2.25,2.25,2.25;stroke-dashoffset:0;stroke-width:2.25;"/>
    </g>
    <g id="line2d_55"/>
    <g id="text_25">
     <!-- Rainbow, AUC = 0.968 -->
     <g style="fill:#262626;" transform="translate(527.217188 459.233109)scale(0.165 -0.165)">
      <defs>
       <path d="M 7.859375 0 
L 7.859375 71.578125 
L 39.59375 71.578125 
Q 49.171875 71.578125 54.140625 69.640625 
Q 59.125 67.71875 62.109375 62.828125 
Q 65.09375 57.953125 65.09375 52.046875 
Q 65.09375 44.4375 60.15625 39.203125 
Q 55.21875 33.984375 44.921875 32.5625 
Q 48.6875 30.765625 50.640625 29 
Q 54.78125 25.203125 58.5 19.484375 
L 70.953125 0 
L 59.03125 0 
L 49.5625 14.890625 
Q 45.40625 21.34375 42.71875 24.75 
Q 40.046875 28.171875 37.921875 29.53125 
Q 35.796875 30.90625 33.59375 31.453125 
Q 31.984375 31.78125 28.328125 31.78125 
L 17.328125 31.78125 
L 17.328125 0 
z
M 17.328125 39.984375 
L 37.703125 39.984375 
Q 44.1875 39.984375 47.84375 41.328125 
Q 51.515625 42.671875 53.421875 45.625 
Q 55.328125 48.578125 55.328125 52.046875 
Q 55.328125 57.125 51.640625 60.390625 
Q 47.953125 63.671875 39.984375 63.671875 
L 17.328125 63.671875 
z
" id="ArialMT-82"/>
      </defs>
      <use xlink:href="#ArialMT-82"/>
      <use x="72.216797" xlink:href="#ArialMT-97"/>
      <use x="127.832031" xlink:href="#ArialMT-105"/>
      <use x="150.048828" xlink:href="#ArialMT-110"/>
      <use x="205.664062" xlink:href="#ArialMT-98"/>
      <use x="261.279297" xlink:href="#ArialMT-111"/>
      <use x="316.894531" xlink:href="#ArialMT-119"/>
      <use x="383.611328" xlink:href="#ArialMT-44"/>
      <use x="411.394531" xlink:href="#ArialMT-32"/>
      <use x="433.677734" xlink:href="#ArialMT-65"/>
      <use x="500.376953" xlink:href="#ArialMT-85"/>
      <use x="572.59375" xlink:href="#ArialMT-67"/>
      <use x="644.810547" xlink:href="#ArialMT-32"/>
      <use x="672.59375" xlink:href="#ArialMT-61"/>
      <use x="730.992188" xlink:href="#ArialMT-32"/>
      <use x="758.775391" xlink:href="#ArialMT-48"/>
      <use x="814.390625" xlink:href="#ArialMT-46"/>
      <use x="842.173828" xlink:href="#ArialMT-57"/>
      <use x="897.789062" xlink:href="#ArialMT-54"/>
      <use x="953.404297" xlink:href="#ArialMT-56"/>
     </g>
    </g>
    <g id="line2d_56">
     <path d="M 481.017188 476.998969 
L 514.017188 476.998969 
" style="fill:none;stroke:#a48cf4;stroke-dasharray:6.75,2.8125,2.8125,2.8125,2.8125,2.8125,2.8125,2.8125;stroke-dashoffset:0;stroke-width:2.25;"/>
    </g>
    <g id="line2d_57"/>
    <g id="text_26">
     <!-- Segmentation_fail, AUC = 0.866 -->
     <g style="fill:#262626;" transform="translate(527.217188 482.773969)scale(0.165 -0.165)">
      <use xlink:href="#ArialMT-83"/>
      <use x="66.699219" xlink:href="#ArialMT-101"/>
      <use x="122.314453" xlink:href="#ArialMT-103"/>
      <use x="177.929688" xlink:href="#ArialMT-109"/>
      <use x="261.230469" xlink:href="#ArialMT-101"/>
      <use x="316.845703" xlink:href="#ArialMT-110"/>
      <use x="372.460938" xlink:href="#ArialMT-116"/>
      <use x="400.244141" xlink:href="#ArialMT-97"/>
      <use x="455.859375" xlink:href="#ArialMT-116"/>
      <use x="483.642578" xlink:href="#ArialMT-105"/>
      <use x="505.859375" xlink:href="#ArialMT-111"/>
      <use x="561.474609" xlink:href="#ArialMT-110"/>
      <use x="617.089844" xlink:href="#ArialMT-95"/>
      <use x="672.705078" xlink:href="#ArialMT-102"/>
      <use x="700.488281" xlink:href="#ArialMT-97"/>
      <use x="756.103516" xlink:href="#ArialMT-105"/>
      <use x="778.320312" xlink:href="#ArialMT-108"/>
      <use x="800.537109" xlink:href="#ArialMT-44"/>
      <use x="828.320312" xlink:href="#ArialMT-32"/>
      <use x="850.603516" xlink:href="#ArialMT-65"/>
      <use x="917.302734" xlink:href="#ArialMT-85"/>
      <use x="989.519531" xlink:href="#ArialMT-67"/>
      <use x="1061.736328" xlink:href="#ArialMT-32"/>
      <use x="1089.519531" xlink:href="#ArialMT-61"/>
      <use x="1147.917969" xlink:href="#ArialMT-32"/>
      <use x="1175.701172" xlink:href="#ArialMT-48"/>
      <use x="1231.316406" xlink:href="#ArialMT-46"/>
      <use x="1259.099609" xlink:href="#ArialMT-56"/>
      <use x="1314.714844" xlink:href="#ArialMT-54"/>
      <use x="1370.330078" xlink:href="#ArialMT-54"/>
     </g>
    </g>
    <g id="line2d_58">
     <path d="M 481.017188 500.733187 
L 514.017188 500.733187 
" style="fill:none;stroke:#e866f4;stroke-dasharray:9,2.25,9,2.25,9,2.25,2.25,2.25;stroke-dashoffset:0;stroke-width:2.25;"/>
    </g>
    <g id="line2d_59"/>
    <g id="text_27">
     <!-- Wrong_location, AUC = 0.984 -->
     <g style="fill:#262626;" transform="translate(527.217188 506.508187)scale(0.165 -0.165)">
      <defs>
       <path d="M 20.21875 0 
L 1.21875 71.578125 
L 10.9375 71.578125 
L 21.828125 24.65625 
Q 23.578125 17.28125 24.859375 10.015625 
Q 27.59375 21.484375 28.078125 23.25 
L 41.703125 71.578125 
L 53.125 71.578125 
L 63.375 35.359375 
Q 67.234375 21.875 68.953125 10.015625 
Q 70.3125 16.796875 72.515625 25.59375 
L 83.734375 71.578125 
L 93.265625 71.578125 
L 73.640625 0 
L 64.5 0 
L 49.421875 54.546875 
Q 47.515625 61.375 47.171875 62.9375 
Q 46.046875 58.015625 45.0625 54.546875 
L 29.890625 0 
z
" id="ArialMT-87"/>
      </defs>
      <use xlink:href="#ArialMT-87"/>
      <use x="92.634766" xlink:href="#ArialMT-114"/>
      <use x="125.935547" xlink:href="#ArialMT-111"/>
      <use x="181.550781" xlink:href="#ArialMT-110"/>
      <use x="237.166016" xlink:href="#ArialMT-103"/>
      <use x="292.78125" xlink:href="#ArialMT-95"/>
      <use x="348.396484" xlink:href="#ArialMT-108"/>
      <use x="370.613281" xlink:href="#ArialMT-111"/>
      <use x="426.228516" xlink:href="#ArialMT-99"/>
      <use x="476.228516" xlink:href="#ArialMT-97"/>
      <use x="531.84375" xlink:href="#ArialMT-116"/>
      <use x="559.626953" xlink:href="#ArialMT-105"/>
      <use x="581.84375" xlink:href="#ArialMT-111"/>
      <use x="637.458984" xlink:href="#ArialMT-110"/>
      <use x="693.074219" xlink:href="#ArialMT-44"/>
      <use x="720.857422" xlink:href="#ArialMT-32"/>
      <use x="743.140625" xlink:href="#ArialMT-65"/>
      <use x="809.839844" xlink:href="#ArialMT-85"/>
      <use x="882.056641" xlink:href="#ArialMT-67"/>
      <use x="954.273438" xlink:href="#ArialMT-32"/>
      <use x="982.056641" xlink:href="#ArialMT-61"/>
      <use x="1040.455078" xlink:href="#ArialMT-32"/>
      <use x="1068.238281" xlink:href="#ArialMT-48"/>
      <use x="1123.853516" xlink:href="#ArialMT-46"/>
      <use x="1151.636719" xlink:href="#ArialMT-57"/>
      <use x="1207.251953" xlink:href="#ArialMT-56"/>
      <use x="1262.867188" xlink:href="#ArialMT-52"/>
     </g>
    </g>
    <g id="line2d_60">
     <path d="M 481.017188 524.266312 
L 514.017188 524.266312 
" style="fill:none;stroke:#f668c2;stroke-dasharray:6.75,2.8125,6.75,2.8125,2.8125,2.8125,2.8125,2.8125;stroke-dashoffset:0;stroke-width:2.25;"/>
    </g>
    <g id="line2d_61"/>
    <g id="text_28">
     <!-- zeroct1, AUC = 0.736 -->
     <g style="fill:#262626;" transform="translate(527.217188 530.041312)scale(0.165 -0.165)">
      <defs>
       <path d="M 1.953125 0 
L 1.953125 7.125 
L 34.96875 45.015625 
Q 29.34375 44.734375 25.046875 44.734375 
L 3.90625 44.734375 
L 3.90625 51.859375 
L 46.296875 51.859375 
L 46.296875 46.046875 
L 18.21875 13.140625 
L 12.796875 7.125 
Q 18.703125 7.5625 23.875 7.5625 
L 47.859375 7.5625 
L 47.859375 0 
z
" id="ArialMT-122"/>
      </defs>
      <use xlink:href="#ArialMT-122"/>
      <use x="50" xlink:href="#ArialMT-101"/>
      <use x="105.615234" xlink:href="#ArialMT-114"/>
      <use x="138.916016" xlink:href="#ArialMT-111"/>
      <use x="194.53125" xlink:href="#ArialMT-99"/>
      <use x="244.53125" xlink:href="#ArialMT-116"/>
      <use x="272.314453" xlink:href="#ArialMT-49"/>
      <use x="327.929688" xlink:href="#ArialMT-44"/>
      <use x="355.712891" xlink:href="#ArialMT-32"/>
      <use x="377.996094" xlink:href="#ArialMT-65"/>
      <use x="444.695312" xlink:href="#ArialMT-85"/>
      <use x="516.912109" xlink:href="#ArialMT-67"/>
      <use x="589.128906" xlink:href="#ArialMT-32"/>
      <use x="616.912109" xlink:href="#ArialMT-61"/>
      <use x="675.310547" xlink:href="#ArialMT-32"/>
      <use x="703.09375" xlink:href="#ArialMT-48"/>
      <use x="758.708984" xlink:href="#ArialMT-46"/>
      <use x="786.492188" xlink:href="#ArialMT-55"/>
      <use x="842.107422" xlink:href="#ArialMT-51"/>
      <use x="897.722656" xlink:href="#ArialMT-54"/>
     </g>
    </g>
   </g>
  </g>
 </g>
 <defs>
  <clipPath id="p60943aa19b">
   <rect height="521.856" width="714.24" x="63.096563" y="26.314687"/>
  </clipPath>
 </defs>
</svg>
